FlexSansGBVF-Thin.ufo
<glyph name="uni0021" format="2">
  <advance width="264"/>
  <unicode hex="0021"/>
  <outline>
    <contour>
      <point x="138" y="185" type="line"/>
      <point x="143" y="435" type="line"/>
      <point x="143" y="733" type="line"/>
      <point x="121" y="733" type="line"/>
      <point x="121" y="435" type="line"/>
      <point x="126" y="185" type="line"/>
    </contour>
    <contour>
      <point x="132" y="-6" type="curve" smooth="yes"/>
      <point x="149" y="-6"/>
      <point x="159" y="3"/>
      <point x="159" y="19" type="curve" smooth="yes"/>
      <point x="159" y="27" type="line" smooth="yes"/>
      <point x="159" y="43"/>
      <point x="149" y="52"/>
      <point x="132" y="52" type="curve" smooth="yes"/>
      <point x="115" y="52"/>
      <point x="105" y="43"/>
      <point x="105" y="27" type="curve" smooth="yes"/>
      <point x="105" y="19" type="line" smooth="yes"/>
      <point x="105" y="3"/>
      <point x="115" y="-6"/>
    </contour>
  </outline>
</glyph>
<glyph name="uni0026" format="2">
  <advance width="711"/>
  <unicode hex="0026"/>
  <outline>
    <contour>
      <point x="285" y="-13" type="curve" smooth="yes"/>
      <point x="395" y="-13"/>
      <point x="477" y="40"/>
      <point x="522" y="121" type="curve"/>
      <point x="644" y="0" type="line"/>
      <point x="672" y="0" type="line"/>
      <point x="530" y="141" type="line"/>
      <point x="556" y="200"/>
      <point x="568" y="271"/>
      <point x="570" y="349" type="curve"/>
      <point x="666" y="349" type="line"/>
      <point x="666" y="369" type="line"/>
      <point x="551" y="369" type="line"/>
      <point x="551" y="289"/>
      <point x="540" y="213"/>
      <point x="516" y="155" type="curve"/>
      <point x="285" y="385" type="line"/>
      <point x="410" y="443"/>
      <point x="492" y="497"/>
      <point x="492" y="599" type="curve" smooth="yes"/>
      <point x="492" y="680"/>
      <point x="428" y="746"/>
      <point x="324" y="746" type="curve" smooth="yes"/>
      <point x="215" y="746"/>
      <point x="147" y="679"/>
      <point x="147" y="582" type="curve" smooth="yes"/>
      <point x="147" y="512"/>
      <point x="185" y="461"/>
      <point x="251" y="389" type="curve"/>
      <point x="154" y="342"/>
      <point x="74" y="290"/>
      <point x="74" y="174" type="curve" smooth="yes"/>
      <point x="74" y="62"/>
      <point x="156" y="-13"/>
    </contour>
    <contour>
      <point x="285" y="7" type="curve" smooth="yes"/>
      <point x="176" y="7"/>
      <point x="97" y="69"/>
      <point x="97" y="164" type="curve" smooth="yes"/>
      <point x="97" y="185" type="line" smooth="yes"/>
      <point x="97" y="287"/>
      <point x="173" y="331"/>
      <point x="265" y="376" type="curve"/>
      <point x="507" y="135" type="line"/>
      <point x="464" y="55"/>
      <point x="391" y="7"/>
    </contour>
    <contour>
      <point x="272" y="398" type="curve"/>
      <point x="216" y="458"/>
      <point x="170" y="513"/>
      <point x="170" y="573" type="curve" smooth="yes"/>
      <point x="170" y="592" type="line" smooth="yes"/>
      <point x="170" y="668"/>
      <point x="228" y="728"/>
      <point x="324" y="728" type="curve" smooth="yes"/>
      <point x="402" y="728"/>
      <point x="469" y="681"/>
      <point x="469" y="603" type="curve" smooth="yes"/>
      <point x="469" y="588" type="line" smooth="yes"/>
      <point x="469" y="508"/>
      <point x="387" y="451"/>
    </contour>
  </outline>
</glyph>
<glyph name="uni002E" format="2">
  <advance width="252"/>
  <unicode hex="002E"/>
  <outline>
    <contour>
      <point x="126" y="-13" type="curve" smooth="yes"/>
      <point x="144" y="-13"/>
      <point x="153" y="-4"/>
      <point x="153" y="12" type="curve" smooth="yes"/>
      <point x="153" y="20" type="line" smooth="yes"/>
      <point x="153" y="36"/>
      <point x="144" y="45"/>
      <point x="126" y="45" type="curve" smooth="yes"/>
      <point x="108" y="45"/>
      <point x="99" y="36"/>
      <point x="99" y="20" type="curve" smooth="yes"/>
      <point x="99" y="12" type="line" smooth="yes"/>
      <point x="99" y="-4"/>
      <point x="108" y="-13"/>
    </contour>
  </outline>
</glyph>
<glyph name="uni002F" format="2">
  <advance width="329"/>
  <unicode hex="002F"/>
  <outline>
    <contour>
      <point x="35" y="-159" type="line"/>
      <point x="285" y="777" type="line"/>
      <point x="265" y="777" type="line"/>
      <point x="15" y="-159" type="line"/>
    </contour>
  </outline>
</glyph>
<glyph name="uni0032" format="2">
  <advance width="630"/>
  <unicode hex="0032"/>
  <outline>
    <contour>
      <point x="547" y="0" type="line"/>
      <point x="547" y="20" type="line"/>
      <point x="117" y="20" type="line"/>
      <point x="389" y="294" type="line" smooth="yes"/>
      <point x="467" y="373"/>
      <point x="510" y="448"/>
      <point x="510" y="542" type="curve" smooth="yes"/>
      <point x="510" y="668"/>
      <point x="440" y="746"/>
      <point x="309" y="746" type="curve" smooth="yes"/>
      <point x="188" y="746"/>
      <point x="118" y="678"/>
      <point x="91" y="583" type="curve"/>
      <point x="111" y="579" type="line"/>
      <point x="141" y="669"/>
      <point x="200" y="726"/>
      <point x="309" y="726" type="curve" smooth="yes"/>
      <point x="425" y="726"/>
      <point x="486" y="654"/>
      <point x="486" y="559" type="curve" smooth="yes"/>
      <point x="486" y="527" type="line" smooth="yes"/>
      <point x="486" y="449"/>
      <point x="445" y="379"/>
      <point x="375" y="309" type="curve" smooth="yes"/>
      <point x="91" y="22" type="line"/>
      <point x="91" y="0" type="line"/>
    </contour>
  </outline>
</glyph>
<glyph name="uni0034" format="2">
  <advance width="630"/>
  <unicode hex="0034"/>
  <outline>
    <contour>
      <point x="454" y="169" type="line"/>
      <point x="578" y="169" type="line"/>
      <point x="578" y="188" type="line"/>
      <point x="454" y="188" type="line"/>
      <point x="454" y="733" type="line"/>
      <point x="428" y="733" type="line"/>
      <point x="49" y="189" type="line"/>
      <point x="49" y="169" type="line"/>
      <point x="434" y="169" type="line"/>
      <point x="434" y="0" type="line"/>
      <point x="454" y="0" type="line"/>
    </contour>
    <contour>
      <point x="434" y="705" type="line"/>
      <point x="434" y="188" type="line"/>
      <point x="71" y="188" type="line"/>
      <point x="432" y="705" type="line"/>
    </contour>
  </outline>
</glyph>
<glyph name="uni0035" format="2">
  <advance width="630"/>
  <unicode hex="0035"/>
  <outline>
    <contour>
      <point x="148" y="733" type="line"/>
      <point x="121" y="342" type="line"/>
      <point x="144" y="339" type="line"/>
      <point x="187" y="390"/>
      <point x="230" y="414"/>
      <point x="319" y="414" type="curve" smooth="yes"/>
      <point x="440" y="414"/>
      <point x="506" y="337"/>
      <point x="506" y="227" type="curve" smooth="yes"/>
      <point x="506" y="197" type="line" smooth="yes"/>
      <point x="506" y="86"/>
      <point x="435" y="7"/>
      <point x="312" y="7" type="curve" smooth="yes"/>
      <point x="217" y="7"/>
      <point x="152" y="39"/>
      <point x="107" y="110" type="curve"/>
      <point x="88" y="100" type="line"/>
      <point x="137" y="23"/>
      <point x="210" y="-13"/>
      <point x="312" y="-13" type="curve" smooth="yes"/>
      <point x="445" y="-13"/>
      <point x="530" y="74"/>
      <point x="530" y="213" type="curve" smooth="yes"/>
      <point x="530" y="351"/>
      <point x="453" y="434"/>
      <point x="319" y="434" type="curve" smooth="yes"/>
      <point x="240" y="434"/>
      <point x="186" y="415"/>
      <point x="143" y="360" type="curve"/>
      <point x="141" y="361" type="line"/>
      <point x="166" y="713" type="line"/>
      <point x="505" y="713" type="line"/>
      <point x="505" y="733" type="line"/>
    </contour>
  </outline>
</glyph>
<glyph name="uni0037" format="2">
  <advance width="630"/>
  <unicode hex="0037"/>
  <outline>
    <contour>
      <point x="538" y="713" type="line"/>
      <point x="538" y="733" type="line"/>
      <point x="81" y="733" type="line"/>
      <point x="81" y="538" type="line"/>
      <point x="103" y="538" type="line"/>
      <point x="103" y="713" type="line"/>
      <point x="515" y="713" type="line"/>
      <point x="197" y="0" type="line"/>
      <point x="221" y="0" type="line"/>
    </contour>
  </outline>
</glyph>
<glyph name="uni0039" format="2">
  <advance width="630"/>
  <unicode hex="0039"/>
  <outline>
    <contour>
      <point x="254" y="0" type="line"/>
      <point x="417" y="100"/>
      <point x="542" y="258"/>
      <point x="542" y="496" type="curve" smooth="yes"/>
      <point x="542" y="635"/>
      <point x="478" y="746"/>
      <point x="318" y="746" type="curve" smooth="yes"/>
      <point x="183" y="746"/>
      <point x="96" y="655"/>
      <point x="96" y="518" type="curve" smooth="yes"/>
      <point x="96" y="380"/>
      <point x="184" y="295"/>
      <point x="319" y="295" type="curve" smooth="yes"/>
      <point x="405" y="295"/>
      <point x="475" y="332"/>
      <point x="512" y="407" type="curve"/>
      <point x="515" y="406" type="line"/>
      <point x="486" y="232"/>
      <point x="393" y="106"/>
      <point x="222" y="0" type="curve"/>
    </contour>
    <contour>
      <point x="319" y="315" type="curve" smooth="yes"/>
      <point x="195" y="315"/>
      <point x="120" y="398"/>
      <point x="120" y="504" type="curve" smooth="yes"/>
      <point x="120" y="537" type="line" smooth="yes"/>
      <point x="120" y="644"/>
      <point x="196" y="726"/>
      <point x="319" y="726" type="curve" smooth="yes"/>
      <point x="441" y="726"/>
      <point x="518" y="643"/>
      <point x="518" y="533" type="curve" smooth="yes"/>
      <point x="518" y="504" type="line" smooth="yes"/>
      <point x="518" y="398"/>
      <point x="444" y="315"/>
    </contour>
  </outline>
</glyph>
<glyph name="uni003D" format="2">
  <advance width="630"/>
  <unicode hex="003D"/>
  <outline>
    <contour>
      <point x="564" y="405" type="line"/>
      <point x="564" y="424" type="line"/>
      <point x="66" y="424" type="line"/>
      <point x="66" y="405" type="line"/>
    </contour>
    <contour>
      <point x="564" y="218" type="line"/>
      <point x="564" y="237" type="line"/>
      <point x="66" y="237" type="line"/>
      <point x="66" y="218" type="line"/>
    </contour>
  </outline>
</glyph>
<glyph name="uni0040" format="2">
  <advance width="924"/>
  <unicode hex="0040"/>
  <outline>
    <contour>
      <point x="710" y="-127" type="line"/>
      <point x="710" y="-109" type="line"/>
      <point x="462" y="-109" type="line" smooth="yes"/>
      <point x="251" y="-109"/>
      <point x="96" y="53"/>
      <point x="96" y="288" type="curve" smooth="yes"/>
      <point x="96" y="342" type="line" smooth="yes"/>
      <point x="96" y="567"/>
      <point x="253" y="728"/>
      <point x="464" y="728" type="curve" smooth="yes"/>
      <point x="670" y="728"/>
      <point x="828" y="586"/>
      <point x="828" y="370" type="curve" smooth="yes"/>
      <point x="828" y="320" type="line" smooth="yes"/>
      <point x="828" y="174"/>
      <point x="778" y="90"/>
      <point x="701" y="90" type="curve" smooth="yes"/>
      <point x="652" y="90"/>
      <point x="623" y="124"/>
      <point x="623" y="171" type="curve" smooth="yes"/>
      <point x="623" y="521" type="line"/>
      <point x="603" y="521" type="line"/>
      <point x="603" y="454" type="line"/>
      <point x="600" y="454" type="line"/>
      <point x="581" y="494"/>
      <point x="534" y="533"/>
      <point x="458" y="533" type="curve" smooth="yes"/>
      <point x="344" y="533"/>
      <point x="277" y="456"/>
      <point x="277" y="301" type="curve" smooth="yes"/>
      <point x="277" y="149"/>
      <point x="344" y="72"/>
      <point x="458" y="72" type="curve" smooth="yes"/>
      <point x="534" y="72"/>
      <point x="581" y="116"/>
      <point x="601" y="155" type="curve"/>
      <point x="604" y="155" type="line"/>
      <point x="609" y="106"/>
      <point x="647" y="72"/>
      <point x="701" y="72" type="curve" smooth="yes"/>
      <point x="806" y="72"/>
      <point x="850" y="194"/>
      <point x="850" y="347" type="curve" smooth="yes"/>
      <point x="850" y="605"/>
      <point x="674" y="746"/>
      <point x="464" y="746" type="curve" smooth="yes"/>
      <point x="243" y="746"/>
      <point x="74" y="582"/>
      <point x="74" y="315" type="curve" smooth="yes"/>
      <point x="74" y="32"/>
      <point x="246" y="-127"/>
      <point x="462" y="-127" type="curve" smooth="yes"/>
    </contour>
    <contour>
      <point x="458" y="90" type="curve" smooth="yes"/>
      <point x="356" y="90"/>
      <point x="299" y="165"/>
      <point x="299" y="281" type="curve" smooth="yes"/>
      <point x="299" y="321" type="line" smooth="yes"/>
      <point x="299" y="440"/>
      <point x="356" y="515"/>
      <point x="458" y="515" type="curve" smooth="yes"/>
      <point x="534" y="515"/>
      <point x="603" y="460"/>
      <point x="603" y="380" type="curve" smooth="yes"/>
      <point x="603" y="223" type="line" smooth="yes"/>
      <point x="603" y="144"/>
      <point x="534" y="90"/>
    </contour>
  </outline>
</glyph>
<glyph name="uni0042" format="2">
  <advance width="646"/>
  <unicode hex="0042"/>
  <outline>
    <contour>
      <point x="394" y="0" type="line" smooth="yes"/>
      <point x="515" y="0"/>
      <point x="576" y="78"/>
      <point x="576" y="198" type="curve" smooth="yes"/>
      <point x="576" y="301"/>
      <point x="532" y="371"/>
      <point x="441" y="387" type="curve"/>
      <point x="441" y="390" type="line"/>
      <point x="506" y="411"/>
      <point x="543" y="463"/>
      <point x="543" y="554" type="curve" smooth="yes"/>
      <point x="543" y="671"/>
      <point x="481" y="733"/>
      <point x="378" y="733" type="curve" smooth="yes"/>
      <point x="113" y="733" type="line"/>
      <point x="113" y="0" type="line"/>
    </contour>
    <contour>
      <point x="135" y="376" type="line"/>
      <point x="395" y="376" type="line" smooth="yes"/>
      <point x="503" y="376"/>
      <point x="552" y="300"/>
      <point x="552" y="221" type="curve" smooth="yes"/>
      <point x="552" y="176" type="line" smooth="yes"/>
      <point x="552" y="96"/>
      <point x="503" y="20"/>
      <point x="395" y="20" type="curve" smooth="yes"/>
      <point x="135" y="20" type="line"/>
    </contour>
    <contour>
      <point x="135" y="713" type="line"/>
      <point x="378" y="713" type="line" smooth="yes"/>
      <point x="475" y="713"/>
      <point x="519" y="647"/>
      <point x="519" y="576" type="curve" smooth="yes"/>
      <point x="519" y="532" type="line" smooth="yes"/>
      <point x="519" y="462"/>
      <point x="475" y="396"/>
      <point x="378" y="396" type="curve" smooth="yes"/>
      <point x="135" y="396" type="line"/>
    </contour>
  </outline>
</glyph>
<glyph name="uni0044" format="2">
  <advance width="691"/>
  <unicode hex="0044"/>
  <outline>
    <contour>
      <point x="328" y="0" type="line" smooth="yes"/>
      <point x="523" y="0"/>
      <point x="617" y="124"/>
      <point x="617" y="366" type="curve" smooth="yes"/>
      <point x="617" y="609"/>
      <point x="523" y="733"/>
      <point x="328" y="733" type="curve" smooth="yes"/>
      <point x="113" y="733" type="line"/>
      <point x="113" y="0" type="line"/>
    </contour>
    <contour>
      <point x="135" y="713" type="line"/>
      <point x="329" y="713" type="line" smooth="yes"/>
      <point x="511" y="713"/>
      <point x="593" y="588"/>
      <point x="593" y="398" type="curve" smooth="yes"/>
      <point x="593" y="335" type="line" smooth="yes"/>
      <point x="593" y="145"/>
      <point x="511" y="20"/>
      <point x="329" y="20" type="curve" smooth="yes"/>
      <point x="135" y="20" type="line"/>
    </contour>
  </outline>
</glyph>
<glyph name="uni0047" format="2">
  <advance width="699"/>
  <unicode hex="0047"/>
  <outline>
    <contour>
      <point x="357" y="-13" type="curve" smooth="yes"/>
      <point x="474" y="-13"/>
      <point x="550" y="36"/>
      <point x="590" y="120" type="curve"/>
      <point x="593" y="120" type="line"/>
      <point x="593" y="0" type="line"/>
      <point x="614" y="0" type="line"/>
      <point x="614" y="349" type="line"/>
      <point x="407" y="349" type="line"/>
      <point x="407" y="329" type="line"/>
      <point x="592" y="329" type="line"/>
      <point x="592" y="216" type="line" smooth="yes"/>
      <point x="592" y="77"/>
      <point x="483" y="7"/>
      <point x="357" y="7" type="curve" smooth="yes"/>
      <point x="195" y="7"/>
      <point x="98" y="122"/>
      <point x="98" y="344" type="curve" smooth="yes"/>
      <point x="98" y="389" type="line" smooth="yes"/>
      <point x="98" y="611"/>
      <point x="195" y="726"/>
      <point x="357" y="726" type="curve" smooth="yes"/>
      <point x="459" y="726"/>
      <point x="540" y="674"/>
      <point x="578" y="587" type="curve"/>
      <point x="596" y="595" type="line"/>
      <point x="558" y="686"/>
      <point x="470" y="746"/>
      <point x="357" y="746" type="curve" smooth="yes"/>
      <point x="175" y="746"/>
      <point x="74" y="619"/>
      <point x="74" y="366" type="curve" smooth="yes"/>
      <point x="74" y="114"/>
      <point x="175" y="-13"/>
    </contour>
  </outline>
</glyph>
<glyph name="uni0049" format="2">
  <advance width="391"/>
  <unicode hex="0049"/>
  <outline>
    <contour>
      <point x="319" y="0" type="line"/>
      <point x="319" y="19" type="line"/>
      <point x="207" y="19" type="line"/>
      <point x="207" y="714" type="line"/>
      <point x="319" y="714" type="line"/>
      <point x="319" y="733" type="line"/>
      <point x="72" y="733" type="line"/>
      <point x="72" y="714" type="line"/>
      <point x="185" y="714" type="line"/>
      <point x="185" y="19" type="line"/>
      <point x="72" y="19" type="line"/>
      <point x="72" y="0" type="line"/>
    </contour>
  </outline>
</glyph>
<glyph name="uni004A" format="2">
  <advance width="486"/>
  <unicode hex="004A"/>
  <outline>
    <contour>
      <point x="202" y="-13" type="curve" smooth="yes"/>
      <point x="313" y="-13"/>
      <point x="381" y="58"/>
      <point x="381" y="192" type="curve" smooth="yes"/>
      <point x="381" y="733" type="line"/>
      <point x="101" y="733" type="line"/>
      <point x="101" y="713" type="line"/>
      <point x="359" y="713" type="line"/>
      <point x="359" y="192" type="line" smooth="yes"/>
      <point x="359" y="74"/>
      <point x="307" y="7"/>
      <point x="202" y="7" type="curve" smooth="yes"/>
      <point x="120" y="7"/>
      <point x="62" y="58"/>
      <point x="42" y="124" type="curve"/>
      <point x="23" y="118" type="line"/>
      <point x="42" y="41"/>
      <point x="114" y="-13"/>
    </contour>
  </outline>
</glyph>
<glyph name="uni004B" format="2">
  <advance width="600"/>
  <unicode hex="004B"/>
  <outline>
    <contour>
      <point x="135" y="0" type="line"/>
      <point x="135" y="251" type="line"/>
      <point x="278" y="407" type="line"/>
      <point x="552" y="0" type="line"/>
      <point x="579" y="0" type="line"/>
      <point x="293" y="423" type="line"/>
      <point x="575" y="733" type="line"/>
      <point x="547" y="733" type="line"/>
      <point x="275" y="433" type="line"/>
      <point x="138" y="284" type="line"/>
      <point x="135" y="284" type="line"/>
      <point x="135" y="733" type="line"/>
      <point x="113" y="733" type="line"/>
      <point x="113" y="0" type="line"/>
    </contour>
  </outline>
</glyph>
<glyph name="uni004C" format="2">
  <advance width="499"/>
  <unicode hex="004C"/>
  <outline>
    <contour>
      <point x="478" y="20" type="line"/>
      <point x="135" y="20" type="line"/>
      <point x="135" y="733" type="line"/>
      <point x="113" y="733" type="line"/>
      <point x="113" y="0" type="line"/>
      <point x="478" y="0" type="line"/>
    </contour>
  </outline>
</glyph>
<glyph name="uni005A" format="2">
  <advance width="583"/>
  <unicode hex="005A"/>
  <outline>
    <contour>
      <point x="65" y="20" type="line"/>
      <point x="531" y="711" type="line"/>
      <point x="531" y="733" type="line"/>
      <point x="65" y="733" type="line"/>
      <point x="65" y="713" type="line"/>
      <point x="507" y="713" type="line"/>
      <point x="41" y="22" type="line"/>
      <point x="41" y="0" type="line"/>
      <point x="553" y="0" type="line"/>
      <point x="553" y="20" type="line"/>
    </contour>
  </outline>
</glyph>
<glyph name="uni005B" format="2">
  <advance width="317"/>
  <unicode hex="005B"/>
  <outline>
    <contour>
      <point x="243" y="-145" type="line"/>
      <point x="243" y="-127" type="line"/>
      <point x="133" y="-127" type="line"/>
      <point x="133" y="780" type="line"/>
      <point x="243" y="780" type="line"/>
      <point x="243" y="798" type="line"/>
      <point x="113" y="798" type="line"/>
      <point x="113" y="-145" type="line"/>
    </contour>
  </outline>
</glyph>
<glyph name="uni005C" format="2">
  <advance width="329"/>
  <unicode hex="005C"/>
  <outline>
    <contour>
      <point x="308" y="-159" type="line"/>
      <point x="63" y="777" type="line"/>
      <point x="43" y="777" type="line"/>
      <point x="288" y="-159" type="line"/>
    </contour>
  </outline>
</glyph>
<glyph name="uni005E" format="2">
  <advance width="630"/>
  <unicode hex="005E"/>
  <outline>
    <contour>
      <point x="314" y="711" type="line"/>
      <point x="316" y="711" type="line"/>
      <point x="541" y="339" type="line"/>
      <point x="559" y="349" type="line"/>
      <point x="326" y="733" type="line"/>
      <point x="304" y="733" type="line"/>
      <point x="71" y="349" type="line"/>
      <point x="89" y="339" type="line"/>
    </contour>
  </outline>
</glyph>
<glyph name="uni005F" format="2">
  <advance width="597"/>
  <unicode hex="005F"/>
  <unicode hex="0332"/>
  <outline>
    <contour>
      <point x="564" y="-148" type="line"/>
      <point x="564" y="-130" type="line"/>
      <point x="33" y="-130" type="line"/>
      <point x="33" y="-148" type="line"/>
    </contour>
  </outline>
</glyph>
<glyph name="uni0062" format="2">
  <advance width="593"/>
  <unicode hex="0062"/>
  <outline>
    <contour>
      <point x="307" y="-13" type="curve" smooth="yes"/>
      <point x="445" y="-13"/>
      <point x="528" y="81"/>
      <point x="528" y="266" type="curve" smooth="yes"/>
      <point x="528" y="450"/>
      <point x="445" y="544"/>
      <point x="307" y="544" type="curve" smooth="yes"/>
      <point x="213" y="544"/>
      <point x="156" y="495"/>
      <point x="134" y="449" type="curve"/>
      <point x="131" y="449" type="line"/>
      <point x="131" y="777" type="line"/>
      <point x="110" y="777" type="line"/>
      <point x="110" y="0" type="line"/>
      <point x="131" y="0" type="line"/>
      <point x="131" y="82" type="line"/>
      <point x="134" y="82" type="line"/>
      <point x="156" y="36"/>
      <point x="213" y="-13"/>
    </contour>
    <contour>
      <point x="307" y="6" type="curve" smooth="yes"/>
      <point x="214" y="6"/>
      <point x="131" y="64"/>
      <point x="131" y="150" type="curve" smooth="yes"/>
      <point x="131" y="381" type="line" smooth="yes"/>
      <point x="131" y="467"/>
      <point x="214" y="525"/>
      <point x="307" y="525" type="curve" smooth="yes"/>
      <point x="434" y="525"/>
      <point x="505" y="435"/>
      <point x="505" y="291" type="curve" smooth="yes"/>
      <point x="505" y="240" type="line" smooth="yes"/>
      <point x="505" y="96"/>
      <point x="434" y="6"/>
    </contour>
  </outline>
</glyph>
<glyph name="uni0063" format="2">
  <advance width="511"/>
  <unicode hex="0063"/>
  <outline>
    <contour>
      <point x="284" y="-13" type="curve" smooth="yes"/>
      <point x="376" y="-13"/>
      <point x="432" y="28"/>
      <point x="466" y="88" type="curve"/>
      <point x="450" y="99" type="line"/>
      <point x="417" y="41"/>
      <point x="365" y="6"/>
      <point x="284" y="6" type="curve" smooth="yes"/>
      <point x="157" y="6"/>
      <point x="86" y="97"/>
      <point x="86" y="240" type="curve" smooth="yes"/>
      <point x="86" y="291" type="line" smooth="yes"/>
      <point x="86" y="434"/>
      <point x="157" y="525"/>
      <point x="284" y="525" type="curve" smooth="yes"/>
      <point x="359" y="525"/>
      <point x="405" y="491"/>
      <point x="439" y="430" type="curve"/>
      <point x="457" y="439" type="line"/>
      <point x="424" y="502"/>
      <point x="368" y="544"/>
      <point x="284" y="544" type="curve" smooth="yes"/>
      <point x="145" y="544"/>
      <point x="63" y="449"/>
      <point x="63" y="266" type="curve" smooth="yes"/>
      <point x="63" y="82"/>
      <point x="145" y="-13"/>
    </contour>
  </outline>
</glyph>
<glyph name="uni0064" format="2">
  <advance width="593"/>
  <unicode hex="0064"/>
  <outline>
    <contour>
      <point x="286" y="-13" type="curve" smooth="yes"/>
      <point x="380" y="-13"/>
      <point x="437" y="36"/>
      <point x="459" y="82" type="curve"/>
      <point x="462" y="82" type="line"/>
      <point x="462" y="0" type="line"/>
      <point x="483" y="0" type="line"/>
      <point x="483" y="777" type="line"/>
      <point x="462" y="777" type="line"/>
      <point x="462" y="449" type="line"/>
      <point x="459" y="449" type="line"/>
      <point x="437" y="495"/>
      <point x="380" y="544"/>
      <point x="286" y="544" type="curve" smooth="yes"/>
      <point x="148" y="544"/>
      <point x="65" y="450"/>
      <point x="65" y="266" type="curve" smooth="yes"/>
      <point x="65" y="81"/>
      <point x="148" y="-13"/>
    </contour>
    <contour>
      <point x="286" y="6" type="curve" smooth="yes"/>
      <point x="159" y="6"/>
      <point x="88" y="96"/>
      <point x="88" y="240" type="curve" smooth="yes"/>
      <point x="88" y="291" type="line" smooth="yes"/>
      <point x="88" y="435"/>
      <point x="159" y="525"/>
      <point x="286" y="525" type="curve" smooth="yes"/>
      <point x="379" y="525"/>
      <point x="462" y="467"/>
      <point x="462" y="381" type="curve" smooth="yes"/>
      <point x="462" y="150" type="line" smooth="yes"/>
      <point x="462" y="64"/>
      <point x="379" y="6"/>
    </contour>
  </outline>
</glyph>
<glyph name="uni0069" format="2">
  <advance width="242"/>
  <unicode hex="0069"/>
  <outline>
    <contour>
      <point x="131" y="0" type="line"/>
      <point x="131" y="531" type="line"/>
      <point x="110" y="531" type="line"/>
      <point x="110" y="0" type="line"/>
    </contour>
    <contour>
      <point x="121" y="708" type="curve" smooth="yes"/>
      <point x="138" y="708"/>
      <point x="144" y="718"/>
      <point x="144" y="729" type="curve" smooth="yes"/>
      <point x="144" y="736" type="line" smooth="yes"/>
      <point x="144" y="747"/>
      <point x="138" y="757"/>
      <point x="121" y="757" type="curve" smooth="yes"/>
      <point x="104" y="757"/>
      <point x="98" y="747"/>
      <point x="98" y="736" type="curve" smooth="yes"/>
      <point x="98" y="729" type="line" smooth="yes"/>
      <point x="98" y="718"/>
      <point x="104" y="708"/>
    </contour>
  </outline>
</glyph>
<glyph name="uni006A" format="2">
  <advance width="242"/>
  <unicode hex="006A"/>
  <outline>
    <contour>
      <point x="103" y="-210" type="line" smooth="yes"/>
      <point x="124" y="-210"/>
      <point x="133" y="-201"/>
      <point x="133" y="-180" type="curve" smooth="yes"/>
      <point x="133" y="531" type="line"/>
      <point x="112" y="531" type="line"/>
      <point x="112" y="-191" type="line"/>
      <point x="24" y="-191" type="line"/>
      <point x="24" y="-210" type="line"/>
    </contour>
    <contour>
      <point x="123" y="708" type="curve" smooth="yes"/>
      <point x="140" y="708"/>
      <point x="146" y="718"/>
      <point x="146" y="729" type="curve" smooth="yes"/>
      <point x="146" y="736" type="line" smooth="yes"/>
      <point x="146" y="747"/>
      <point x="140" y="757"/>
      <point x="123" y="757" type="curve" smooth="yes"/>
      <point x="106" y="757"/>
      <point x="100" y="747"/>
      <point x="100" y="736" type="curve" smooth="yes"/>
      <point x="100" y="729" type="line" smooth="yes"/>
      <point x="100" y="718"/>
      <point x="106" y="708"/>
    </contour>
  </outline>
</glyph>
<glyph name="uni006B" format="2">
  <advance width="515"/>
  <unicode hex="006B"/>
  <outline>
    <contour>
      <point x="131" y="0" type="line"/>
      <point x="131" y="202" type="line"/>
      <point x="224" y="292" type="line"/>
      <point x="465" y="0" type="line"/>
      <point x="491" y="0" type="line"/>
      <point x="238" y="307" type="line"/>
      <point x="464" y="531" type="line"/>
      <point x="436" y="531" type="line"/>
      <point x="134" y="231" type="line"/>
      <point x="134" y="231" type="line"/>
      <point x="131" y="231" type="line"/>
      <point x="131" y="777" type="line"/>
      <point x="110" y="777" type="line"/>
      <point x="110" y="0" type="line"/>
    </contour>
  </outline>
</glyph>
<glyph name="uni0071" format="2">
  <advance width="593"/>
  <unicode hex="0071"/>
  <outline>
    <contour>
      <point x="483" y="-210" type="line"/>
      <point x="483" y="531" type="line"/>
      <point x="461" y="531" type="line"/>
      <point x="461" y="449" type="line"/>
      <point x="458" y="449" type="line"/>
      <point x="436" y="495"/>
      <point x="379" y="544"/>
      <point x="286" y="544" type="curve" smooth="yes"/>
      <point x="146" y="544"/>
      <point x="63" y="450"/>
      <point x="63" y="266" type="curve" smooth="yes"/>
      <point x="63" y="81"/>
      <point x="146" y="-13"/>
      <point x="286" y="-13" type="curve" smooth="yes"/>
      <point x="379" y="-13"/>
      <point x="436" y="36"/>
      <point x="458" y="82" type="curve"/>
      <point x="461" y="82" type="line"/>
      <point x="461" y="-210" type="line"/>
    </contour>
    <contour>
      <point x="286" y="7" type="curve" smooth="yes"/>
      <point x="158" y="7"/>
      <point x="87" y="97"/>
      <point x="87" y="240" type="curve" smooth="yes"/>
      <point x="87" y="291" type="line" smooth="yes"/>
      <point x="87" y="434"/>
      <point x="158" y="524"/>
      <point x="286" y="524" type="curve" smooth="yes"/>
      <point x="378" y="524"/>
      <point x="461" y="466"/>
      <point x="461" y="381" type="curve" smooth="yes"/>
      <point x="461" y="150" type="line" smooth="yes"/>
      <point x="461" y="65"/>
      <point x="378" y="7"/>
    </contour>
  </outline>
</glyph>
<glyph name="uni0077" format="2">
  <advance width="761"/>
  <unicode hex="0077"/>
  <outline>
    <contour>
      <point x="225" y="0" type="line"/>
      <point x="376" y="488" type="line"/>
      <point x="379" y="497" type="line"/>
      <point x="382" y="497" type="line"/>
      <point x="385" y="488" type="line"/>
      <point x="536" y="0" type="line"/>
      <point x="562" y="0" type="line"/>
      <point x="724" y="531" type="line"/>
      <point x="703" y="531" type="line"/>
      <point x="554" y="42" type="line"/>
      <point x="550" y="27" type="line"/>
      <point x="547" y="27" type="line"/>
      <point x="543" y="40" type="line"/>
      <point x="392" y="531" type="line"/>
      <point x="370" y="531" type="line"/>
      <point x="219" y="42" type="line"/>
      <point x="214" y="27" type="line"/>
      <point x="211" y="27" type="line"/>
      <point x="207" y="42" type="line"/>
      <point x="59" y="531" type="line"/>
      <point x="37" y="531" type="line"/>
      <point x="199" y="0" type="line"/>
    </contour>
  </outline>
</glyph>
<glyph name="uni007A" format="2">
  <advance width="438"/>
  <unicode hex="007A"/>
  <outline>
    <contour>
      <point x="415" y="19" type="line"/>
      <point x="51" y="19" type="line"/>
      <point x="404" y="510" type="line"/>
      <point x="404" y="531" type="line"/>
      <point x="40" y="531" type="line"/>
      <point x="40" y="512" type="line"/>
      <point x="382" y="512" type="line"/>
      <point x="29" y="21" type="line"/>
      <point x="29" y="0" type="line"/>
      <point x="415" y="0" type="line"/>
    </contour>
  </outline>
</glyph>
<glyph name="uni007D" format="2">
  <advance width="331"/>
  <unicode hex="007D"/>
  <outline>
    <contour>
      <point x="173" y="-144" type="line" smooth="yes"/>
      <point x="190" y="-144"/>
      <point x="198" y="-137"/>
      <point x="198" y="-118" type="curve" smooth="yes"/>
      <point x="198" y="216" type="line" smooth="yes"/>
      <point x="198" y="276"/>
      <point x="237" y="302"/>
      <point x="300" y="302" type="curve"/>
      <point x="300" y="350" type="line"/>
      <point x="237" y="350"/>
      <point x="198" y="376"/>
      <point x="198" y="436" type="curve" smooth="yes"/>
      <point x="198" y="770" type="line" smooth="yes"/>
      <point x="198" y="789"/>
      <point x="190" y="796"/>
      <point x="173" y="796" type="curve" smooth="yes"/>
      <point x="74" y="796" type="line"/>
      <point x="74" y="778" type="line"/>
      <point x="178" y="778" type="line"/>
      <point x="178" y="436" type="line" smooth="yes"/>
      <point x="178" y="374"/>
      <point x="219" y="334"/>
      <point x="282" y="334" type="curve"/>
      <point x="282" y="318" type="line"/>
      <point x="219" y="318"/>
      <point x="178" y="278"/>
      <point x="178" y="216" type="curve" smooth="yes"/>
      <point x="178" y="-126" type="line"/>
      <point x="74" y="-126" type="line"/>
      <point x="74" y="-144" type="line"/>
    </contour>
  </outline>
</glyph>
<glyph name="uni007E" format="2">
  <advance width="630"/>
  <unicode hex="007E"/>
  <unicode hex="223C"/>
  <outline>
    <contour>
      <point x="445" y="270" type="curve" smooth="yes"/>
      <point x="491" y="270"/>
      <point x="526" y="286"/>
      <point x="562" y="321" type="curve"/>
      <point x="549" y="335" type="line"/>
      <point x="515" y="303"/>
      <point x="487" y="290"/>
      <point x="446" y="290" type="curve" smooth="yes"/>
      <point x="408" y="290"/>
      <point x="382" y="302"/>
      <point x="321" y="329" type="curve" smooth="yes"/>
      <point x="256" y="358"/>
      <point x="225" y="370"/>
      <point x="185" y="370" type="curve" smooth="yes"/>
      <point x="139" y="370"/>
      <point x="104" y="354"/>
      <point x="68" y="319" type="curve"/>
      <point x="81" y="305" type="line"/>
      <point x="115" y="337"/>
      <point x="143" y="350"/>
      <point x="184" y="350" type="curve" smooth="yes"/>
      <point x="222" y="350"/>
      <point x="248" y="338"/>
      <point x="309" y="311" type="curve" smooth="yes"/>
      <point x="374" y="282"/>
      <point x="405" y="270"/>
    </contour>
  </outline>
</glyph>
<glyph name="uni00A7" format="2">
  <advance width="592"/>
  <unicode hex="00A7"/>
  <outline>
    <contour>
      <point x="282" y="-162" type="curve" smooth="yes"/>
      <point x="383" y="-162"/>
      <point x="464" y="-116"/>
      <point x="464" y="-14" type="curve" smooth="yes"/>
      <point x="464" y="41"/>
      <point x="435" y="84"/>
      <point x="385" y="113" type="curve"/>
      <point x="385" y="116" type="line"/>
      <point x="456" y="143"/>
      <point x="502" y="192"/>
      <point x="502" y="273" type="curve" smooth="yes"/>
      <point x="502" y="369"/>
      <point x="445" y="409"/>
      <point x="351" y="440" type="curve" smooth="yes"/>
      <point x="281" y="463" type="line" smooth="yes"/>
      <point x="213" y="485"/>
      <point x="149" y="517"/>
      <point x="149" y="598" type="curve" smooth="yes"/>
      <point x="149" y="682"/>
      <point x="210" y="727"/>
      <point x="309" y="727" type="curve" smooth="yes"/>
      <point x="381" y="727"/>
      <point x="425" y="702"/>
      <point x="458" y="672" type="curve"/>
      <point x="471" y="687" type="line"/>
      <point x="437" y="721"/>
      <point x="387" y="746"/>
      <point x="310" y="746" type="curve" smooth="yes"/>
      <point x="209" y="746"/>
      <point x="128" y="700"/>
      <point x="128" y="598" type="curve" smooth="yes"/>
      <point x="128" y="543"/>
      <point x="157" y="500"/>
      <point x="207" y="471" type="curve"/>
      <point x="207" y="468" type="line"/>
      <point x="136" y="441"/>
      <point x="90" y="392"/>
      <point x="90" y="311" type="curve" smooth="yes"/>
      <point x="90" y="215"/>
      <point x="147" y="175"/>
      <point x="241" y="144" type="curve" smooth="yes"/>
      <point x="311" y="121" type="line" smooth="yes"/>
      <point x="379" y="99"/>
      <point x="443" y="67"/>
      <point x="443" y="-14" type="curve" smooth="yes"/>
      <point x="443" y="-98"/>
      <point x="382" y="-143"/>
      <point x="283" y="-143" type="curve" smooth="yes"/>
      <point x="211" y="-143"/>
      <point x="167" y="-118"/>
      <point x="134" y="-88" type="curve"/>
      <point x="121" y="-103" type="line"/>
      <point x="155" y="-137"/>
      <point x="205" y="-162"/>
    </contour>
    <contour>
      <point x="367" y="122" type="curve"/>
      <point x="355" y="128"/>
      <point x="332" y="135"/>
      <point x="318" y="140" type="curve"/>
      <point x="249" y="162" type="line" smooth="yes"/>
      <point x="159" y="191"/>
      <point x="111" y="228"/>
      <point x="111" y="312" type="curve" smooth="yes"/>
      <point x="111" y="387"/>
      <point x="156" y="433"/>
      <point x="225" y="462" type="curve"/>
      <point x="237" y="456"/>
      <point x="260" y="449"/>
      <point x="274" y="444" type="curve"/>
      <point x="343" y="422" type="line" smooth="yes"/>
      <point x="433" y="393"/>
      <point x="481" y="356"/>
      <point x="481" y="272" type="curve" smooth="yes"/>
      <point x="481" y="197"/>
      <point x="436" y="151"/>
    </contour>
  </outline>
</glyph>
<glyph name="uni00AE" format="2">
  <advance width="490"/>
  <unicode hex="00AE"/>
  <outline>
    <contour>
      <point x="245" y="313" type="curve" smooth="yes"/>
      <point x="365" y="313"/>
      <point x="453" y="401"/>
      <point x="453" y="529" type="curve" smooth="yes"/>
      <point x="453" y="658"/>
      <point x="365" y="746"/>
      <point x="245" y="746" type="curve" smooth="yes"/>
      <point x="125" y="746"/>
      <point x="37" y="658"/>
      <point x="37" y="529" type="curve" smooth="yes"/>
      <point x="37" y="401"/>
      <point x="125" y="313"/>
    </contour>
    <contour>
      <point x="245" y="329" type="curve" smooth="yes"/>
      <point x="136" y="329"/>
      <point x="56" y="409"/>
      <point x="56" y="519" type="curve" smooth="yes"/>
      <point x="56" y="540" type="line" smooth="yes"/>
      <point x="56" y="650"/>
      <point x="136" y="730"/>
      <point x="245" y="730" type="curve" smooth="yes"/>
      <point x="354" y="730"/>
      <point x="434" y="650"/>
      <point x="434" y="540" type="curve" smooth="yes"/>
      <point x="434" y="519" type="line" smooth="yes"/>
      <point x="434" y="409"/>
      <point x="354" y="329"/>
    </contour>
    <contour>
      <point x="192" y="417" type="line"/>
      <point x="192" y="512" type="line"/>
      <point x="260" y="512" type="line"/>
      <point x="315" y="417" type="line"/>
      <point x="334" y="417" type="line"/>
      <point x="277" y="513" type="line"/>
      <point x="307" y="515"/>
      <point x="328" y="537"/>
      <point x="328" y="574" type="curve" smooth="yes"/>
      <point x="328" y="621"/>
      <point x="302" y="639"/>
      <point x="261" y="639" type="curve" smooth="yes"/>
      <point x="176" y="639" type="line"/>
      <point x="176" y="417" type="line"/>
    </contour>
    <contour>
      <point x="192" y="527" type="line"/>
      <point x="192" y="624" type="line"/>
      <point x="260" y="624" type="line" smooth="yes"/>
      <point x="296" y="624"/>
      <point x="310" y="612"/>
      <point x="310" y="580" type="curve" smooth="yes"/>
      <point x="310" y="572" type="line" smooth="yes"/>
      <point x="310" y="540"/>
      <point x="296" y="527"/>
      <point x="260" y="527" type="curve" smooth="yes"/>
    </contour>
  </outline>
</glyph>
<glyph name="uni00B0" format="2">
  <advance width="490"/>
  <unicode hex="00B0"/>
  <outline>
    <contour>
      <point x="245" y="393" type="curve" smooth="yes"/>
      <point x="341" y="393"/>
      <point x="415" y="469"/>
      <point x="415" y="569" type="curve" smooth="yes"/>
      <point x="415" y="670"/>
      <point x="341" y="746"/>
      <point x="245" y="746" type="curve" smooth="yes"/>
      <point x="149" y="746"/>
      <point x="75" y="670"/>
      <point x="75" y="569" type="curve" smooth="yes"/>
      <point x="75" y="469"/>
      <point x="149" y="393"/>
    </contour>
    <contour>
      <point x="245" y="412" type="curve" smooth="yes"/>
      <point x="154" y="412"/>
      <point x="96" y="482"/>
      <point x="96" y="569" type="curve" smooth="yes"/>
      <point x="96" y="657"/>
      <point x="154" y="727"/>
      <point x="245" y="727" type="curve" smooth="yes"/>
      <point x="336" y="727"/>
      <point x="394" y="656"/>
      <point x="394" y="569" type="curve" smooth="yes"/>
      <point x="394" y="483"/>
      <point x="336" y="412"/>
    </contour>
  </outline>
</glyph>
<glyph name="uni00B7.hwid" format="2">
  <advance width="500"/>
  <unicode hex="00B7"/>
  <anchor x="500" y="61" name="BSB"/>
  <anchor x="500" y="581" name="TSB"/>
  <outline>
    <contour>
      <point x="250" y="292" type="curve" smooth="yes"/>
      <point x="267" y="292"/>
      <point x="277" y="301"/>
      <point x="277" y="317" type="curve" smooth="yes"/>
      <point x="277" y="325" type="line" smooth="yes"/>
      <point x="277" y="341"/>
      <point x="267" y="350"/>
      <point x="250" y="350" type="curve" smooth="yes"/>
      <point x="233" y="350"/>
      <point x="223" y="341"/>
      <point x="223" y="325" type="curve" smooth="yes"/>
      <point x="223" y="317" type="line" smooth="yes"/>
      <point x="223" y="301"/>
      <point x="233" y="292"/>
    </contour>
  </outline>
</glyph>
<glyph name="uni00EC" format="2">
  <advance width="243"/>
  <unicode hex="00EC"/>
  <outline>
    <contour>
      <point x="132" y="0" type="line"/>
      <point x="132" y="531" type="line"/>
      <point x="110" y="531" type="line"/>
      <point x="110" y="0" type="line"/>
    </contour>
    <contour>
      <point x="154" y="627" type="line"/>
      <point x="37" y="789" type="line"/>
      <point x="18" y="777" type="line"/>
      <point x="139" y="617" type="line"/>
    </contour>
  </outline>
</glyph>
<glyph name="uni00F7" format="2">
  <advance width="630"/>
  <unicode hex="00F7"/>
  <outline>
    <contour>
      <point x="564" y="311" type="line"/>
      <point x="564" y="330" type="line"/>
      <point x="66" y="330" type="line"/>
      <point x="66" y="311" type="line"/>
    </contour>
    <contour>
      <point x="315" y="86" type="curve" smooth="yes"/>
      <point x="337" y="86"/>
      <point x="349" y="96"/>
      <point x="349" y="113" type="curve" smooth="yes"/>
      <point x="349" y="121" type="line" smooth="yes"/>
      <point x="349" y="138"/>
      <point x="337" y="148"/>
      <point x="315" y="148" type="curve" smooth="yes"/>
      <point x="293" y="148"/>
      <point x="281" y="138"/>
      <point x="281" y="121" type="curve" smooth="yes"/>
      <point x="281" y="113" type="line" smooth="yes"/>
      <point x="281" y="96"/>
      <point x="293" y="86"/>
    </contour>
    <contour>
      <point x="315" y="493" type="curve" smooth="yes"/>
      <point x="337" y="493"/>
      <point x="349" y="503"/>
      <point x="349" y="520" type="curve" smooth="yes"/>
      <point x="349" y="528" type="line" smooth="yes"/>
      <point x="349" y="545"/>
      <point x="337" y="555"/>
      <point x="315" y="555" type="curve" smooth="yes"/>
      <point x="293" y="555"/>
      <point x="281" y="545"/>
      <point x="281" y="528" type="curve" smooth="yes"/>
      <point x="281" y="520" type="line" smooth="yes"/>
      <point x="281" y="503"/>
      <point x="293" y="493"/>
    </contour>
  </outline>
</glyph>
<glyph name="uni00FC" format="2">
  <advance width="584"/>
  <unicode hex="00FC"/>
  <outline>
    <contour>
      <point x="283" y="-13" type="curve" smooth="yes"/>
      <point x="379" y="-13"/>
      <point x="431" y="32"/>
      <point x="450" y="79" type="curve"/>
      <point x="453" y="79" type="line"/>
      <point x="453" y="0" type="line"/>
      <point x="474" y="0" type="line"/>
      <point x="474" y="531" type="line"/>
      <point x="453" y="531" type="line"/>
      <point x="453" y="151" type="line" smooth="yes"/>
      <point x="453" y="53"/>
      <point x="373" y="6"/>
      <point x="285" y="6" type="curve" smooth="yes"/>
      <point x="180" y="6"/>
      <point x="121" y="64"/>
      <point x="121" y="194" type="curve" smooth="yes"/>
      <point x="121" y="531" type="line"/>
      <point x="100" y="531" type="line"/>
      <point x="100" y="190" type="line" smooth="yes"/>
      <point x="100" y="57"/>
      <point x="164" y="-13"/>
    </contour>
    <contour>
      <point x="193" y="676" type="curve" smooth="yes"/>
      <point x="210" y="676"/>
      <point x="216" y="686"/>
      <point x="216" y="697" type="curve" smooth="yes"/>
      <point x="216" y="704" type="line" smooth="yes"/>
      <point x="216" y="715"/>
      <point x="210" y="725"/>
      <point x="193" y="725" type="curve" smooth="yes"/>
      <point x="176" y="725"/>
      <point x="170" y="715"/>
      <point x="170" y="704" type="curve" smooth="yes"/>
      <point x="170" y="697" type="line" smooth="yes"/>
      <point x="170" y="686"/>
      <point x="176" y="676"/>
    </contour>
    <contour>
      <point x="381" y="676" type="curve" smooth="yes"/>
      <point x="398" y="676"/>
      <point x="404" y="686"/>
      <point x="404" y="697" type="curve" smooth="yes"/>
      <point x="404" y="704" type="line" smooth="yes"/>
      <point x="404" y="715"/>
      <point x="398" y="725"/>
      <point x="381" y="725" type="curve" smooth="yes"/>
      <point x="364" y="725"/>
      <point x="358" y="715"/>
      <point x="358" y="704" type="curve" smooth="yes"/>
      <point x="358" y="697" type="line" smooth="yes"/>
      <point x="358" y="686"/>
      <point x="364" y="676"/>
    </contour>
  </outline>
</glyph>
<glyph name="uni012B" format="2">
  <advance width="243"/>
  <unicode hex="012B"/>
  <outline>
    <contour>
      <point x="131" y="0" type="line"/>
      <point x="131" y="531" type="line"/>
      <point x="110" y="531" type="line"/>
      <point x="110" y="0" type="line"/>
    </contour>
    <contour>
      <point x="254" y="692" type="line"/>
      <point x="254" y="710" type="line"/>
      <point x="-13" y="710" type="line"/>
      <point x="-13" y="692" type="line"/>
    </contour>
  </outline>
</glyph>
<glyph name="uni0144" format="2">
  <advance width="584"/>
  <unicode hex="0144"/>
  <outline>
    <contour>
      <point x="131" y="0" type="line"/>
      <point x="131" y="380" type="line" smooth="yes"/>
      <point x="131" y="478"/>
      <point x="211" y="525"/>
      <point x="299" y="525" type="curve" smooth="yes"/>
      <point x="404" y="525"/>
      <point x="463" y="467"/>
      <point x="463" y="337" type="curve" smooth="yes"/>
      <point x="463" y="0" type="line"/>
      <point x="484" y="0" type="line"/>
      <point x="484" y="341" type="line" smooth="yes"/>
      <point x="484" y="474"/>
      <point x="420" y="544"/>
      <point x="301" y="544" type="curve" smooth="yes"/>
      <point x="205" y="544"/>
      <point x="153" y="499"/>
      <point x="134" y="452" type="curve"/>
      <point x="131" y="452" type="line"/>
      <point x="131" y="531" type="line"/>
      <point x="110" y="531" type="line"/>
      <point x="110" y="0" type="line"/>
    </contour>
    <contour>
      <point x="381" y="777" type="line"/>
      <point x="362" y="789" type="line"/>
      <point x="245" y="627" type="line"/>
      <point x="260" y="617" type="line"/>
    </contour>
  </outline>
</glyph>
<glyph name="uni01D4" format="2">
  <advance width="584"/>
  <unicode hex="01D4"/>
  <outline>
    <contour>
      <point x="304" y="634" type="line"/>
      <point x="438" y="773" type="line"/>
      <point x="424" y="785" type="line"/>
      <point x="291" y="652" type="line"/>
      <point x="159" y="785" type="line"/>
      <point x="144" y="773" type="line"/>
      <point x="279" y="634" type="line"/>
    </contour>
    <contour>
      <point x="283" y="-13" type="curve" smooth="yes"/>
      <point x="379" y="-13"/>
      <point x="431" y="32"/>
      <point x="450" y="79" type="curve"/>
      <point x="453" y="79" type="line"/>
      <point x="453" y="0" type="line"/>
      <point x="474" y="0" type="line"/>
      <point x="474" y="531" type="line"/>
      <point x="453" y="531" type="line"/>
      <point x="453" y="151" type="line" smooth="yes"/>
      <point x="453" y="53"/>
      <point x="373" y="6"/>
      <point x="285" y="6" type="curve" smooth="yes"/>
      <point x="180" y="6"/>
      <point x="121" y="64"/>
      <point x="121" y="194" type="curve" smooth="yes"/>
      <point x="121" y="531" type="line"/>
      <point x="100" y="531" type="line"/>
      <point x="100" y="190" type="line" smooth="yes"/>
      <point x="100" y="57"/>
      <point x="164" y="-13"/>
    </contour>
  </outline>
</glyph>
<glyph name="uni01DC" format="2">
  <advance width="584"/>
  <unicode hex="01DC"/>
  <outline>
    <contour>
      <point x="191" y="656" type="curve" smooth="yes"/>
      <point x="208" y="656"/>
      <point x="214" y="666"/>
      <point x="214" y="677" type="curve" smooth="yes"/>
      <point x="214" y="684" type="line" smooth="yes"/>
      <point x="214" y="695"/>
      <point x="208" y="705"/>
      <point x="191" y="705" type="curve" smooth="yes"/>
      <point x="174" y="705"/>
      <point x="168" y="695"/>
      <point x="168" y="684" type="curve" smooth="yes"/>
      <point x="168" y="677" type="line" smooth="yes"/>
      <point x="168" y="666"/>
      <point x="174" y="656"/>
    </contour>
    <contour>
      <point x="383" y="656" type="curve" smooth="yes"/>
      <point x="400" y="656"/>
      <point x="406" y="666"/>
      <point x="406" y="677" type="curve" smooth="yes"/>
      <point x="406" y="684" type="line" smooth="yes"/>
      <point x="406" y="695"/>
      <point x="400" y="705"/>
      <point x="383" y="705" type="curve" smooth="yes"/>
      <point x="366" y="705"/>
      <point x="360" y="695"/>
      <point x="360" y="684" type="curve" smooth="yes"/>
      <point x="360" y="677" type="line" smooth="yes"/>
      <point x="360" y="666"/>
      <point x="366" y="656"/>
    </contour>
    <contour>
      <point x="318" y="766" type="line"/>
      <point x="205" y="921" type="line"/>
      <point x="186" y="909" type="line"/>
      <point x="303" y="756" type="line"/>
    </contour>
    <contour>
      <point x="283" y="-13" type="curve" smooth="yes"/>
      <point x="379" y="-13"/>
      <point x="431" y="32"/>
      <point x="450" y="79" type="curve"/>
      <point x="453" y="79" type="line"/>
      <point x="453" y="0" type="line"/>
      <point x="474" y="0" type="line"/>
      <point x="474" y="531" type="line"/>
      <point x="453" y="531" type="line"/>
      <point x="453" y="151" type="line" smooth="yes"/>
      <point x="453" y="53"/>
      <point x="373" y="6"/>
      <point x="285" y="6" type="curve" smooth="yes"/>
      <point x="180" y="6"/>
      <point x="121" y="64"/>
      <point x="121" y="194" type="curve" smooth="yes"/>
      <point x="121" y="531" type="line"/>
      <point x="100" y="531" type="line"/>
      <point x="100" y="190" type="line" smooth="yes"/>
      <point x="100" y="57"/>
      <point x="164" y="-13"/>
    </contour>
  </outline>
</glyph>
<glyph name="uni01F9" format="2">
  <advance width="584"/>
  <unicode hex="01F9"/>
  <outline>
    <contour>
      <point x="131" y="0" type="line"/>
      <point x="131" y="380" type="line" smooth="yes"/>
      <point x="131" y="478"/>
      <point x="211" y="525"/>
      <point x="299" y="525" type="curve" smooth="yes"/>
      <point x="404" y="525"/>
      <point x="463" y="467"/>
      <point x="463" y="337" type="curve" smooth="yes"/>
      <point x="463" y="0" type="line"/>
      <point x="484" y="0" type="line"/>
      <point x="484" y="341" type="line" smooth="yes"/>
      <point x="484" y="474"/>
      <point x="420" y="544"/>
      <point x="301" y="544" type="curve" smooth="yes"/>
      <point x="205" y="544"/>
      <point x="153" y="499"/>
      <point x="134" y="452" type="curve"/>
      <point x="131" y="452" type="line"/>
      <point x="131" y="531" type="line"/>
      <point x="110" y="531" type="line"/>
      <point x="110" y="0" type="line"/>
    </contour>
    <contour>
      <point x="354" y="628" type="line"/>
      <point x="215" y="798" type="line"/>
      <point x="198" y="785" type="line"/>
      <point x="340" y="616" type="line"/>
    </contour>
  </outline>
</glyph>
<glyph name="uni0261" format="2">
  <advance width="593"/>
  <unicode hex="0261"/>
  <outline>
    <contour>
      <point x="482" y="531" type="line"/>
      <point x="461" y="531" type="line"/>
      <point x="461" y="449" type="line"/>
      <point x="458" y="449" type="line"/>
      <point x="436" y="496"/>
      <point x="379" y="544"/>
      <point x="285" y="544" type="curve" smooth="yes"/>
      <point x="147" y="544"/>
      <point x="64" y="450"/>
      <point x="64" y="266" type="curve" smooth="yes"/>
      <point x="64" y="81"/>
      <point x="147" y="-13"/>
      <point x="285" y="-13" type="curve" smooth="yes"/>
      <point x="379" y="-13"/>
      <point x="436" y="36"/>
      <point x="458" y="82" type="curve"/>
      <point x="461" y="82" type="line"/>
      <point x="461" y="-13" type="line" smooth="yes"/>
      <point x="461" y="-140"/>
      <point x="397" y="-204"/>
      <point x="275" y="-204" type="curve" smooth="yes"/>
      <point x="190" y="-204"/>
      <point x="147" y="-180"/>
      <point x="107" y="-137" type="curve"/>
      <point x="92" y="-153" type="line"/>
      <point x="135" y="-197"/>
      <point x="188" y="-223"/>
      <point x="277" y="-223" type="curve" smooth="yes"/>
      <point x="414" y="-223"/>
      <point x="482" y="-147"/>
      <point x="482" y="-11" type="curve" smooth="yes"/>
    </contour>
    <contour>
      <point x="285" y="6" type="curve" smooth="yes"/>
      <point x="158" y="6"/>
      <point x="87" y="96"/>
      <point x="87" y="240" type="curve" smooth="yes"/>
      <point x="87" y="291" type="line" smooth="yes"/>
      <point x="87" y="435"/>
      <point x="158" y="525"/>
      <point x="285" y="525" type="curve" smooth="yes"/>
      <point x="378" y="525"/>
      <point x="461" y="466"/>
      <point x="461" y="381" type="curve" smooth="yes"/>
      <point x="461" y="150" type="line" smooth="yes"/>
      <point x="461" y="64"/>
      <point x="378" y="6"/>
    </contour>
  </outline>
</glyph>
<glyph name="uni02C7" format="2">
  <advance width="630"/>
  <unicode hex="02C7"/>
  <outline>
    <contour>
      <point x="328" y="633" type="line"/>
      <point x="463" y="773" type="line"/>
      <point x="449" y="784" type="line"/>
      <point x="316" y="650" type="line"/>
      <point x="183" y="784" type="line"/>
      <point x="169" y="773" type="line"/>
      <point x="304" y="633" type="line"/>
    </contour>
  </outline>
</glyph>
<glyph name="uni02CA" format="2">
  <advance width="630"/>
  <unicode hex="02CA"/>
  <outline>
    <contour>
      <point x="230" y="630" type="line"/>
      <point x="247" y="617" type="line"/>
      <point x="394" y="798" type="line"/>
      <point x="380" y="809" type="line"/>
    </contour>
  </outline>
</glyph>
<glyph name="uni02CB" format="2">
  <advance width="630"/>
  <unicode hex="02CB"/>
  <outline>
    <contour>
      <point x="383" y="627" type="line"/>
      <point x="266" y="789" type="line"/>
      <point x="247" y="777" type="line"/>
      <point x="368" y="617" type="line"/>
    </contour>
  </outline>
</glyph>
<glyph name="uni02DC" format="2">
  <advance width="630"/>
  <unicode hex="02DC"/>
  <unicode hex="0303"/>
  <outline>
    <contour>
      <point x="390" y="660" type="curve" smooth="yes"/>
      <point x="419" y="660"/>
      <point x="446" y="673"/>
      <point x="471" y="701" type="curve"/>
      <point x="459" y="713" type="line"/>
      <point x="437" y="690"/>
      <point x="416" y="678"/>
      <point x="391" y="678" type="curve" smooth="yes"/>
      <point x="371" y="678"/>
      <point x="352" y="685"/>
      <point x="321" y="705" type="curve" smooth="yes"/>
      <point x="286" y="728"/>
      <point x="265" y="737"/>
      <point x="240" y="737" type="curve" smooth="yes"/>
      <point x="211" y="737"/>
      <point x="184" y="724"/>
      <point x="159" y="696" type="curve"/>
      <point x="171" y="684" type="line"/>
      <point x="193" y="707"/>
      <point x="214" y="719"/>
      <point x="239" y="719" type="curve" smooth="yes"/>
      <point x="259" y="719"/>
      <point x="278" y="712"/>
      <point x="309" y="692" type="curve" smooth="yes"/>
      <point x="344" y="669"/>
      <point x="365" y="660"/>
    </contour>
  </outline>
</glyph>
<glyph name="uni2014" format="2">
  <advance width="1000"/>
  <unicode hex="0336"/>
  <unicode hex="2014"/>
  <outline>
    <contour>
      <point x="1000" y="372" type="line"/>
      <point x="1000" y="390" type="line"/>
      <point x="0" y="390" type="line"/>
      <point x="0" y="372" type="line"/>
    </contour>
  </outline>
</glyph>
<glyph name="uni0392" format="2">
  <advance width="646"/>
  <unicode hex="0392"/>
  <outline>
    <contour>
      <point x="395" y="0" type="line" smooth="yes"/>
      <point x="516" y="0"/>
      <point x="577" y="78"/>
      <point x="577" y="198" type="curve" smooth="yes"/>
      <point x="577" y="301"/>
      <point x="533" y="371"/>
      <point x="442" y="387" type="curve"/>
      <point x="442" y="390" type="line"/>
      <point x="507" y="411"/>
      <point x="544" y="463"/>
      <point x="544" y="554" type="curve" smooth="yes"/>
      <point x="544" y="671"/>
      <point x="482" y="733"/>
      <point x="379" y="733" type="curve" smooth="yes"/>
      <point x="114" y="733" type="line"/>
      <point x="114" y="0" type="line"/>
    </contour>
    <contour>
      <point x="136" y="376" type="line"/>
      <point x="396" y="376" type="line" smooth="yes"/>
      <point x="504" y="376"/>
      <point x="553" y="300"/>
      <point x="553" y="221" type="curve" smooth="yes"/>
      <point x="553" y="176" type="line" smooth="yes"/>
      <point x="553" y="96"/>
      <point x="504" y="20"/>
      <point x="396" y="20" type="curve" smooth="yes"/>
      <point x="136" y="20" type="line"/>
    </contour>
    <contour>
      <point x="136" y="713" type="line"/>
      <point x="379" y="713" type="line" smooth="yes"/>
      <point x="476" y="713"/>
      <point x="520" y="647"/>
      <point x="520" y="576" type="curve" smooth="yes"/>
      <point x="520" y="532" type="line" smooth="yes"/>
      <point x="520" y="462"/>
      <point x="476" y="396"/>
      <point x="379" y="396" type="curve" smooth="yes"/>
      <point x="136" y="396" type="line"/>
    </contour>
  </outline>
</glyph>
<glyph name="uni039B" format="2">
  <advance width="620"/>
  <unicode hex="039B"/>
  <outline>
    <contour>
      <point x="294" y="733" type="line"/>
      <point x="34" y="0" type="line"/>
      <point x="57" y="0" type="line"/>
      <point x="223" y="472" type="line"/>
      <point x="308" y="711" type="line"/>
      <point x="311" y="711" type="line"/>
      <point x="396" y="472" type="line"/>
      <point x="563" y="0" type="line"/>
      <point x="586" y="0" type="line"/>
      <point x="326" y="733" type="line"/>
    </contour>
  </outline>
</glyph>
<glyph name="uni03A1" format="2">
  <advance width="624"/>
  <unicode hex="03A1"/>
  <outline>
    <contour>
      <point x="135" y="338" type="line"/>
      <point x="395" y="338" type="line" smooth="yes"/>
      <point x="515" y="338"/>
      <point x="578" y="416"/>
      <point x="578" y="536" type="curve" smooth="yes"/>
      <point x="578" y="655"/>
      <point x="515" y="733"/>
      <point x="395" y="733" type="curve" smooth="yes"/>
      <point x="113" y="733" type="line"/>
      <point x="113" y="0" type="line"/>
      <point x="135" y="0" type="line"/>
    </contour>
    <contour>
      <point x="395" y="713" type="line" smooth="yes"/>
      <point x="503" y="713"/>
      <point x="554" y="637"/>
      <point x="554" y="558" type="curve" smooth="yes"/>
      <point x="554" y="513" type="line" smooth="yes"/>
      <point x="554" y="434"/>
      <point x="503" y="358"/>
      <point x="395" y="358" type="curve" smooth="yes"/>
      <point x="135" y="358" type="line"/>
      <point x="135" y="713" type="line"/>
    </contour>
  </outline>
</glyph>
<glyph name="uni03A3" format="2">
  <advance width="601"/>
  <unicode hex="03A3"/>
  <outline>
    <contour>
      <point x="530" y="0" type="line"/>
      <point x="530" y="20" type="line"/>
      <point x="77" y="20" type="line"/>
      <point x="369" y="372" type="line"/>
      <point x="84" y="713" type="line"/>
      <point x="530" y="713" type="line"/>
      <point x="530" y="733" type="line"/>
      <point x="59" y="733" type="line"/>
      <point x="59" y="711" type="line"/>
      <point x="343" y="372" type="line"/>
      <point x="53" y="22" type="line"/>
      <point x="53" y="0" type="line"/>
    </contour>
  </outline>
</glyph>
<glyph name="uni03A8" format="2">
  <advance width="788"/>
  <unicode hex="03A8"/>
  <outline>
    <contour>
      <point x="382" y="0" type="line"/>
      <point x="404" y="0" type="line"/>
      <point x="404" y="218" type="line"/>
      <point x="593" y="218"/>
      <point x="703" y="291"/>
      <point x="703" y="504" type="curve" smooth="yes"/>
      <point x="703" y="733" type="line"/>
      <point x="681" y="733" type="line"/>
      <point x="681" y="502" type="line" smooth="yes"/>
      <point x="681" y="309"/>
      <point x="584" y="238"/>
      <point x="404" y="238" type="curve"/>
      <point x="404" y="733" type="line"/>
      <point x="382" y="733" type="line"/>
      <point x="382" y="238" type="line"/>
      <point x="203" y="238"/>
      <point x="106" y="309"/>
      <point x="106" y="502" type="curve" smooth="yes"/>
      <point x="106" y="733" type="line"/>
      <point x="84" y="733" type="line"/>
      <point x="84" y="504" type="line" smooth="yes"/>
      <point x="84" y="291"/>
      <point x="193" y="218"/>
      <point x="382" y="218" type="curve"/>
    </contour>
  </outline>
</glyph>
<glyph name="uni03A9" format="2">
  <advance width="733"/>
  <unicode hex="03A9"/>
  <outline>
    <contour>
      <point x="86" y="0" type="line"/>
      <point x="293" y="0" type="line"/>
      <point x="293" y="51" type="line"/>
      <point x="213" y="89"/>
      <point x="103" y="183"/>
      <point x="103" y="364" type="curve" smooth="yes"/>
      <point x="103" y="432" type="line" smooth="yes"/>
      <point x="103" y="611"/>
      <point x="206" y="726"/>
      <point x="367" y="726" type="curve" smooth="yes"/>
      <point x="527" y="726"/>
      <point x="630" y="611"/>
      <point x="630" y="432" type="curve" smooth="yes"/>
      <point x="630" y="364" type="line" smooth="yes"/>
      <point x="630" y="183"/>
      <point x="520" y="89"/>
      <point x="440" y="51" type="curve"/>
      <point x="440" y="0" type="line"/>
      <point x="647" y="0" type="line"/>
      <point x="647" y="20" type="line"/>
      <point x="460" y="20" type="line"/>
      <point x="460" y="39" type="line"/>
      <point x="604" y="121"/>
      <point x="654" y="222"/>
      <point x="654" y="398" type="curve" smooth="yes"/>
      <point x="654" y="622"/>
      <point x="551" y="746"/>
      <point x="367" y="746" type="curve" smooth="yes"/>
      <point x="182" y="746"/>
      <point x="79" y="622"/>
      <point x="79" y="398" type="curve" smooth="yes"/>
      <point x="79" y="222"/>
      <point x="129" y="121"/>
      <point x="273" y="39" type="curve"/>
      <point x="273" y="20" type="line"/>
      <point x="86" y="20" type="line"/>
    </contour>
  </outline>
</glyph>
<glyph name="uni03B2" format="2">
  <advance width="597"/>
  <unicode hex="03B2"/>
  <outline>
    <contour>
      <point x="110" y="-210" type="line"/>
      <point x="131" y="-210" type="line"/>
      <point x="131" y="82" type="line"/>
      <point x="134" y="82" type="line"/>
      <point x="156" y="36"/>
      <point x="214" y="-13"/>
      <point x="312" y="-13" type="curve" smooth="yes"/>
      <point x="444" y="-13"/>
      <point x="529" y="76"/>
      <point x="529" y="212" type="curve" smooth="yes"/>
      <point x="529" y="337"/>
      <point x="473" y="407"/>
      <point x="366" y="426" type="curve"/>
      <point x="366" y="429" type="line"/>
      <point x="438" y="448"/>
      <point x="490" y="506"/>
      <point x="490" y="603" type="curve" smooth="yes"/>
      <point x="490" y="720"/>
      <point x="407" y="790"/>
      <point x="304" y="790" type="curve" smooth="yes"/>
      <point x="170" y="790"/>
      <point x="110" y="700"/>
      <point x="110" y="539" type="curve" smooth="yes"/>
    </contour>
    <contour>
      <point x="219" y="416" type="line"/>
      <point x="317" y="416" type="line" smooth="yes"/>
      <point x="434" y="416"/>
      <point x="506" y="342"/>
      <point x="506" y="237" type="curve" smooth="yes"/>
      <point x="506" y="187" type="line" smooth="yes"/>
      <point x="506" y="103"/>
      <point x="441" y="6"/>
      <point x="312" y="6" type="curve" smooth="yes"/>
      <point x="215" y="6"/>
      <point x="131" y="65"/>
      <point x="131" y="150" type="curve" smooth="yes"/>
      <point x="131" y="547" type="line" smooth="yes"/>
      <point x="131" y="692"/>
      <point x="187" y="771"/>
      <point x="304" y="771" type="curve" smooth="yes"/>
      <point x="395" y="771"/>
      <point x="468" y="706"/>
      <point x="468" y="617" type="curve" smooth="yes"/>
      <point x="468" y="588" type="line" smooth="yes"/>
      <point x="468" y="504"/>
      <point x="407" y="435"/>
      <point x="316" y="435" type="curve" smooth="yes"/>
      <point x="219" y="435" type="line"/>
    </contour>
  </outline>
</glyph>
<glyph name="uni03B4" format="2">
  <advance width="544"/>
  <unicode hex="03B4"/>
  <outline>
    <contour>
      <point x="460" y="756" type="line"/>
      <point x="460" y="776" type="line"/>
      <point x="101" y="776" type="line"/>
      <point x="101" y="754" type="line"/>
      <point x="264" y="600" type="line" smooth="yes"/>
      <point x="290" y="576"/>
      <point x="313" y="553"/>
      <point x="333" y="532" type="curve"/>
      <point x="333" y="530" type="line"/>
      <point x="159" y="528"/>
      <point x="52" y="425"/>
      <point x="52" y="254" type="curve" smooth="yes"/>
      <point x="52" y="85"/>
      <point x="133" y="-14"/>
      <point x="272" y="-14" type="curve" smooth="yes"/>
      <point x="411" y="-14"/>
      <point x="492" y="80"/>
      <point x="492" y="242" type="curve" smooth="yes"/>
      <point x="492" y="362"/>
      <point x="455" y="450"/>
      <point x="276" y="616" type="curve" smooth="yes"/>
      <point x="123" y="758" type="line"/>
      <point x="123" y="759" type="line"/>
      <point x="180" y="756" type="line"/>
    </contour>
    <contour>
      <point x="468" y="218" type="line" smooth="yes"/>
      <point x="468" y="96"/>
      <point x="398" y="6"/>
      <point x="272" y="6" type="curve" smooth="yes"/>
      <point x="146" y="6"/>
      <point x="76" y="101"/>
      <point x="76" y="229" type="curve" smooth="yes"/>
      <point x="76" y="279" type="line" smooth="yes"/>
      <point x="76" y="401"/>
      <point x="159" y="512"/>
      <point x="348" y="516" type="curve"/>
      <point x="447" y="407"/>
      <point x="468" y="341"/>
      <point x="468" y="256" type="curve" smooth="yes"/>
    </contour>
  </outline>
</glyph>
<glyph name="uni03B5" format="2">
  <advance width="552"/>
  <unicode hex="03B5"/>
  <outline>
    <contour>
      <point x="481" y="99" type="line"/>
      <point x="445" y="38"/>
      <point x="385" y="6"/>
      <point x="281" y="6" type="curve" smooth="yes"/>
      <point x="175" y="6"/>
      <point x="109" y="51"/>
      <point x="109" y="122" type="curve" smooth="yes"/>
      <point x="109" y="144" type="line" smooth="yes"/>
      <point x="109" y="215"/>
      <point x="170" y="264"/>
      <point x="268" y="264" type="curve" smooth="yes"/>
      <point x="396" y="264" type="line"/>
      <point x="396" y="283" type="line"/>
      <point x="269" y="283" type="line" smooth="yes"/>
      <point x="186" y="283"/>
      <point x="130" y="338"/>
      <point x="130" y="400" type="curve" smooth="yes"/>
      <point x="130" y="412" type="line" smooth="yes"/>
      <point x="130" y="481"/>
      <point x="183" y="526"/>
      <point x="293" y="526" type="curve" smooth="yes"/>
      <point x="395" y="526"/>
      <point x="436" y="491"/>
      <point x="468" y="454" type="curve"/>
      <point x="483" y="469" type="line"/>
      <point x="448" y="508"/>
      <point x="402" y="545"/>
      <point x="292" y="545" type="curve" smooth="yes"/>
      <point x="175" y="545"/>
      <point x="106" y="498"/>
      <point x="106" y="406" type="curve" smooth="yes"/>
      <point x="106" y="337"/>
      <point x="146" y="298"/>
      <point x="209" y="277" type="curve"/>
      <point x="209" y="274" type="line"/>
      <point x="133" y="261"/>
      <point x="86" y="206"/>
      <point x="86" y="135" type="curve" smooth="yes"/>
      <point x="86" y="42"/>
      <point x="154" y="-13"/>
      <point x="281" y="-13" type="curve" smooth="yes"/>
      <point x="402" y="-13"/>
      <point x="462" y="28"/>
      <point x="497" y="88" type="curve"/>
    </contour>
  </outline>
</glyph>
<glyph name="uni03B6" format="2">
  <advance width="449"/>
  <unicode hex="03B6"/>
  <outline>
    <contour>
      <point x="76" y="760" type="line"/>
      <point x="348" y="760" type="line"/>
      <point x="404" y="763" type="line"/>
      <point x="405" y="762" type="line"/>
      <point x="173" y="483" type="line" smooth="yes"/>
      <point x="91" y="384"/>
      <point x="61" y="309"/>
      <point x="61" y="240" type="curve" smooth="yes"/>
      <point x="61" y="125"/>
      <point x="117" y="56"/>
      <point x="297" y="9" type="curve" smooth="yes"/>
      <point x="378" y="-12" type="line"/>
      <point x="339" y="-159" type="line"/>
      <point x="359" y="-165" type="line"/>
      <point x="396" y="-27" type="line" smooth="yes"/>
      <point x="397" y="-23"/>
      <point x="398" y="-18"/>
      <point x="398" y="-14" type="curve" smooth="yes"/>
      <point x="398" y="-3"/>
      <point x="392" y="6"/>
      <point x="375" y="10" type="curve" smooth="yes"/>
      <point x="301" y="29" type="line" smooth="yes"/>
      <point x="139" y="71"/>
      <point x="84" y="131"/>
      <point x="84" y="232" type="curve" smooth="yes"/>
      <point x="84" y="249" type="line" smooth="yes"/>
      <point x="84" y="312"/>
      <point x="114" y="379"/>
      <point x="189" y="471" type="curve" smooth="yes"/>
      <point x="424" y="758" type="line"/>
      <point x="424" y="779" type="line"/>
      <point x="76" y="779" type="line"/>
    </contour>
  </outline>
</glyph>
<glyph name="uni03B7" format="2">
  <advance width="594"/>
  <unicode hex="03B7"/>
  <outline>
    <contour>
      <point x="141" y="0" type="line"/>
      <point x="141" y="380" type="line" smooth="yes"/>
      <point x="141" y="477"/>
      <point x="222" y="526"/>
      <point x="309" y="526" type="curve" smooth="yes"/>
      <point x="413" y="526"/>
      <point x="473" y="466"/>
      <point x="473" y="337" type="curve" smooth="yes"/>
      <point x="473" y="-210" type="line"/>
      <point x="494" y="-210" type="line"/>
      <point x="494" y="341" type="line" smooth="yes"/>
      <point x="494" y="474"/>
      <point x="430" y="545"/>
      <point x="311" y="545" type="curve" smooth="yes"/>
      <point x="216" y="545"/>
      <point x="163" y="499"/>
      <point x="144" y="451" type="curve"/>
      <point x="141" y="451" type="line"/>
      <point x="141" y="502" type="line" smooth="yes"/>
      <point x="141" y="523"/>
      <point x="133" y="531"/>
      <point x="112" y="531" type="curve" smooth="yes"/>
      <point x="31" y="531" type="line"/>
      <point x="31" y="512" type="line"/>
      <point x="120" y="512" type="line"/>
      <point x="120" y="0" type="line"/>
    </contour>
  </outline>
</glyph>
<glyph name="uni03BA" format="2">
  <advance width="514"/>
  <unicode hex="03BA"/>
  <outline>
    <contour>
      <point x="472" y="0" type="line"/>
      <point x="499" y="0" type="line"/>
      <point x="236" y="298" type="line"/>
      <point x="440" y="512" type="line"/>
      <point x="494" y="512" type="line"/>
      <point x="494" y="531" type="line"/>
      <point x="448" y="531" type="line" smooth="yes"/>
      <point x="438" y="531"/>
      <point x="430" y="528"/>
      <point x="424" y="522" type="curve" smooth="yes"/>
      <point x="214" y="302" type="line"/>
      <point x="133" y="219" type="line"/>
      <point x="130" y="219" type="line"/>
      <point x="130" y="531" type="line"/>
      <point x="109" y="531" type="line"/>
      <point x="109" y="0" type="line"/>
      <point x="130" y="0" type="line"/>
      <point x="130" y="189" type="line"/>
      <point x="222" y="282" type="line"/>
    </contour>
  </outline>
</glyph>
<glyph name="uni03BC" format="2">
  <advance width="605"/>
  <unicode hex="03BC"/>
  <outline>
    <contour>
      <point x="131" y="-210" type="line"/>
      <point x="131" y="-46" type="line"/>
      <point x="126" y="83" type="line"/>
      <point x="129" y="83" type="line"/>
      <point x="156" y="20"/>
      <point x="212" y="-13"/>
      <point x="293" y="-13" type="curve" smooth="yes"/>
      <point x="388" y="-13"/>
      <point x="441" y="33"/>
      <point x="460" y="80" type="curve"/>
      <point x="463" y="80" type="line"/>
      <point x="463" y="30" type="line" smooth="yes"/>
      <point x="463" y="9"/>
      <point x="471" y="0"/>
      <point x="492" y="0" type="curve" smooth="yes"/>
      <point x="573" y="0" type="line"/>
      <point x="573" y="19" type="line"/>
      <point x="484" y="19" type="line"/>
      <point x="484" y="531" type="line"/>
      <point x="463" y="531" type="line"/>
      <point x="463" y="150" type="line" smooth="yes"/>
      <point x="463" y="54"/>
      <point x="382" y="6"/>
      <point x="295" y="6" type="curve" smooth="yes"/>
      <point x="191" y="6"/>
      <point x="131" y="64"/>
      <point x="131" y="193" type="curve" smooth="yes"/>
      <point x="131" y="531" type="line"/>
      <point x="110" y="531" type="line"/>
      <point x="110" y="-210" type="line"/>
    </contour>
  </outline>
</glyph>
<glyph name="uni03BD" format="2">
  <advance width="492"/>
  <unicode hex="03BD"/>
  <outline>
    <contour>
      <point x="466" y="531" type="line"/>
      <point x="445" y="531" type="line"/>
      <point x="343" y="254" type="line"/>
      <point x="257" y="21" type="line"/>
      <point x="254" y="21" type="line"/>
      <point x="173" y="254" type="line"/>
      <point x="84" y="512" type="line" smooth="yes"/>
      <point x="79" y="526"/>
      <point x="72" y="531"/>
      <point x="55" y="531" type="curve" smooth="yes"/>
      <point x="4" y="531" type="line"/>
      <point x="4" y="512" type="line"/>
      <point x="62" y="512" type="line"/>
      <point x="241" y="0" type="line"/>
      <point x="269" y="0" type="line"/>
    </contour>
  </outline>
</glyph>
<glyph name="uni03C4" format="2">
  <advance width="506"/>
  <unicode hex="03C4"/>
  <outline>
    <contour>
      <point x="378" y="0" type="line"/>
      <point x="378" y="19" type="line"/>
      <point x="253" y="19" type="line"/>
      <point x="253" y="512" type="line"/>
      <point x="466" y="512" type="line"/>
      <point x="466" y="531" type="line"/>
      <point x="37" y="531" type="line"/>
      <point x="37" y="512" type="line"/>
      <point x="232" y="512" type="line"/>
      <point x="232" y="30" type="line" smooth="yes"/>
      <point x="232" y="9"/>
      <point x="242" y="0"/>
      <point x="263" y="0" type="curve" smooth="yes"/>
    </contour>
  </outline>
</glyph>
<glyph name="uni03C8" format="2">
  <advance width="728"/>
  <unicode hex="03C8"/>
  <outline>
    <contour>
      <point x="374" y="-210" type="line"/>
      <point x="374" y="-13" type="line"/>
      <point x="548" y="-13"/>
      <point x="628" y="56"/>
      <point x="628" y="240" type="curve" smooth="yes"/>
      <point x="628" y="531" type="line"/>
      <point x="607" y="531" type="line"/>
      <point x="607" y="226" type="line" smooth="yes"/>
      <point x="607" y="58"/>
      <point x="523" y="7"/>
      <point x="374" y="7" type="curve"/>
      <point x="374" y="745" type="line"/>
      <point x="353" y="745" type="line"/>
      <point x="353" y="7" type="line"/>
      <point x="204" y="7"/>
      <point x="121" y="58"/>
      <point x="121" y="226" type="curve" smooth="yes"/>
      <point x="121" y="531" type="line"/>
      <point x="100" y="531" type="line"/>
      <point x="100" y="240" type="line" smooth="yes"/>
      <point x="100" y="56"/>
      <point x="179" y="-13"/>
      <point x="353" y="-13" type="curve"/>
      <point x="353" y="-210" type="line"/>
    </contour>
  </outline>
</glyph>
<glyph name="uni0414" format="2">
  <advance width="700"/>
  <unicode hex="0414"/>
  <outline>
    <contour>
      <point x="10" y="-157" type="line"/>
      <point x="32" y="-157" type="line"/>
      <point x="32" y="0" type="line"/>
      <point x="625" y="0" type="line"/>
      <point x="625" y="-157" type="line"/>
      <point x="647" y="-157" type="line"/>
      <point x="647" y="20" type="line"/>
      <point x="555" y="20" type="line"/>
      <point x="555" y="733" type="line"/>
      <point x="188" y="733" type="line"/>
      <point x="188" y="538" type="line" smooth="yes"/>
      <point x="188" y="291"/>
      <point x="151" y="116"/>
      <point x="86" y="20" type="curve"/>
      <point x="10" y="20" type="line"/>
    </contour>
    <contour>
      <point x="113" y="20" type="line"/>
      <point x="113" y="24" type="line"/>
      <point x="172" y="120"/>
      <point x="210" y="293"/>
      <point x="210" y="539" type="curve" smooth="yes"/>
      <point x="210" y="713" type="line"/>
      <point x="533" y="713" type="line"/>
      <point x="533" y="20" type="line"/>
    </contour>
  </outline>
</glyph>
<glyph name="uni0416" format="2">
  <advance width="949"/>
  <unicode hex="0416"/>
  <outline>
    <contour>
      <point x="46" y="0" type="line"/>
      <point x="98" y="0" type="line" smooth="yes"/>
      <point x="115" y="0"/>
      <point x="124" y="5"/>
      <point x="131" y="18" type="curve" smooth="yes"/>
      <point x="319" y="361" type="line"/>
      <point x="463" y="361" type="line"/>
      <point x="463" y="0" type="line"/>
      <point x="485" y="0" type="line"/>
      <point x="485" y="361" type="line"/>
      <point x="630" y="361" type="line"/>
      <point x="818" y="18" type="line" smooth="yes"/>
      <point x="825" y="5"/>
      <point x="833" y="0"/>
      <point x="850" y="0" type="curve" smooth="yes"/>
      <point x="903" y="0" type="line"/>
      <point x="903" y="20" type="line"/>
      <point x="841" y="20" type="line"/>
      <point x="664" y="343" type="line" smooth="yes"/>
      <point x="654" y="361"/>
      <point x="646" y="367"/>
      <point x="632" y="370" type="curve"/>
      <point x="632" y="372" type="line"/>
      <point x="644" y="374"/>
      <point x="653" y="380"/>
      <point x="663" y="399" type="curve" smooth="yes"/>
      <point x="828" y="713" type="line"/>
      <point x="890" y="713" type="line"/>
      <point x="890" y="733" type="line"/>
      <point x="839" y="733" type="line" smooth="yes"/>
      <point x="822" y="733"/>
      <point x="812" y="728"/>
      <point x="803" y="711" type="curve" smooth="yes"/>
      <point x="630" y="381" type="line"/>
      <point x="485" y="381" type="line"/>
      <point x="485" y="733" type="line"/>
      <point x="463" y="733" type="line"/>
      <point x="463" y="381" type="line"/>
      <point x="319" y="381" type="line"/>
      <point x="146" y="711" type="line" smooth="yes"/>
      <point x="137" y="728"/>
      <point x="127" y="733"/>
      <point x="110" y="733" type="curve" smooth="yes"/>
      <point x="59" y="733" type="line"/>
      <point x="59" y="713" type="line"/>
      <point x="121" y="713" type="line"/>
      <point x="285" y="399" type="line" smooth="yes"/>
      <point x="295" y="380"/>
      <point x="304" y="374"/>
      <point x="317" y="372" type="curve"/>
      <point x="317" y="370" type="line"/>
      <point x="303" y="367"/>
      <point x="294" y="361"/>
      <point x="284" y="343" type="curve" smooth="yes"/>
      <point x="108" y="20" type="line"/>
      <point x="46" y="20" type="line"/>
    </contour>
  </outline>
</glyph>
<glyph name="uni0418" format="2">
  <advance width="727"/>
  <unicode hex="0418"/>
  <outline>
    <contour>
      <point x="113" y="0" type="line"/>
      <point x="132" y="0" type="line"/>
      <point x="548" y="628" type="line"/>
      <point x="593" y="705" type="line"/>
      <point x="596" y="705" type="line"/>
      <point x="592" y="627" type="line"/>
      <point x="592" y="0" type="line"/>
      <point x="613" y="0" type="line"/>
      <point x="613" y="733" type="line"/>
      <point x="594" y="733" type="line"/>
      <point x="178" y="105" type="line"/>
      <point x="133" y="28" type="line"/>
      <point x="130" y="28" type="line"/>
      <point x="134" y="106" type="line"/>
      <point x="134" y="733" type="line"/>
      <point x="113" y="733" type="line"/>
    </contour>
  </outline>
</glyph>
<glyph name="uni0419" format="2">
  <advance width="727"/>
  <unicode hex="0419"/>
  <outline>
    <contour>
      <point x="113" y="0" type="line"/>
      <point x="132" y="0" type="line"/>
      <point x="548" y="628" type="line"/>
      <point x="593" y="705" type="line"/>
      <point x="596" y="705" type="line"/>
      <point x="592" y="627" type="line"/>
      <point x="592" y="0" type="line"/>
      <point x="613" y="0" type="line"/>
      <point x="613" y="733" type="line"/>
      <point x="594" y="733" type="line"/>
      <point x="178" y="105" type="line"/>
      <point x="133" y="28" type="line"/>
      <point x="130" y="28" type="line"/>
      <point x="134" y="106" type="line"/>
      <point x="134" y="733" type="line"/>
      <point x="113" y="733" type="line"/>
    </contour>
    <contour>
      <point x="361" y="825" type="curve" smooth="yes"/>
      <point x="429" y="825"/>
      <point x="462" y="870"/>
      <point x="486" y="921" type="curve" smooth="yes"/>
      <point x="498" y="947" type="line"/>
      <point x="479" y="954" type="line"/>
      <point x="443" y="885" type="line"/>
      <point x="422" y="856"/>
      <point x="394" y="843"/>
      <point x="361" y="843" type="curve" smooth="yes"/>
      <point x="327" y="843"/>
      <point x="300" y="856"/>
      <point x="279" y="885" type="curve"/>
      <point x="242" y="954" type="line"/>
      <point x="223" y="947" type="line"/>
      <point x="236" y="921" type="line" smooth="yes"/>
      <point x="261" y="871"/>
      <point x="293" y="825"/>
    </contour>
  </outline>
  <guideline angle="0" x="0" y="408"/>
</glyph>
<glyph name="uni041A" format="2">
  <advance width="647"/>
  <unicode hex="041A"/>
  <outline>
    <contour>
      <point x="114" y="0" type="line"/>
      <point x="137" y="0" type="line"/>
      <point x="137" y="361" type="line"/>
      <point x="306" y="361" type="line"/>
      <point x="512" y="22" type="line" smooth="yes"/>
      <point x="522" y="5"/>
      <point x="532" y="0"/>
      <point x="549" y="0" type="curve" smooth="yes"/>
      <point x="601" y="0" type="line"/>
      <point x="601" y="20" type="line"/>
      <point x="538" y="20" type="line"/>
      <point x="344" y="341" type="line" smooth="yes"/>
      <point x="331" y="362"/>
      <point x="322" y="367"/>
      <point x="309" y="370" type="curve"/>
      <point x="309" y="372" type="line"/>
      <point x="322" y="374"/>
      <point x="331" y="382"/>
      <point x="345" y="406" type="curve" smooth="yes"/>
      <point x="526" y="713" type="line"/>
      <point x="589" y="713" type="line"/>
      <point x="589" y="733" type="line"/>
      <point x="537" y="733" type="line" smooth="yes"/>
      <point x="520" y="733"/>
      <point x="511" y="729"/>
      <point x="500" y="711" type="curve" smooth="yes"/>
      <point x="306" y="381" type="line"/>
      <point x="137" y="381" type="line"/>
      <point x="137" y="733" type="line"/>
      <point x="114" y="733" type="line"/>
    </contour>
  </outline>
</glyph>
<glyph name="uni0423" format="2">
  <advance width="602"/>
  <unicode hex="0423"/>
  <outline>
    <contour>
      <point x="165" y="0" type="line"/>
      <point x="249" y="0" type="line" smooth="yes"/>
      <point x="265" y="0"/>
      <point x="277" y="6"/>
      <point x="283" y="20" type="curve" smooth="yes"/>
      <point x="569" y="733" type="line"/>
      <point x="545" y="733" type="line"/>
      <point x="359" y="266" type="line"/>
      <point x="327" y="180" type="line"/>
      <point x="325" y="180" type="line"/>
      <point x="286" y="266" type="line"/>
      <point x="56" y="733" type="line"/>
      <point x="32" y="733" type="line"/>
      <point x="314" y="157" type="line"/>
      <point x="261" y="19" type="line"/>
      <point x="165" y="19" type="line"/>
    </contour>
  </outline>
</glyph>
<glyph name="uni0424" format="2">
  <advance width="855"/>
  <unicode hex="0424"/>
  <outline>
    <contour>
      <point x="417" y="-31" type="line"/>
      <point x="439" y="-31" type="line"/>
      <point x="439" y="65" type="line"/>
      <point x="498" y="65" type="line" smooth="yes"/>
      <point x="681" y="65"/>
      <point x="792" y="193"/>
      <point x="792" y="365" type="curve" smooth="yes"/>
      <point x="792" y="537"/>
      <point x="681" y="665"/>
      <point x="498" y="665" type="curve" smooth="yes"/>
      <point x="439" y="665" type="line"/>
      <point x="439" y="761" type="line"/>
      <point x="417" y="761" type="line"/>
      <point x="417" y="665" type="line"/>
      <point x="358" y="665" type="line" smooth="yes"/>
      <point x="175" y="665"/>
      <point x="64" y="537"/>
      <point x="64" y="365" type="curve" smooth="yes"/>
      <point x="64" y="193"/>
      <point x="175" y="65"/>
      <point x="358" y="65" type="curve" smooth="yes"/>
      <point x="417" y="65" type="line"/>
    </contour>
    <contour>
      <point x="358" y="85" type="line" smooth="yes"/>
      <point x="184" y="85"/>
      <point x="88" y="218"/>
      <point x="88" y="334" type="curve" smooth="yes"/>
      <point x="88" y="396" type="line" smooth="yes"/>
      <point x="88" y="512"/>
      <point x="184" y="645"/>
      <point x="358" y="645" type="curve" smooth="yes"/>
      <point x="417" y="645" type="line"/>
      <point x="417" y="85" type="line"/>
    </contour>
    <contour>
      <point x="439" y="85" type="line"/>
      <point x="439" y="645" type="line"/>
      <point x="498" y="645" type="line" smooth="yes"/>
      <point x="672" y="645"/>
      <point x="768" y="512"/>
      <point x="768" y="396" type="curve" smooth="yes"/>
      <point x="768" y="334" type="line" smooth="yes"/>
      <point x="768" y="218"/>
      <point x="672" y="85"/>
      <point x="498" y="85" type="curve" smooth="yes"/>
    </contour>
  </outline>
</glyph>
<glyph name="uni0426" format="2">
  <advance width="743"/>
  <unicode hex="0426"/>
  <outline>
    <contour>
      <point x="668" y="-157" type="line"/>
      <point x="690" y="-157" type="line"/>
      <point x="690" y="20" type="line"/>
      <point x="598" y="20" type="line"/>
      <point x="598" y="733" type="line"/>
      <point x="576" y="733" type="line"/>
      <point x="576" y="20" type="line"/>
      <point x="135" y="20" type="line"/>
      <point x="135" y="733" type="line"/>
      <point x="113" y="733" type="line"/>
      <point x="113" y="0" type="line"/>
      <point x="668" y="0" type="line"/>
    </contour>
  </outline>
</glyph>
<glyph name="uni0427" format="2">
  <advance width="652"/>
  <unicode hex="0427"/>
  <outline>
    <contour>
      <point x="516" y="0" type="line"/>
      <point x="538" y="0" type="line"/>
      <point x="538" y="733" type="line"/>
      <point x="516" y="733" type="line"/>
      <point x="516" y="341" type="line"/>
      <point x="467" y="322"/>
      <point x="402" y="311"/>
      <point x="320" y="311" type="curve" smooth="yes"/>
      <point x="173" y="311"/>
      <point x="93" y="376"/>
      <point x="93" y="532" type="curve" smooth="yes"/>
      <point x="93" y="733" type="line"/>
      <point x="71" y="733" type="line"/>
      <point x="71" y="532" type="line" smooth="yes"/>
      <point x="71" y="369"/>
      <point x="150" y="291"/>
      <point x="318" y="291" type="curve" smooth="yes"/>
      <point x="399" y="291"/>
      <point x="464" y="302"/>
      <point x="511" y="320" type="curve"/>
      <point x="516" y="320" type="line"/>
    </contour>
  </outline>
</glyph>
<glyph name="uni0429" format="2">
  <advance width="981"/>
  <unicode hex="0429"/>
  <outline>
    <contour>
      <point x="906" y="-150" type="line"/>
      <point x="928" y="-150" type="line"/>
      <point x="928" y="20" type="line"/>
      <point x="834" y="20" type="line"/>
      <point x="834" y="740" type="line"/>
      <point x="812" y="740" type="line"/>
      <point x="812" y="20" type="line"/>
      <point x="485" y="20" type="line"/>
      <point x="485" y="740" type="line"/>
      <point x="463" y="740" type="line"/>
      <point x="463" y="20" type="line"/>
      <point x="135" y="20" type="line"/>
      <point x="135" y="740" type="line"/>
      <point x="113" y="740" type="line"/>
      <point x="113" y="0" type="line"/>
      <point x="906" y="0" type="line"/>
    </contour>
  </outline>
</glyph>
<glyph name="uni042A" format="2">
  <advance width="762"/>
  <unicode hex="042A"/>
  <outline>
    <contour>
      <point x="235" y="0" type="line"/>
      <point x="517" y="0" type="line" smooth="yes"/>
      <point x="636" y="0"/>
      <point x="699" y="82"/>
      <point x="699" y="209" type="curve" smooth="yes"/>
      <point x="699" y="336"/>
      <point x="636" y="418"/>
      <point x="517" y="418" type="curve" smooth="yes"/>
      <point x="257" y="418" type="line"/>
      <point x="257" y="733" type="line"/>
      <point x="18" y="733" type="line"/>
      <point x="18" y="713" type="line"/>
      <point x="235" y="713" type="line"/>
    </contour>
    <contour>
      <point x="257" y="20" type="line"/>
      <point x="257" y="398" type="line"/>
      <point x="517" y="398" type="line" smooth="yes"/>
      <point x="626" y="398"/>
      <point x="675" y="318"/>
      <point x="675" y="231" type="curve" smooth="yes"/>
      <point x="675" y="187" type="line" smooth="yes"/>
      <point x="675" y="100"/>
      <point x="626" y="20"/>
      <point x="517" y="20" type="curve" smooth="yes"/>
    </contour>
  </outline>
</glyph>
<glyph name="uni042B" format="2">
  <advance width="863"/>
  <unicode hex="042B"/>
  <outline>
    <contour>
      <point x="113" y="0" type="line"/>
      <point x="384" y="0" type="line" smooth="yes"/>
      <point x="504" y="0"/>
      <point x="567" y="82"/>
      <point x="567" y="209" type="curve" smooth="yes"/>
      <point x="567" y="336"/>
      <point x="504" y="418"/>
      <point x="384" y="418" type="curve" smooth="yes"/>
      <point x="135" y="418" type="line"/>
      <point x="135" y="733" type="line"/>
      <point x="113" y="733" type="line"/>
    </contour>
    <contour>
      <point x="135" y="20" type="line"/>
      <point x="135" y="398" type="line"/>
      <point x="384" y="398" type="line" smooth="yes"/>
      <point x="494" y="398"/>
      <point x="543" y="318"/>
      <point x="543" y="231" type="curve" smooth="yes"/>
      <point x="543" y="187" type="line" smooth="yes"/>
      <point x="543" y="100"/>
      <point x="494" y="20"/>
      <point x="384" y="20" type="curve" smooth="yes"/>
    </contour>
    <contour>
      <point x="727" y="0" type="line"/>
      <point x="749" y="0" type="line"/>
      <point x="749" y="733" type="line"/>
      <point x="727" y="733" type="line"/>
    </contour>
  </outline>
</glyph>
<glyph name="uni042D" format="2">
  <advance width="640"/>
  <unicode hex="042D"/>
  <outline>
    <contour>
      <point x="177" y="362" type="line"/>
      <point x="543" y="362" type="line"/>
      <point x="543" y="345" type="line" smooth="yes"/>
      <point x="543" y="118"/>
      <point x="449" y="7"/>
      <point x="295" y="7" type="curve" smooth="yes"/>
      <point x="191" y="7"/>
      <point x="119" y="62"/>
      <point x="83" y="154" type="curve"/>
      <point x="63" y="147" type="line"/>
      <point x="101" y="51"/>
      <point x="183" y="-13"/>
      <point x="295" y="-13" type="curve" smooth="yes"/>
      <point x="468" y="-13"/>
      <point x="567" y="115"/>
      <point x="567" y="367" type="curve" smooth="yes"/>
      <point x="567" y="619"/>
      <point x="468" y="746"/>
      <point x="295" y="746" type="curve" smooth="yes"/>
      <point x="188" y="746"/>
      <point x="108" y="685"/>
      <point x="68" y="596" type="curve"/>
      <point x="87" y="586" type="line"/>
      <point x="125" y="673"/>
      <point x="199" y="726"/>
      <point x="295" y="726" type="curve" smooth="yes"/>
      <point x="449" y="726"/>
      <point x="543" y="615"/>
      <point x="543" y="388" type="curve" smooth="yes"/>
      <point x="543" y="382" type="line"/>
      <point x="177" y="382" type="line"/>
    </contour>
  </outline>
</glyph>
<glyph name="uni042E" format="2">
  <advance width="950"/>
  <unicode hex="042E"/>
  <outline>
    <contour>
      <point x="597" y="-13" type="curve" smooth="yes"/>
      <point x="776" y="-13"/>
      <point x="876" y="115"/>
      <point x="876" y="367" type="curve" smooth="yes"/>
      <point x="876" y="619"/>
      <point x="776" y="746"/>
      <point x="597" y="746" type="curve" smooth="yes"/>
      <point x="423" y="746"/>
      <point x="322" y="624"/>
      <point x="318" y="383" type="curve"/>
      <point x="135" y="383" type="line"/>
      <point x="135" y="733" type="line"/>
      <point x="113" y="733" type="line"/>
      <point x="113" y="0" type="line"/>
      <point x="135" y="0" type="line"/>
      <point x="135" y="363" type="line"/>
      <point x="318" y="363" type="line"/>
      <point x="318" y="116"/>
      <point x="419" y="-13"/>
    </contour>
    <contour>
      <point x="597" y="7" type="curve" smooth="yes"/>
      <point x="440" y="7"/>
      <point x="342" y="123"/>
      <point x="342" y="346" type="curve" smooth="yes"/>
      <point x="342" y="389" type="line" smooth="yes"/>
      <point x="342" y="612"/>
      <point x="440" y="726"/>
      <point x="597" y="726" type="curve" smooth="yes"/>
      <point x="755" y="726"/>
      <point x="852" y="612"/>
      <point x="852" y="389" type="curve" smooth="yes"/>
      <point x="852" y="345" type="line" smooth="yes"/>
      <point x="852" y="122"/>
      <point x="755" y="7"/>
    </contour>
  </outline>
</glyph>
<glyph name="uni042F" format="2">
  <advance width="662"/>
  <unicode hex="042F"/>
  <outline>
    <contour>
      <point x="37" y="0" type="line"/>
      <point x="89" y="0" type="line" smooth="yes"/>
      <point x="106" y="0"/>
      <point x="115" y="5"/>
      <point x="122" y="18" type="curve" smooth="yes"/>
      <point x="290" y="338" type="line"/>
      <point x="526" y="338" type="line"/>
      <point x="526" y="0" type="line"/>
      <point x="548" y="0" type="line"/>
      <point x="548" y="733" type="line"/>
      <point x="267" y="733" type="line" smooth="yes"/>
      <point x="147" y="733"/>
      <point x="84" y="655"/>
      <point x="84" y="535" type="curve" smooth="yes"/>
      <point x="84" y="416"/>
      <point x="148" y="338"/>
      <point x="267" y="338" type="curve" smooth="yes"/>
      <point x="276" y="338" type="line"/>
      <point x="276" y="335" type="line"/>
      <point x="266" y="333"/>
      <point x="258" y="325"/>
      <point x="247" y="304" type="curve" smooth="yes"/>
      <point x="99" y="20" type="line"/>
      <point x="37" y="20" type="line"/>
    </contour>
    <contour>
      <point x="267" y="358" type="line" smooth="yes"/>
      <point x="158" y="358"/>
      <point x="108" y="433"/>
      <point x="108" y="513" type="curve" smooth="yes"/>
      <point x="108" y="558" type="line" smooth="yes"/>
      <point x="108" y="638"/>
      <point x="158" y="713"/>
      <point x="267" y="713" type="curve" smooth="yes"/>
      <point x="526" y="713" type="line"/>
      <point x="526" y="358" type="line"/>
    </contour>
  </outline>
</glyph>
<glyph name="uni0432" format="2">
  <advance width="578"/>
  <unicode hex="0432"/>
  <outline>
    <contour>
      <point x="111" y="0" type="line"/>
      <point x="360" y="0" type="line" smooth="yes"/>
      <point x="447" y="0"/>
      <point x="492" y="57"/>
      <point x="492" y="144" type="curve" smooth="yes"/>
      <point x="492" y="218"/>
      <point x="455" y="260"/>
      <point x="382" y="273" type="curve"/>
      <point x="382" y="275" type="line"/>
      <point x="435" y="292"/>
      <point x="468" y="331"/>
      <point x="468" y="401" type="curve" smooth="yes"/>
      <point x="468" y="487"/>
      <point x="423" y="531"/>
      <point x="348" y="531" type="curve" smooth="yes"/>
      <point x="111" y="531" type="line"/>
    </contour>
    <contour>
      <point x="132" y="19" type="line"/>
      <point x="132" y="262" type="line"/>
      <point x="343" y="262" type="line" smooth="yes"/>
      <point x="430" y="262"/>
      <point x="469" y="212"/>
      <point x="469" y="160" type="curve" smooth="yes"/>
      <point x="469" y="128" type="line" smooth="yes"/>
      <point x="469" y="71"/>
      <point x="435" y="19"/>
      <point x="360" y="19" type="curve" smooth="yes"/>
    </contour>
    <contour>
      <point x="132" y="281" type="line"/>
      <point x="132" y="512" type="line"/>
      <point x="348" y="512" type="line" smooth="yes"/>
      <point x="414" y="512"/>
      <point x="445" y="469"/>
      <point x="445" y="417" type="curve" smooth="yes"/>
      <point x="445" y="385" type="line" smooth="yes"/>
      <point x="445" y="330"/>
      <point x="411" y="281"/>
      <point x="338" y="281" type="curve" smooth="yes"/>
    </contour>
  </outline>
</glyph>
<glyph name="uni0437" format="2">
  <advance width="519"/>
  <unicode hex="0437"/>
  <outline>
    <contour>
      <point x="244" y="-13" type="curve" smooth="yes"/>
      <point x="364" y="-13"/>
      <point x="433" y="46"/>
      <point x="433" y="139" type="curve" smooth="yes"/>
      <point x="433" y="220"/>
      <point x="385" y="264"/>
      <point x="311" y="274" type="curve"/>
      <point x="311" y="277" type="line"/>
      <point x="375" y="288"/>
      <point x="420" y="334"/>
      <point x="420" y="408" type="curve" smooth="yes"/>
      <point x="420" y="492"/>
      <point x="357" y="544"/>
      <point x="253" y="544" type="curve" smooth="yes"/>
      <point x="155" y="544"/>
      <point x="98" y="502"/>
      <point x="65" y="439" type="curve"/>
      <point x="84" y="430" type="line"/>
      <point x="118" y="491"/>
      <point x="166" y="525"/>
      <point x="253" y="525" type="curve" smooth="yes"/>
      <point x="342" y="525"/>
      <point x="399" y="481"/>
      <point x="399" y="415" type="curve" smooth="yes"/>
      <point x="399" y="396" type="line" smooth="yes"/>
      <point x="399" y="334"/>
      <point x="341" y="283"/>
      <point x="261" y="283" type="curve" smooth="yes"/>
      <point x="156" y="283" type="line"/>
      <point x="156" y="264" type="line"/>
      <point x="262" y="264" type="line" smooth="yes"/>
      <point x="352" y="264"/>
      <point x="412" y="221"/>
      <point x="412" y="149" type="curve" smooth="yes"/>
      <point x="412" y="127" type="line" smooth="yes"/>
      <point x="412" y="55"/>
      <point x="343" y="6"/>
      <point x="244" y="6" type="curve" smooth="yes"/>
      <point x="162" y="6"/>
      <point x="108" y="37"/>
      <point x="73" y="98" type="curve"/>
      <point x="56" y="88" type="line"/>
      <point x="91" y="28"/>
      <point x="145" y="-13"/>
    </contour>
  </outline>
</glyph>
<glyph name="uni0438" format="2">
  <advance width="605"/>
  <unicode hex="0438"/>
  <outline>
    <contour>
      <point x="110" y="0" type="line"/>
      <point x="130" y="0" type="line"/>
      <point x="430" y="434" type="line"/>
      <point x="471" y="498" type="line"/>
      <point x="475" y="498" type="line"/>
      <point x="473" y="425" type="line"/>
      <point x="473" y="0" type="line"/>
      <point x="494" y="0" type="line"/>
      <point x="494" y="531" type="line"/>
      <point x="474" y="531" type="line"/>
      <point x="174" y="97" type="line"/>
      <point x="133" y="34" type="line"/>
      <point x="129" y="34" type="line"/>
      <point x="131" y="106" type="line"/>
      <point x="131" y="531" type="line"/>
      <point x="110" y="531" type="line"/>
    </contour>
  </outline>
</glyph>
<glyph name="uni043B" format="2">
  <advance width="566"/>
  <unicode hex="043B"/>
  <outline>
    <contour>
      <point x="4" y="0" type="line"/>
      <point x="49" y="0" type="line" smooth="yes"/>
      <point x="64" y="0"/>
      <point x="73" y="3"/>
      <point x="84" y="14" type="curve" smooth="yes"/>
      <point x="130" y="60"/>
      <point x="175" y="171"/>
      <point x="175" y="373" type="curve" smooth="yes"/>
      <point x="175" y="512" type="line"/>
      <point x="434" y="512" type="line"/>
      <point x="434" y="0" type="line"/>
      <point x="455" y="0" type="line"/>
      <point x="455" y="531" type="line"/>
      <point x="154" y="531" type="line"/>
      <point x="154" y="373" type="line" smooth="yes"/>
      <point x="154" y="169"/>
      <point x="110" y="65"/>
      <point x="64" y="19" type="curve"/>
      <point x="4" y="19" type="line"/>
    </contour>
  </outline>
</glyph>
<glyph name="uni043C" format="2">
  <advance width="716"/>
  <unicode hex="043C"/>
  <outline>
    <contour>
      <point x="131" y="0" type="line"/>
      <point x="131" y="504" type="line"/>
      <point x="136" y="504" type="line"/>
      <point x="176" y="441" type="line"/>
      <point x="358" y="145" type="line"/>
      <point x="539" y="441" type="line"/>
      <point x="579" y="504" type="line"/>
      <point x="585" y="504" type="line"/>
      <point x="585" y="0" type="line"/>
      <point x="606" y="0" type="line"/>
      <point x="606" y="531" type="line"/>
      <point x="571" y="531" type="line"/>
      <point x="360" y="184" type="line"/>
      <point x="357" y="184" type="line"/>
      <point x="145" y="531" type="line"/>
      <point x="110" y="531" type="line"/>
      <point x="110" y="0" type="line"/>
    </contour>
  </outline>
</glyph>
<glyph name="uni043D" format="2">
  <advance width="605"/>
  <unicode hex="043D"/>
  <outline>
    <contour>
      <point x="110" y="0" type="line"/>
      <point x="131" y="0" type="line"/>
      <point x="131" y="270" type="line"/>
      <point x="473" y="270" type="line"/>
      <point x="473" y="0" type="line"/>
      <point x="494" y="0" type="line"/>
      <point x="494" y="531" type="line"/>
      <point x="473" y="531" type="line"/>
      <point x="473" y="289" type="line"/>
      <point x="131" y="289" type="line"/>
      <point x="131" y="531" type="line"/>
      <point x="110" y="531" type="line"/>
    </contour>
  </outline>
</glyph>
<glyph name="uni0445" format="2">
  <advance width="494"/>
  <unicode hex="0445"/>
  <outline>
    <contour>
      <point x="60" y="0" type="line"/>
      <point x="246" y="251" type="line"/>
      <point x="248" y="251" type="line"/>
      <point x="434" y="0" type="line"/>
      <point x="458" y="0" type="line"/>
      <point x="259" y="268" type="line"/>
      <point x="453" y="531" type="line"/>
      <point x="429" y="531" type="line"/>
      <point x="248" y="285" type="line"/>
      <point x="246" y="285" type="line"/>
      <point x="65" y="531" type="line"/>
      <point x="41" y="531" type="line"/>
      <point x="235" y="268" type="line"/>
      <point x="36" y="0" type="line"/>
    </contour>
  </outline>
</glyph>
<glyph name="uni0448" format="2">
  <advance width="818"/>
  <unicode hex="0448"/>
  <outline>
    <contour>
      <point x="110" y="0" type="line"/>
      <point x="707" y="0" type="line"/>
      <point x="707" y="531" type="line"/>
      <point x="686" y="531" type="line"/>
      <point x="686" y="19" type="line"/>
      <point x="419" y="19" type="line"/>
      <point x="419" y="531" type="line"/>
      <point x="398" y="531" type="line"/>
      <point x="398" y="19" type="line"/>
      <point x="131" y="19" type="line"/>
      <point x="131" y="531" type="line"/>
      <point x="110" y="531" type="line"/>
    </contour>
  </outline>
</glyph>
<glyph name="uni044A" format="2">
  <advance width="617"/>
  <unicode hex="044A"/>
  <outline>
    <contour>
      <point x="193" y="0" type="line"/>
      <point x="393" y="0" type="line" smooth="yes"/>
      <point x="500" y="0"/>
      <point x="557" y="61"/>
      <point x="557" y="154" type="curve" smooth="yes"/>
      <point x="557" y="247"/>
      <point x="500" y="308"/>
      <point x="393" y="308" type="curve" smooth="yes"/>
      <point x="214" y="308" type="line"/>
      <point x="214" y="531" type="line"/>
      <point x="37" y="531" type="line"/>
      <point x="37" y="512" type="line"/>
      <point x="193" y="512" type="line"/>
    </contour>
    <contour>
      <point x="214" y="19" type="line"/>
      <point x="214" y="289" type="line"/>
      <point x="393" y="289" type="line" smooth="yes"/>
      <point x="489" y="289"/>
      <point x="534" y="231"/>
      <point x="534" y="168" type="curve" smooth="yes"/>
      <point x="534" y="140" type="line" smooth="yes"/>
      <point x="534" y="77"/>
      <point x="489" y="19"/>
      <point x="393" y="19" type="curve" smooth="yes"/>
    </contour>
  </outline>
</glyph>
<glyph name="uni044B" format="2">
  <advance width="706"/>
  <unicode hex="044B"/>
  <outline>
    <contour>
      <point x="110" y="0" type="line"/>
      <point x="291" y="0" type="line" smooth="yes"/>
      <point x="398" y="0"/>
      <point x="454" y="61"/>
      <point x="454" y="154" type="curve" smooth="yes"/>
      <point x="454" y="247"/>
      <point x="398" y="308"/>
      <point x="291" y="308" type="curve" smooth="yes"/>
      <point x="131" y="308" type="line"/>
      <point x="131" y="531" type="line"/>
      <point x="110" y="531" type="line"/>
    </contour>
    <contour>
      <point x="131" y="20" type="line"/>
      <point x="131" y="289" type="line"/>
      <point x="291" y="289" type="line" smooth="yes"/>
      <point x="387" y="289"/>
      <point x="431" y="231"/>
      <point x="431" y="168" type="curve" smooth="yes"/>
      <point x="431" y="140" type="line" smooth="yes"/>
      <point x="431" y="77"/>
      <point x="387" y="20"/>
      <point x="291" y="20" type="curve" smooth="yes"/>
    </contour>
    <contour>
      <point x="574" y="0" type="line"/>
      <point x="595" y="0" type="line"/>
      <point x="595" y="531" type="line"/>
      <point x="574" y="531" type="line"/>
    </contour>
  </outline>
</glyph>
<glyph name="uni044C" format="2">
  <advance width="534"/>
  <unicode hex="044C"/>
  <outline>
    <contour>
      <point x="110" y="0" type="line"/>
      <point x="309" y="0" type="line" smooth="yes"/>
      <point x="417" y="0"/>
      <point x="473" y="61"/>
      <point x="473" y="154" type="curve" smooth="yes"/>
      <point x="473" y="247"/>
      <point x="417" y="308"/>
      <point x="309" y="308" type="curve" smooth="yes"/>
      <point x="131" y="308" type="line"/>
      <point x="131" y="531" type="line"/>
      <point x="110" y="531" type="line"/>
    </contour>
    <contour>
      <point x="131" y="19" type="line"/>
      <point x="131" y="289" type="line"/>
      <point x="309" y="289" type="line" smooth="yes"/>
      <point x="406" y="289"/>
      <point x="450" y="231"/>
      <point x="450" y="168" type="curve" smooth="yes"/>
      <point x="450" y="140" type="line" smooth="yes"/>
      <point x="450" y="77"/>
      <point x="406" y="19"/>
      <point x="309" y="19" type="curve" smooth="yes"/>
    </contour>
  </outline>
</glyph>
<glyph name="uni044D" format="2">
  <advance width="522"/>
  <unicode hex="044D"/>
  <outline>
    <contour>
      <point x="156" y="260" type="line"/>
      <point x="436" y="260" type="line"/>
      <point x="436" y="241" type="line" smooth="yes"/>
      <point x="436" y="98"/>
      <point x="365" y="7"/>
      <point x="239" y="7" type="curve" smooth="yes"/>
      <point x="157" y="7"/>
      <point x="105" y="43"/>
      <point x="72" y="100" type="curve"/>
      <point x="56" y="89" type="line"/>
      <point x="91" y="29"/>
      <point x="146" y="-12"/>
      <point x="239" y="-12" type="curve" smooth="yes"/>
      <point x="377" y="-12"/>
      <point x="459" y="82"/>
      <point x="459" y="266" type="curve" smooth="yes"/>
      <point x="459" y="450"/>
      <point x="377" y="544"/>
      <point x="239" y="544" type="curve" smooth="yes"/>
      <point x="155" y="544"/>
      <point x="98" y="502"/>
      <point x="65" y="439" type="curve"/>
      <point x="83" y="430" type="line"/>
      <point x="117" y="491"/>
      <point x="163" y="525"/>
      <point x="239" y="525" type="curve" smooth="yes"/>
      <point x="365" y="525"/>
      <point x="436" y="434"/>
      <point x="436" y="291" type="curve" smooth="yes"/>
      <point x="436" y="279" type="line"/>
      <point x="156" y="279" type="line"/>
    </contour>
  </outline>
</glyph>
<glyph name="uni044F" format="2">
  <advance width="544"/>
  <unicode hex="044F"/>
  <outline>
    <contour>
      <point x="40" y="0" type="line"/>
      <point x="96" y="0" type="line" smooth="yes"/>
      <point x="108" y="0"/>
      <point x="115" y="4"/>
      <point x="122" y="17" type="curve" smooth="yes"/>
      <point x="232" y="224" type="line"/>
      <point x="413" y="224" type="line"/>
      <point x="413" y="0" type="line"/>
      <point x="434" y="0" type="line"/>
      <point x="434" y="531" type="line"/>
      <point x="234" y="531" type="line" smooth="yes"/>
      <point x="127" y="531"/>
      <point x="70" y="470"/>
      <point x="70" y="377" type="curve" smooth="yes"/>
      <point x="70" y="290"/>
      <point x="122" y="231"/>
      <point x="218" y="225" type="curve"/>
      <point x="218" y="222" type="line"/>
      <point x="208" y="217"/>
      <point x="201" y="209"/>
      <point x="193" y="195" type="curve"/>
      <point x="100" y="19" type="line"/>
      <point x="40" y="19" type="line"/>
    </contour>
    <contour>
      <point x="234" y="243" type="line" smooth="yes"/>
      <point x="138" y="243"/>
      <point x="94" y="300"/>
      <point x="94" y="363" type="curve" smooth="yes"/>
      <point x="94" y="392" type="line" smooth="yes"/>
      <point x="94" y="455"/>
      <point x="138" y="512"/>
      <point x="234" y="512" type="curve" smooth="yes"/>
      <point x="413" y="512" type="line"/>
      <point x="413" y="243" type="line"/>
    </contour>
  </outline>
</glyph>
<glyph name="uni2015" format="2">
  <advance width="1000"/>
  <unicode hex="2015"/>
  <outline>
    <contour>
      <point x="0" y="371" type="line"/>
      <point x="1000" y="371" type="line"/>
      <point x="1000" y="389" type="line"/>
      <point x="0" y="389" type="line"/>
    </contour>
  </outline>
</glyph>
<glyph name="uni2016" format="2">
  <advance width="1000"/>
  <unicode hex="2016"/>
  <outline>
    <contour>
      <point x="633" y="-120" type="line"/>
      <point x="633" y="880" type="line"/>
      <point x="613" y="880" type="line"/>
      <point x="613" y="-120" type="line"/>
    </contour>
    <contour>
      <point x="387" y="-120" type="line"/>
      <point x="387" y="880" type="line"/>
      <point x="367" y="880" type="line"/>
      <point x="367" y="-120" type="line"/>
    </contour>
  </outline>
</glyph>
<glyph name="uni2018" format="2">
  <advance width="1000"/>
  <unicode hex="2018"/>
  <anchor x="490" y="380" name="BSB"/>
  <anchor x="500" y="0" name="LSB"/>
  <anchor x="1000" y="0" name="RSB"/>
  <anchor x="510" y="880" name="TSB"/>
  <outline>
    <contour>
      <point x="865" y="637" type="curve" smooth="yes"/>
      <point x="885" y="637"/>
      <point x="893" y="648"/>
      <point x="893" y="663" type="curve" smooth="yes"/>
      <point x="893" y="672" type="line" smooth="yes"/>
      <point x="893" y="684"/>
      <point x="885" y="695"/>
      <point x="861" y="695" type="curve"/>
      <point x="865" y="732"/>
      <point x="884" y="787"/>
      <point x="935" y="837" type="curve"/>
      <point x="916" y="837" type="line"/>
      <point x="873" y="797"/>
      <point x="839" y="730"/>
      <point x="839" y="675" type="curve" smooth="yes"/>
      <point x="839" y="663" type="line" smooth="yes"/>
      <point x="839" y="648"/>
      <point x="847" y="637"/>
    </contour>
  </outline>
</glyph>
<glyph name="uni2019" format="2">
  <advance width="1000"/>
  <unicode hex="2019"/>
  <anchor x="490" y="380" name="BSB"/>
  <anchor x="0" y="0" name="LSB"/>
  <anchor x="500" y="0" name="RSB"/>
  <anchor x="510" y="880" name="TSB"/>
  <outline>
    <contour>
      <point x="135" y="845" type="curve" smooth="yes"/>
      <point x="115" y="845"/>
      <point x="107" y="834"/>
      <point x="107" y="819" type="curve" smooth="yes"/>
      <point x="107" y="810" type="line" smooth="yes"/>
      <point x="107" y="798"/>
      <point x="115" y="787"/>
      <point x="139" y="787" type="curve"/>
      <point x="135" y="750"/>
      <point x="116" y="695"/>
      <point x="65" y="645" type="curve"/>
      <point x="84" y="645" type="line"/>
      <point x="127" y="685"/>
      <point x="161" y="752"/>
      <point x="161" y="807" type="curve" smooth="yes"/>
      <point x="161" y="819" type="line" smooth="yes"/>
      <point x="161" y="834"/>
      <point x="153" y="845"/>
    </contour>
  </outline>
</glyph>
<glyph name="uni00B7.latn" format="2">
  <advance width="314"/>
  <unicode hex="2022"/>
  <outline>
    <contour>
      <point x="157" y="292" type="curve" smooth="yes"/>
      <point x="174" y="292"/>
      <point x="184" y="301"/>
      <point x="184" y="317" type="curve" smooth="yes"/>
      <point x="184" y="325" type="line" smooth="yes"/>
      <point x="184" y="341"/>
      <point x="174" y="350"/>
      <point x="157" y="350" type="curve" smooth="yes"/>
      <point x="140" y="350"/>
      <point x="130" y="341"/>
      <point x="130" y="325" type="curve" smooth="yes"/>
      <point x="130" y="317" type="line" smooth="yes"/>
      <point x="130" y="301"/>
      <point x="140" y="292"/>
    </contour>
  </outline>
</glyph>
<glyph name="uni2025" format="2">
  <advance width="1000"/>
  <unicode hex="2025"/>
  <outline>
    <contour>
      <point x="750" y="342" type="curve" smooth="yes"/>
      <point x="768" y="342"/>
      <point x="777" y="351"/>
      <point x="777" y="367" type="curve" smooth="yes"/>
      <point x="777" y="375" type="line" smooth="yes"/>
      <point x="777" y="391"/>
      <point x="768" y="400"/>
      <point x="750" y="400" type="curve" smooth="yes"/>
      <point x="732" y="400"/>
      <point x="723" y="391"/>
      <point x="723" y="375" type="curve" smooth="yes"/>
      <point x="723" y="367" type="line" smooth="yes"/>
      <point x="723" y="351"/>
      <point x="732" y="342"/>
    </contour>
    <contour>
      <point x="250" y="342" type="curve" smooth="yes"/>
      <point x="268" y="342"/>
      <point x="277" y="351"/>
      <point x="277" y="367" type="curve" smooth="yes"/>
      <point x="277" y="375" type="line" smooth="yes"/>
      <point x="277" y="391"/>
      <point x="268" y="400"/>
      <point x="250" y="400" type="curve" smooth="yes"/>
      <point x="232" y="400"/>
      <point x="223" y="391"/>
      <point x="223" y="375" type="curve" smooth="yes"/>
      <point x="223" y="367" type="line" smooth="yes"/>
      <point x="223" y="351"/>
      <point x="232" y="342"/>
    </contour>
  </outline>
</glyph>
<glyph name="uni2026" format="2">
  <advance width="1000"/>
  <unicode hex="2026"/>
  <outline>
    <contour>
      <point x="167" y="342" type="curve" smooth="yes"/>
      <point x="185" y="342"/>
      <point x="194" y="351"/>
      <point x="194" y="367" type="curve" smooth="yes"/>
      <point x="194" y="375" type="line" smooth="yes"/>
      <point x="194" y="391"/>
      <point x="185" y="400"/>
      <point x="167" y="400" type="curve" smooth="yes"/>
      <point x="149" y="400"/>
      <point x="140" y="391"/>
      <point x="140" y="375" type="curve" smooth="yes"/>
      <point x="140" y="367" type="line" smooth="yes"/>
      <point x="140" y="351"/>
      <point x="149" y="342"/>
    </contour>
    <contour>
      <point x="500" y="342" type="curve" smooth="yes"/>
      <point x="518" y="342"/>
      <point x="527" y="351"/>
      <point x="527" y="367" type="curve" smooth="yes"/>
      <point x="527" y="375" type="line" smooth="yes"/>
      <point x="527" y="391"/>
      <point x="518" y="400"/>
      <point x="500" y="400" type="curve" smooth="yes"/>
      <point x="482" y="400"/>
      <point x="473" y="391"/>
      <point x="473" y="375" type="curve" smooth="yes"/>
      <point x="473" y="367" type="line" smooth="yes"/>
      <point x="473" y="351"/>
      <point x="482" y="342"/>
    </contour>
    <contour>
      <point x="833" y="342" type="curve" smooth="yes"/>
      <point x="851" y="342"/>
      <point x="860" y="351"/>
      <point x="860" y="367" type="curve" smooth="yes"/>
      <point x="860" y="375" type="line" smooth="yes"/>
      <point x="860" y="391"/>
      <point x="851" y="400"/>
      <point x="833" y="400" type="curve" smooth="yes"/>
      <point x="815" y="400"/>
      <point x="806" y="391"/>
      <point x="806" y="375" type="curve" smooth="yes"/>
      <point x="806" y="367" type="line" smooth="yes"/>
      <point x="806" y="351"/>
      <point x="815" y="342"/>
    </contour>
  </outline>
</glyph>
<glyph name="uni2035" format="2">
  <advance width="1000"/>
  <unicode hex="2035"/>
  <outline>
    <contour>
      <point x="400" y="753" type="line"/>
      <point x="376" y="751" type="line"/>
      <point x="534" y="417" type="line"/>
      <point x="549" y="419" type="line"/>
    </contour>
  </outline>
</glyph>
<glyph name="uni2160" format="2">
  <advance width="1000"/>
  <unicode hex="2160"/>
  <outline>
    <contour>
      <point x="690" y="0" type="line"/>
      <point x="690" y="19" type="line"/>
      <point x="511" y="19" type="line"/>
      <point x="511" y="714" type="line"/>
      <point x="690" y="714" type="line"/>
      <point x="690" y="733" type="line"/>
      <point x="310" y="733" type="line"/>
      <point x="310" y="714" type="line"/>
      <point x="489" y="714" type="line"/>
      <point x="489" y="19" type="line"/>
      <point x="310" y="19" type="line"/>
      <point x="310" y="0" type="line"/>
    </contour>
  </outline>
</glyph>
<glyph name="uni2163" format="2">
  <advance width="1000"/>
  <unicode hex="2163"/>
  <outline>
    <contour>
      <point x="698" y="0" type="line"/>
      <point x="960" y="733" type="line"/>
      <point x="937" y="733" type="line"/>
      <point x="798" y="344" type="line"/>
      <point x="684" y="25" type="line"/>
      <point x="681" y="25" type="line"/>
      <point x="567" y="344" type="line"/>
      <point x="429" y="733" type="line"/>
      <point x="405" y="733" type="line"/>
      <point x="666" y="0" type="line"/>
    </contour>
    <contour>
      <point x="340" y="0" type="line"/>
      <point x="340" y="19" type="line"/>
      <point x="216" y="19" type="line"/>
      <point x="216" y="714" type="line"/>
      <point x="340" y="714" type="line"/>
      <point x="340" y="733" type="line"/>
      <point x="72" y="733" type="line"/>
      <point x="72" y="714" type="line"/>
      <point x="194" y="714" type="line"/>
      <point x="194" y="19" type="line"/>
      <point x="72" y="19" type="line"/>
      <point x="72" y="0" type="line"/>
    </contour>
  </outline>
</glyph>
<glyph name="uni2166" format="2">
  <advance width="1000"/>
  <unicode hex="2166"/>
  <outline>
    <contour>
      <point x="239" y="0" type="line"/>
      <point x="407" y="733" type="line"/>
      <point x="384" y="733" type="line"/>
      <point x="302" y="369" type="line"/>
      <point x="225" y="25" type="line"/>
      <point x="222" y="25" type="line"/>
      <point x="145" y="370" type="line"/>
      <point x="64" y="733" type="line"/>
      <point x="40" y="733" type="line"/>
      <point x="207" y="0" type="line"/>
    </contour>
    <contour>
      <point x="672" y="0" type="line"/>
      <point x="672" y="19" type="line"/>
      <point x="568" y="19" type="line"/>
      <point x="568" y="714" type="line"/>
      <point x="672" y="714" type="line"/>
      <point x="672" y="733" type="line"/>
      <point x="444" y="733" type="line"/>
      <point x="444" y="714" type="line"/>
      <point x="546" y="714" type="line"/>
      <point x="546" y="19" type="line"/>
      <point x="444" y="19" type="line"/>
      <point x="444" y="0" type="line"/>
    </contour>
    <contour>
      <point x="940" y="0" type="line"/>
      <point x="940" y="19" type="line"/>
      <point x="836" y="19" type="line"/>
      <point x="836" y="714" type="line"/>
      <point x="940" y="714" type="line"/>
      <point x="940" y="733" type="line"/>
      <point x="712" y="733" type="line"/>
      <point x="711" y="714" type="line"/>
      <point x="814" y="714" type="line"/>
      <point x="814" y="19" type="line"/>
      <point x="712" y="19" type="line"/>
      <point x="712" y="0" type="line"/>
    </contour>
  </outline>
</glyph>
<glyph name="uni2168" format="2">
  <advance width="1000"/>
  <unicode hex="2168"/>
  <outline>
    <contour>
      <point x="455" y="0" type="line"/>
      <point x="694" y="354" type="line"/>
      <point x="696" y="354" type="line"/>
      <point x="933" y="0" type="line"/>
      <point x="960" y="0" type="line"/>
      <point x="709" y="375" type="line"/>
      <point x="950" y="733" type="line"/>
      <point x="923" y="733" type="line"/>
      <point x="695" y="393" type="line"/>
      <point x="693" y="393" type="line"/>
      <point x="465" y="733" type="line"/>
      <point x="438" y="733" type="line"/>
      <point x="680" y="372" type="line"/>
      <point x="428" y="0" type="line"/>
    </contour>
    <contour>
      <point x="340" y="0" type="line"/>
      <point x="340" y="19" type="line"/>
      <point x="216" y="19" type="line"/>
      <point x="216" y="714" type="line"/>
      <point x="340" y="714" type="line"/>
      <point x="340" y="733" type="line"/>
      <point x="72" y="733" type="line"/>
      <point x="72" y="714" type="line"/>
      <point x="194" y="714" type="line"/>
      <point x="194" y="19" type="line"/>
      <point x="72" y="19" type="line"/>
      <point x="72" y="0" type="line"/>
    </contour>
  </outline>
</glyph>
<glyph name="uni2172" format="2">
  <advance width="1000"/>
  <unicode hex="2172"/>
  <outline>
    <contour>
      <point x="793" y="0" type="line"/>
      <point x="793" y="531" type="line"/>
      <point x="772" y="531" type="line"/>
      <point x="772" y="0" type="line"/>
    </contour>
    <contour>
      <point x="229" y="0" type="line"/>
      <point x="229" y="531" type="line"/>
      <point x="208" y="531" type="line"/>
      <point x="208" y="0" type="line"/>
    </contour>
    <contour>
      <point x="511" y="0" type="line"/>
      <point x="511" y="531" type="line"/>
      <point x="490" y="531" type="line"/>
      <point x="490" y="0" type="line"/>
    </contour>
    <contour>
      <point x="218" y="708" type="curve" smooth="yes"/>
      <point x="235" y="708"/>
      <point x="241" y="718"/>
      <point x="241" y="729" type="curve" smooth="yes"/>
      <point x="241" y="736" type="line" smooth="yes"/>
      <point x="241" y="747"/>
      <point x="235" y="757"/>
      <point x="218" y="757" type="curve" smooth="yes"/>
      <point x="201" y="757"/>
      <point x="195" y="747"/>
      <point x="195" y="736" type="curve" smooth="yes"/>
      <point x="195" y="729" type="line" smooth="yes"/>
      <point x="195" y="718"/>
      <point x="201" y="708"/>
    </contour>
    <contour>
      <point x="500" y="708" type="curve" smooth="yes"/>
      <point x="517" y="708"/>
      <point x="523" y="718"/>
      <point x="523" y="729" type="curve" smooth="yes"/>
      <point x="523" y="736" type="line" smooth="yes"/>
      <point x="523" y="747"/>
      <point x="517" y="757"/>
      <point x="500" y="757" type="curve" smooth="yes"/>
      <point x="483" y="757"/>
      <point x="477" y="747"/>
      <point x="477" y="736" type="curve" smooth="yes"/>
      <point x="477" y="729" type="line" smooth="yes"/>
      <point x="477" y="718"/>
      <point x="483" y="708"/>
    </contour>
    <contour>
      <point x="782" y="708" type="curve" smooth="yes"/>
      <point x="799" y="708"/>
      <point x="805" y="718"/>
      <point x="805" y="729" type="curve" smooth="yes"/>
      <point x="805" y="736" type="line" smooth="yes"/>
      <point x="805" y="747"/>
      <point x="799" y="757"/>
      <point x="782" y="757" type="curve" smooth="yes"/>
      <point x="765" y="757"/>
      <point x="759" y="747"/>
      <point x="759" y="736" type="curve" smooth="yes"/>
      <point x="759" y="729" type="line" smooth="yes"/>
      <point x="759" y="718"/>
      <point x="765" y="708"/>
    </contour>
  </outline>
</glyph>
<glyph name="uni2175" format="2">
  <advance width="1000"/>
  <unicode hex="2175"/>
  <outline>
    <contour>
      <point x="387" y="0" type="line"/>
      <point x="583" y="531" type="line"/>
      <point x="562" y="531" type="line"/>
      <point x="430" y="173" type="line"/>
      <point x="375" y="25" type="line"/>
      <point x="372" y="25" type="line"/>
      <point x="317" y="174" type="line"/>
      <point x="185" y="531" type="line"/>
      <point x="163" y="531" type="line"/>
      <point x="361" y="0" type="line"/>
    </contour>
    <contour>
      <point x="788" y="0" type="line"/>
      <point x="788" y="531" type="line"/>
      <point x="767" y="531" type="line"/>
      <point x="767" y="0" type="line"/>
    </contour>
    <contour>
      <point x="777" y="708" type="curve" smooth="yes"/>
      <point x="794" y="708"/>
      <point x="800" y="718"/>
      <point x="800" y="729" type="curve" smooth="yes"/>
      <point x="800" y="736" type="line" smooth="yes"/>
      <point x="800" y="747"/>
      <point x="794" y="757"/>
      <point x="777" y="757" type="curve" smooth="yes"/>
      <point x="760" y="757"/>
      <point x="754" y="747"/>
      <point x="754" y="736" type="curve" smooth="yes"/>
      <point x="754" y="729" type="line" smooth="yes"/>
      <point x="754" y="718"/>
      <point x="760" y="708"/>
    </contour>
  </outline>
</glyph>
<glyph name="uni2190" format="2">
  <advance width="1000"/>
  <unicode hex="2190"/>
  <outline>
    <contour>
      <point x="338" y="199" type="line"/>
      <point x="218" y="319" type="line"/>
      <point x="164" y="369" type="line"/>
      <point x="165" y="371" type="line"/>
      <point x="242" y="370" type="line"/>
      <point x="873" y="370" type="line"/>
      <point x="873" y="390" type="line"/>
      <point x="242" y="390" type="line"/>
      <point x="165" y="389" type="line"/>
      <point x="164" y="391" type="line"/>
      <point x="218" y="441" type="line"/>
      <point x="338" y="561" type="line"/>
      <point x="323" y="576" type="line"/>
      <point x="127" y="380" type="line"/>
      <point x="323" y="184" type="line"/>
    </contour>
  </outline>
</glyph>
<glyph name="uni2191" format="2">
  <advance width="1000"/>
  <unicode hex="2191"/>
  <outline>
    <contour>
      <point x="500" y="753" type="line"/>
      <point x="304" y="557" type="line"/>
      <point x="319" y="542" type="line"/>
      <point x="439" y="662" type="line"/>
      <point x="489" y="716" type="line"/>
      <point x="491" y="715" type="line"/>
      <point x="490" y="607" type="line"/>
      <point x="490" y="10" type="line"/>
      <point x="510" y="10" type="line"/>
      <point x="510" y="607" type="line"/>
      <point x="509" y="715" type="line"/>
      <point x="511" y="716" type="line"/>
      <point x="561" y="662" type="line"/>
      <point x="681" y="542" type="line"/>
      <point x="696" y="557" type="line"/>
    </contour>
  </outline>
</glyph>
<glyph name="uni2193" format="2">
  <advance width="1000"/>
  <unicode hex="2193"/>
  <outline>
    <contour>
      <point x="681" y="211" type="line"/>
      <point x="561" y="91" type="line"/>
      <point x="511" y="37" type="line"/>
      <point x="509" y="38" type="line"/>
      <point x="510" y="146" type="line"/>
      <point x="510" y="743" type="line"/>
      <point x="490" y="743" type="line"/>
      <point x="490" y="146" type="line"/>
      <point x="491" y="38" type="line"/>
      <point x="489" y="37" type="line"/>
      <point x="439" y="91" type="line"/>
      <point x="319" y="211" type="line"/>
      <point x="304" y="196" type="line"/>
      <point x="500" y="0" type="line"/>
      <point x="696" y="196" type="line"/>
    </contour>
  </outline>
</glyph>
<glyph name="uni2194" format="2">
  <advance width="1000"/>
  <unicode hex="2194"/>
  <outline>
    <contour>
      <point x="339" y="199" type="line"/>
      <point x="221" y="316" type="line"/>
      <point x="166" y="368" type="line"/>
      <point x="167" y="371" type="line"/>
      <point x="281" y="370" type="line"/>
      <point x="719" y="370" type="line"/>
      <point x="833" y="371" type="line"/>
      <point x="834" y="368" type="line"/>
      <point x="779" y="316" type="line"/>
      <point x="661" y="199" type="line"/>
      <point x="676" y="184" type="line"/>
      <point x="873" y="380" type="line"/>
      <point x="676" y="576" type="line"/>
      <point x="661" y="561" type="line"/>
      <point x="779" y="444" type="line"/>
      <point x="834" y="392" type="line"/>
      <point x="833" y="389" type="line"/>
      <point x="719" y="390" type="line"/>
      <point x="281" y="390" type="line"/>
      <point x="167" y="389" type="line"/>
      <point x="166" y="392" type="line"/>
      <point x="221" y="444" type="line"/>
      <point x="339" y="561" type="line"/>
      <point x="324" y="576" type="line"/>
      <point x="127" y="380" type="line"/>
      <point x="324" y="184" type="line"/>
    </contour>
  </outline>
</glyph>
<glyph name="uni2196" format="2">
  <advance width="1000"/>
  <unicode hex="2196"/>
  <outline>
    <contour>
      <point x="776" y="135" type="line"/>
      <point x="329" y="581" type="line"/>
      <point x="273" y="635" type="line"/>
      <point x="274" y="637" type="line"/>
      <point x="348" y="634" type="line"/>
      <point x="518" y="634" type="line"/>
      <point x="518" y="655" type="line"/>
      <point x="241" y="655" type="line"/>
      <point x="241" y="380" type="line"/>
      <point x="262" y="380" type="line"/>
      <point x="262" y="548" type="line"/>
      <point x="259" y="622" type="line"/>
      <point x="261" y="623" type="line"/>
      <point x="315" y="567" type="line"/>
      <point x="762" y="121" type="line"/>
    </contour>
  </outline>
</glyph>
<glyph name="uni2197" format="2">
  <advance width="1000"/>
  <unicode hex="2197"/>
  <outline>
    <contour>
      <point x="685" y="567" type="line"/>
      <point x="739" y="623" type="line"/>
      <point x="741" y="622" type="line"/>
      <point x="738" y="548" type="line"/>
      <point x="738" y="380" type="line"/>
      <point x="759" y="380" type="line"/>
      <point x="759" y="655" type="line"/>
      <point x="482" y="655" type="line"/>
      <point x="482" y="634" type="line"/>
      <point x="652" y="634" type="line"/>
      <point x="726" y="637" type="line"/>
      <point x="727" y="635" type="line"/>
      <point x="671" y="581" type="line"/>
      <point x="224" y="135" type="line"/>
      <point x="238" y="121" type="line"/>
    </contour>
  </outline>
</glyph>
<glyph name="uni21BA" format="2">
  <advance width="1000"/>
  <unicode hex="21BA"/>
  <outline>
    <contour>
      <point x="500" y="5" type="curve" smooth="yes"/>
      <point x="707" y="5"/>
      <point x="832" y="157"/>
      <point x="832" y="331" type="curve" smooth="yes"/>
      <point x="832" y="501"/>
      <point x="718" y="580"/>
      <point x="620" y="666" type="curve" smooth="yes"/>
      <point x="555" y="723" type="line"/>
      <point x="556" y="725" type="line"/>
      <point x="633" y="722" type="line"/>
      <point x="798" y="722" type="line"/>
      <point x="798" y="743" type="line"/>
      <point x="522" y="743" type="line"/>
      <point x="522" y="467" type="line"/>
      <point x="543" y="467" type="line"/>
      <point x="543" y="631" type="line"/>
      <point x="540" y="709" type="line"/>
      <point x="542" y="710" type="line"/>
      <point x="607" y="653" type="line" smooth="yes"/>
      <point x="711" y="562"/>
      <point x="811" y="488"/>
      <point x="811" y="331" type="curve" smooth="yes"/>
      <point x="811" y="163"/>
      <point x="691" y="25"/>
      <point x="500" y="25" type="curve" smooth="yes"/>
      <point x="309" y="25"/>
      <point x="189" y="164"/>
      <point x="189" y="330" type="curve" smooth="yes"/>
      <point x="189" y="451"/>
      <point x="248" y="555"/>
      <point x="349" y="606" type="curve"/>
      <point x="338" y="624" type="line"/>
      <point x="229" y="568"/>
      <point x="168" y="456"/>
      <point x="168" y="330" type="curve" smooth="yes"/>
      <point x="168" y="156"/>
      <point x="293" y="5"/>
    </contour>
  </outline>
</glyph>
<glyph name="uni21C6" format="2">
  <advance width="1000"/>
  <unicode hex="21C6"/>
  <outline>
    <contour>
      <point x="340" y="382" type="line"/>
      <point x="221" y="501" type="line"/>
      <point x="167" y="551" type="line"/>
      <point x="168" y="553" type="line"/>
      <point x="245" y="552" type="line"/>
      <point x="870" y="552" type="line"/>
      <point x="870" y="572" type="line"/>
      <point x="245" y="572" type="line"/>
      <point x="168" y="571" type="line"/>
      <point x="167" y="573" type="line"/>
      <point x="221" y="623" type="line"/>
      <point x="340" y="742" type="line"/>
      <point x="325" y="757" type="line"/>
      <point x="130" y="562" type="line"/>
      <point x="325" y="367" type="line"/>
    </contour>
    <contour>
      <point x="870" y="196" type="line"/>
      <point x="675" y="391" type="line"/>
      <point x="660" y="376" type="line"/>
      <point x="779" y="257" type="line"/>
      <point x="833" y="207" type="line"/>
      <point x="832" y="205" type="line"/>
      <point x="755" y="206" type="line"/>
      <point x="131" y="206" type="line"/>
      <point x="131" y="186" type="line"/>
      <point x="755" y="186" type="line"/>
      <point x="832" y="187" type="line"/>
      <point x="833" y="185" type="line"/>
      <point x="779" y="135" type="line"/>
      <point x="660" y="16" type="line"/>
      <point x="675" y="1" type="line"/>
    </contour>
  </outline>
</glyph>
<glyph name="uni2211" format="2">
  <advance width="1000"/>
  <unicode hex="2211"/>
  <outline>
    <contour>
      <point x="706" y="-69" type="line"/>
      <point x="706" y="-48" type="line"/>
      <point x="303" y="-48" type="line"/>
      <point x="602" y="373" type="line"/>
      <point x="602" y="387" type="line"/>
      <point x="303" y="808" type="line"/>
      <point x="706" y="808" type="line"/>
      <point x="706" y="829" type="line"/>
      <point x="276" y="829" type="line"/>
      <point x="276" y="812" type="line"/>
      <point x="579" y="382" type="line"/>
      <point x="579" y="378" type="line"/>
      <point x="276" y="-52" type="line"/>
      <point x="276" y="-69" type="line"/>
    </contour>
  </outline>
</glyph>
<glyph name="uni2215" format="2">
  <advance width="398"/>
  <unicode hex="2215"/>
  <outline>
    <contour>
      <point x="40" y="-78" type="line"/>
      <point x="378" y="838" type="line"/>
      <point x="358" y="838" type="line"/>
      <point x="20" y="-78" type="line"/>
    </contour>
  </outline>
</glyph>
<glyph name="uni221A" format="2">
  <advance width="1000"/>
  <unicode hex="221A"/>
  <outline>
    <contour>
      <point x="316" y="-70" type="line"/>
      <point x="614" y="879" type="line"/>
      <point x="593" y="879" type="line"/>
      <point x="359" y="133" type="line"/>
      <point x="305" y="-43" type="line"/>
      <point x="302" y="-43" type="line"/>
      <point x="249" y="133" type="line"/>
      <point x="164" y="416" type="line"/>
      <point x="28" y="416" type="line"/>
      <point x="28" y="397" type="line"/>
      <point x="149" y="397" type="line"/>
      <point x="289" y="-70" type="line"/>
    </contour>
    <contour>
      <point x="603" y="879" type="line"/>
      <point x="603" y="860" type="line"/>
      <point x="999" y="860" type="line"/>
      <point x="999" y="879" type="line"/>
    </contour>
  </outline>
</glyph>
<glyph name="uni221F" format="2">
  <advance width="1000"/>
  <unicode hex="221F"/>
  <outline>
    <contour>
      <point x="826" y="77" type="line"/>
      <point x="826" y="95" type="line"/>
      <point x="253" y="95" type="line"/>
      <point x="253" y="692" type="line"/>
      <point x="233" y="692" type="line"/>
      <point x="233" y="77" type="line"/>
    </contour>
  </outline>
</glyph>
<glyph name="uni2227" format="2">
  <advance width="1000"/>
  <unicode hex="2227"/>
  <outline>
    <contour>
      <point x="208" y="30" type="line"/>
      <point x="230" y="30" type="line"/>
      <point x="496" y="699" type="line"/>
      <point x="499" y="699" type="line"/>
      <point x="770" y="30" type="line"/>
      <point x="792" y="30" type="line"/>
      <point x="510" y="722" type="line"/>
      <point x="484" y="722" type="line"/>
    </contour>
  </outline>
</glyph>
<glyph name="uni2237" format="2">
  <advance width="1000"/>
  <unicode hex="2237"/>
  <outline>
    <contour>
      <point x="713" y="566" type="curve" smooth="yes"/>
      <point x="731" y="566"/>
      <point x="740" y="574"/>
      <point x="740" y="591" type="curve" smooth="yes"/>
      <point x="740" y="599" type="line" smooth="yes"/>
      <point x="740" y="616"/>
      <point x="731" y="624"/>
      <point x="713" y="624" type="curve" smooth="yes"/>
      <point x="695" y="624"/>
      <point x="686" y="616"/>
      <point x="686" y="599" type="curve" smooth="yes"/>
      <point x="686" y="591" type="line" smooth="yes"/>
      <point x="686" y="574"/>
      <point x="695" y="566"/>
    </contour>
    <contour>
      <point x="287" y="136" type="curve" smooth="yes"/>
      <point x="305" y="136"/>
      <point x="314" y="144"/>
      <point x="314" y="161" type="curve" smooth="yes"/>
      <point x="314" y="169" type="line" smooth="yes"/>
      <point x="314" y="186"/>
      <point x="305" y="194"/>
      <point x="287" y="194" type="curve" smooth="yes"/>
      <point x="269" y="194"/>
      <point x="260" y="186"/>
      <point x="260" y="169" type="curve" smooth="yes"/>
      <point x="260" y="161" type="line" smooth="yes"/>
      <point x="260" y="144"/>
      <point x="269" y="136"/>
    </contour>
    <contour>
      <point x="713" y="136" type="curve" smooth="yes"/>
      <point x="731" y="136"/>
      <point x="740" y="144"/>
      <point x="740" y="161" type="curve" smooth="yes"/>
      <point x="740" y="169" type="line" smooth="yes"/>
      <point x="740" y="186"/>
      <point x="731" y="194"/>
      <point x="713" y="194" type="curve" smooth="yes"/>
      <point x="695" y="194"/>
      <point x="686" y="186"/>
      <point x="686" y="169" type="curve" smooth="yes"/>
      <point x="686" y="161" type="line" smooth="yes"/>
      <point x="686" y="144"/>
      <point x="695" y="136"/>
    </contour>
    <contour>
      <point x="287" y="566" type="curve" smooth="yes"/>
      <point x="305" y="566"/>
      <point x="314" y="574"/>
      <point x="314" y="591" type="curve" smooth="yes"/>
      <point x="314" y="599" type="line" smooth="yes"/>
      <point x="314" y="616"/>
      <point x="305" y="624"/>
      <point x="287" y="624" type="curve" smooth="yes"/>
      <point x="269" y="624"/>
      <point x="260" y="616"/>
      <point x="260" y="599" type="curve" smooth="yes"/>
      <point x="260" y="591" type="line" smooth="yes"/>
      <point x="260" y="574"/>
      <point x="269" y="566"/>
    </contour>
  </outline>
</glyph>
<glyph name="uni224C" format="2">
  <advance width="1000"/>
  <unicode hex="224C"/>
  <outline>
    <contour>
      <point x="326" y="392" type="curve" smooth="yes"/>
      <point x="424" y="392"/>
      <point x="473" y="486"/>
      <point x="519" y="573" type="curve" smooth="yes"/>
      <point x="564" y="659"/>
      <point x="599" y="711"/>
      <point x="678" y="711" type="curve" smooth="yes"/>
      <point x="758" y="711"/>
      <point x="817" y="665"/>
      <point x="817" y="579" type="curve" smooth="yes"/>
      <point x="817" y="543" type="line" smooth="yes"/>
      <point x="817" y="457"/>
      <point x="758" y="411"/>
      <point x="678" y="411" type="curve" smooth="yes"/>
      <point x="634" y="411"/>
      <point x="592" y="429"/>
      <point x="559" y="471" type="curve"/>
      <point x="545" y="455" type="line"/>
      <point x="579" y="415"/>
      <point x="626" y="392"/>
      <point x="676" y="392" type="curve" smooth="yes"/>
      <point x="783" y="392"/>
      <point x="839" y="454"/>
      <point x="839" y="561" type="curve" smooth="yes"/>
      <point x="839" y="668"/>
      <point x="783" y="730"/>
      <point x="676" y="730" type="curve" smooth="yes"/>
      <point x="589" y="730"/>
      <point x="547" y="669"/>
      <point x="501" y="580" type="curve" smooth="yes"/>
      <point x="454" y="488"/>
      <point x="406" y="411"/>
      <point x="324" y="411" type="curve" smooth="yes"/>
      <point x="244" y="411"/>
      <point x="185" y="457"/>
      <point x="185" y="543" type="curve" smooth="yes"/>
      <point x="185" y="579" type="line" smooth="yes"/>
      <point x="185" y="665"/>
      <point x="244" y="711"/>
      <point x="324" y="711" type="curve" smooth="yes"/>
      <point x="365" y="711"/>
      <point x="405" y="695"/>
      <point x="437" y="659" type="curve"/>
      <point x="451" y="674" type="line"/>
      <point x="417" y="710"/>
      <point x="373" y="730"/>
      <point x="326" y="730" type="curve" smooth="yes"/>
      <point x="219" y="730"/>
      <point x="163" y="668"/>
      <point x="163" y="561" type="curve" smooth="yes"/>
      <point x="163" y="454"/>
      <point x="219" y="392"/>
    </contour>
    <contour>
      <point x="831" y="61" type="line"/>
      <point x="831" y="80" type="line"/>
      <point x="171" y="80" type="line"/>
      <point x="171" y="61" type="line"/>
    </contour>
    <contour>
      <point x="831" y="243" type="line"/>
      <point x="831" y="262" type="line"/>
      <point x="171" y="262" type="line"/>
      <point x="171" y="243" type="line"/>
    </contour>
  </outline>
</glyph>
<glyph name="uni2261" format="2">
  <advance width="1000"/>
  <unicode hex="2261"/>
  <outline>
    <contour>
      <point x="860" y="590" type="line"/>
      <point x="860" y="609" type="line"/>
      <point x="140" y="609" type="line"/>
      <point x="140" y="590" type="line"/>
    </contour>
    <contour>
      <point x="860" y="371" type="line"/>
      <point x="860" y="390" type="line"/>
      <point x="140" y="390" type="line"/>
      <point x="140" y="371" type="line"/>
    </contour>
    <contour>
      <point x="860" y="151" type="line"/>
      <point x="860" y="170" type="line"/>
      <point x="140" y="170" type="line"/>
      <point x="140" y="151" type="line"/>
    </contour>
  </outline>
</glyph>
<glyph name="uni226F" format="2">
  <advance width="1000"/>
  <unicode hex="226F"/>
  <outline>
    <contour>
      <point x="853" y="352" type="line"/>
      <point x="853" y="371" type="line"/>
      <point x="137" y="668" type="line"/>
      <point x="137" y="648" type="line"/>
      <point x="822" y="363" type="line"/>
      <point x="822" y="360" type="line"/>
      <point x="137" y="74" type="line"/>
      <point x="137" y="54" type="line"/>
    </contour>
    <contour>
      <point x="352" y="-14" type="line"/>
      <point x="602" y="744" type="line"/>
      <point x="582" y="744" type="line"/>
      <point x="332" y="-14" type="line"/>
    </contour>
  </outline>
</glyph>
<glyph name="uni2299" format="2">
  <advance width="1000"/>
  <unicode hex="2299"/>
  <outline>
    <contour>
      <point x="500" y="-25" type="curve" smooth="yes"/>
      <point x="721" y="-25"/>
      <point x="900" y="154"/>
      <point x="900" y="375" type="curve" smooth="yes"/>
      <point x="900" y="596"/>
      <point x="721" y="775"/>
      <point x="500" y="775" type="curve" smooth="yes"/>
      <point x="279" y="775"/>
      <point x="100" y="596"/>
      <point x="100" y="375" type="curve" smooth="yes"/>
      <point x="100" y="154"/>
      <point x="279" y="-25"/>
    </contour>
    <contour>
      <point x="500" y="-6" type="curve" smooth="yes"/>
      <point x="291" y="-6"/>
      <point x="121" y="165"/>
      <point x="121" y="375" type="curve" smooth="yes"/>
      <point x="121" y="585"/>
      <point x="291" y="756"/>
      <point x="500" y="756" type="curve" smooth="yes"/>
      <point x="709" y="756"/>
      <point x="879" y="585"/>
      <point x="879" y="375" type="curve" smooth="yes"/>
      <point x="879" y="165"/>
      <point x="709" y="-6"/>
    </contour>
    <contour>
      <point x="501" y="352" type="curve" smooth="yes"/>
      <point x="513" y="352"/>
      <point x="524" y="363"/>
      <point x="524" y="376" type="curve" smooth="yes"/>
      <point x="524" y="388"/>
      <point x="513" y="399"/>
      <point x="501" y="399" type="curve" smooth="yes"/>
      <point x="488" y="399"/>
      <point x="477" y="388"/>
      <point x="477" y="376" type="curve" smooth="yes"/>
      <point x="477" y="363"/>
      <point x="488" y="352"/>
    </contour>
  </outline>
</glyph>
<glyph name="uni22A5" format="2">
  <advance width="1000"/>
  <unicode hex="22A5"/>
  <outline>
    <contour>
      <point x="511" y="76" type="line"/>
      <point x="511" y="682" type="line"/>
      <point x="490" y="682" type="line"/>
      <point x="490" y="76" type="line"/>
      <point x="191" y="76" type="line"/>
      <point x="191" y="57" type="line"/>
      <point x="809" y="57" type="line"/>
      <point x="809" y="76" type="line"/>
    </contour>
  </outline>
</glyph>
<glyph name="uni22BF" format="2">
  <advance width="1000"/>
  <unicode hex="22BF"/>
  <outline>
    <contour>
      <point x="766" y="632" type="line"/>
      <point x="204" y="54" type="line"/>
      <point x="766" y="54" type="line"/>
    </contour>
    <contour>
      <point x="746" y="579" type="line"/>
      <point x="746" y="74" type="line"/>
      <point x="248" y="74" type="line"/>
    </contour>
  </outline>
</glyph>
<glyph name="uni2466" format="2">
  <advance width="1000"/>
  <unicode hex="2466"/>
  <outline>
    <contour>
      <point x="500" y="-70" type="curve" smooth="yes"/>
      <point x="748" y="-70"/>
      <point x="950" y="132"/>
      <point x="950" y="380" type="curve" smooth="yes"/>
      <point x="950" y="628"/>
      <point x="748" y="830"/>
      <point x="500" y="830" type="curve" smooth="yes"/>
      <point x="252" y="830"/>
      <point x="50" y="628"/>
      <point x="50" y="380" type="curve" smooth="yes"/>
      <point x="50" y="132"/>
      <point x="252" y="-70"/>
    </contour>
    <contour>
      <point x="500" y="-54" type="curve" smooth="yes"/>
      <point x="262" y="-54"/>
      <point x="68" y="140"/>
      <point x="68" y="380" type="curve" smooth="yes"/>
      <point x="68" y="620"/>
      <point x="262" y="814"/>
      <point x="500" y="814" type="curve" smooth="yes"/>
      <point x="738" y="814"/>
      <point x="932" y="620"/>
      <point x="932" y="380" type="curve" smooth="yes"/>
      <point x="932" y="140"/>
      <point x="738" y="-54"/>
    </contour>
    <contour>
      <point x="452" y="170" type="line"/>
      <point x="629" y="571" type="line"/>
      <point x="629" y="589" type="line"/>
      <point x="365" y="589" type="line"/>
      <point x="365" y="474" type="line"/>
      <point x="383" y="474" type="line"/>
      <point x="383" y="572" type="line"/>
      <point x="609" y="572" type="line"/>
      <point x="431" y="170" type="line"/>
    </contour>
  </outline>
</glyph>
<glyph name="uni2467" format="2">
  <advance width="1000"/>
  <unicode hex="2467"/>
  <outline>
    <contour>
      <point x="500" y="-70" type="curve" smooth="yes"/>
      <point x="748" y="-70"/>
      <point x="950" y="132"/>
      <point x="950" y="380" type="curve" smooth="yes"/>
      <point x="950" y="628"/>
      <point x="748" y="830"/>
      <point x="500" y="830" type="curve" smooth="yes"/>
      <point x="252" y="830"/>
      <point x="50" y="628"/>
      <point x="50" y="380" type="curve" smooth="yes"/>
      <point x="50" y="132"/>
      <point x="252" y="-70"/>
    </contour>
    <contour>
      <point x="500" y="180" type="curve" smooth="yes"/>
      <point x="428" y="180"/>
      <point x="383" y="217"/>
      <point x="383" y="273" type="curve" smooth="yes"/>
      <point x="383" y="288" type="line" smooth="yes"/>
      <point x="383" y="344"/>
      <point x="429" y="381"/>
      <point x="500" y="381" type="curve" smooth="yes"/>
      <point x="571" y="381"/>
      <point x="617" y="344"/>
      <point x="617" y="288" type="curve" smooth="yes"/>
      <point x="617" y="273" type="line" smooth="yes"/>
      <point x="617" y="217"/>
      <point x="572" y="180"/>
    </contour>
    <contour>
      <point x="500" y="-54" type="curve" smooth="yes"/>
      <point x="262" y="-54"/>
      <point x="68" y="140"/>
      <point x="68" y="380" type="curve" smooth="yes"/>
      <point x="68" y="620"/>
      <point x="262" y="814"/>
      <point x="500" y="814" type="curve" smooth="yes"/>
      <point x="738" y="814"/>
      <point x="932" y="620"/>
      <point x="932" y="380" type="curve" smooth="yes"/>
      <point x="932" y="140"/>
      <point x="738" y="-54"/>
    </contour>
    <contour>
      <point x="500" y="163" type="curve" smooth="yes"/>
      <point x="584" y="163"/>
      <point x="638" y="208"/>
      <point x="638" y="279" type="curve" smooth="yes"/>
      <point x="638" y="350"/>
      <point x="587" y="394"/>
      <point x="512" y="390" type="curve"/>
      <point x="546" y="380" type="line"/>
      <point x="546" y="400" type="line"/>
      <point x="515" y="389" type="line"/>
      <point x="575" y="386"/>
      <point x="624" y="423"/>
      <point x="624" y="491" type="curve" smooth="yes"/>
      <point x="624" y="555"/>
      <point x="576" y="596"/>
      <point x="500" y="596" type="curve" smooth="yes"/>
      <point x="424" y="596"/>
      <point x="376" y="555"/>
      <point x="376" y="491" type="curve" smooth="yes"/>
      <point x="376" y="423"/>
      <point x="425" y="386"/>
      <point x="485" y="389" type="curve"/>
      <point x="454" y="400" type="line"/>
      <point x="454" y="381" type="line"/>
      <point x="488" y="390" type="line"/>
      <point x="413" y="394"/>
      <point x="362" y="350"/>
      <point x="362" y="279" type="curve" smooth="yes"/>
      <point x="362" y="208"/>
      <point x="416" y="163"/>
    </contour>
    <contour>
      <point x="500" y="397" type="curve" smooth="yes"/>
      <point x="437" y="397"/>
      <point x="397" y="430"/>
      <point x="397" y="481" type="curve" smooth="yes"/>
      <point x="397" y="495" type="line" smooth="yes"/>
      <point x="397" y="546"/>
      <point x="437" y="579"/>
      <point x="500" y="579" type="curve" smooth="yes"/>
      <point x="563" y="579"/>
      <point x="603" y="546"/>
      <point x="603" y="495" type="curve" smooth="yes"/>
      <point x="603" y="481" type="line" smooth="yes"/>
      <point x="603" y="430"/>
      <point x="563" y="397"/>
    </contour>
  </outline>
</glyph>
<glyph name="uni2468" format="2">
  <advance width="1000"/>
  <unicode hex="2468"/>
  <outline>
    <contour>
      <point x="500" y="-70" type="curve" smooth="yes"/>
      <point x="748" y="-70"/>
      <point x="950" y="132"/>
      <point x="950" y="380" type="curve" smooth="yes"/>
      <point x="950" y="628"/>
      <point x="748" y="830"/>
      <point x="500" y="830" type="curve" smooth="yes"/>
      <point x="252" y="830"/>
      <point x="50" y="628"/>
      <point x="50" y="380" type="curve" smooth="yes"/>
      <point x="50" y="132"/>
      <point x="252" y="-70"/>
    </contour>
    <contour>
      <point x="500" y="-54" type="curve" smooth="yes"/>
      <point x="262" y="-54"/>
      <point x="68" y="140"/>
      <point x="68" y="380" type="curve" smooth="yes"/>
      <point x="68" y="620"/>
      <point x="262" y="814"/>
      <point x="500" y="814" type="curve" smooth="yes"/>
      <point x="738" y="814"/>
      <point x="932" y="620"/>
      <point x="932" y="380" type="curve" smooth="yes"/>
      <point x="932" y="140"/>
      <point x="738" y="-54"/>
    </contour>
    <contour>
      <point x="469" y="170" type="line"/>
      <point x="559" y="226"/>
      <point x="631" y="317"/>
      <point x="631" y="451" type="curve" smooth="yes"/>
      <point x="631" y="531"/>
      <point x="593" y="596"/>
      <point x="501" y="596" type="curve" smooth="yes"/>
      <point x="421" y="596"/>
      <point x="372" y="544"/>
      <point x="372" y="464" type="curve" smooth="yes"/>
      <point x="372" y="385"/>
      <point x="422" y="337"/>
      <point x="499" y="337" type="curve" smooth="yes"/>
      <point x="546" y="337"/>
      <point x="584" y="357"/>
      <point x="607" y="401" type="curve"/>
      <point x="609" y="400" type="line"/>
      <point x="592" y="303"/>
      <point x="541" y="233"/>
      <point x="441" y="170" type="curve"/>
    </contour>
    <contour>
      <point x="502" y="354" type="curve" smooth="yes"/>
      <point x="434" y="354"/>
      <point x="393" y="397"/>
      <point x="393" y="457" type="curve" smooth="yes"/>
      <point x="393" y="475" type="line" smooth="yes"/>
      <point x="393" y="535"/>
      <point x="434" y="579"/>
      <point x="502" y="579" type="curve" smooth="yes"/>
      <point x="570" y="579"/>
      <point x="610" y="534"/>
      <point x="610" y="474" type="curve" smooth="yes"/>
      <point x="610" y="457" type="line" smooth="yes"/>
      <point x="610" y="398"/>
      <point x="571" y="354"/>
    </contour>
  </outline>
</glyph>
<glyph name="uni247A" format="2">
  <advance width="1000"/>
  <unicode hex="247A"/>
  <outline>
    <contour>
      <point x="239" y="-67" type="line"/>
      <point x="140" y="21"/>
      <point x="51" y="180"/>
      <point x="51" y="365" type="curve" smooth="yes"/>
      <point x="51" y="399" type="line" smooth="yes"/>
      <point x="51" y="584"/>
      <point x="140" y="743"/>
      <point x="239" y="831" type="curve"/>
      <point x="214" y="831" type="line"/>
      <point x="121" y="746"/>
      <point x="30" y="585"/>
      <point x="30" y="382" type="curve" smooth="yes"/>
      <point x="30" y="178"/>
      <point x="121" y="18"/>
      <point x="214" y="-67" type="curve"/>
    </contour>
    <contour>
      <point x="786" y="-67" type="line"/>
      <point x="878" y="19"/>
      <point x="970" y="177"/>
      <point x="970" y="382" type="curve" smooth="yes"/>
      <point x="970" y="586"/>
      <point x="877" y="745"/>
      <point x="786" y="831" type="curve"/>
      <point x="761" y="831" type="line"/>
      <point x="860" y="743"/>
      <point x="949" y="584"/>
      <point x="949" y="399" type="curve" smooth="yes"/>
      <point x="949" y="365" type="line" smooth="yes"/>
      <point x="949" y="180"/>
      <point x="860" y="21"/>
      <point x="761" y="-67" type="curve"/>
    </contour>
    <contour>
      <point x="629" y="615" type="line"/>
      <point x="365" y="615" type="line"/>
      <point x="365" y="500" type="line"/>
      <point x="383" y="500" type="line"/>
      <point x="383" y="598" type="line"/>
      <point x="609" y="598" type="line"/>
      <point x="431" y="196" type="line"/>
      <point x="452" y="196" type="line"/>
      <point x="629" y="597" type="line"/>
    </contour>
  </outline>
</glyph>
<glyph name="uni247D" format="2">
  <advance width="1000"/>
  <unicode hex="247D"/>
  <outline>
    <contour>
      <point x="239" y="-67" type="line"/>
      <point x="140" y="21"/>
      <point x="51" y="180"/>
      <point x="51" y="365" type="curve" smooth="yes"/>
      <point x="51" y="399" type="line" smooth="yes"/>
      <point x="51" y="584"/>
      <point x="140" y="743"/>
      <point x="239" y="831" type="curve"/>
      <point x="214" y="831" type="line"/>
      <point x="121" y="746"/>
      <point x="30" y="585"/>
      <point x="30" y="382" type="curve" smooth="yes"/>
      <point x="30" y="178"/>
      <point x="121" y="18"/>
      <point x="214" y="-67" type="curve"/>
    </contour>
    <contour>
      <point x="786" y="-67" type="line"/>
      <point x="878" y="19"/>
      <point x="970" y="177"/>
      <point x="970" y="382" type="curve" smooth="yes"/>
      <point x="970" y="586"/>
      <point x="877" y="745"/>
      <point x="786" y="831" type="curve"/>
      <point x="761" y="831" type="line"/>
      <point x="860" y="743"/>
      <point x="949" y="584"/>
      <point x="949" y="399" type="curve" smooth="yes"/>
      <point x="949" y="365" type="line" smooth="yes"/>
      <point x="949" y="180"/>
      <point x="860" y="21"/>
      <point x="761" y="-67" type="curve"/>
    </contour>
    <contour>
      <point x="681" y="195" type="curve" smooth="yes"/>
      <point x="770" y="195"/>
      <point x="820" y="259"/>
      <point x="820" y="411" type="curve" smooth="yes"/>
      <point x="820" y="563"/>
      <point x="770" y="628"/>
      <point x="681" y="628" type="curve" smooth="yes"/>
      <point x="592" y="628"/>
      <point x="542" y="563"/>
      <point x="542" y="411" type="curve" smooth="yes"/>
      <point x="542" y="259"/>
      <point x="592" y="195"/>
    </contour>
    <contour>
      <point x="469" y="219" type="line"/>
      <point x="346" y="219" type="line"/>
      <point x="346" y="621" type="line"/>
      <point x="313" y="621" type="line"/>
      <point x="186" y="510" type="line"/>
      <point x="198" y="498" type="line"/>
      <point x="324" y="607" type="line"/>
      <point x="326" y="607" type="line"/>
      <point x="326" y="219" type="line"/>
      <point x="196" y="219" type="line"/>
      <point x="196" y="202" type="line"/>
      <point x="469" y="202" type="line"/>
    </contour>
    <contour>
      <point x="681" y="212" type="curve" smooth="yes"/>
      <point x="602" y="212"/>
      <point x="563" y="272"/>
      <point x="563" y="391" type="curve" smooth="yes"/>
      <point x="563" y="432" type="line" smooth="yes"/>
      <point x="563" y="549"/>
      <point x="604" y="611"/>
      <point x="681" y="611" type="curve" smooth="yes"/>
      <point x="758" y="611"/>
      <point x="799" y="549"/>
      <point x="799" y="432" type="curve" smooth="yes"/>
      <point x="799" y="391" type="line" smooth="yes"/>
      <point x="799" y="272"/>
      <point x="760" y="212"/>
    </contour>
  </outline>
</glyph>
<glyph name="uni247F" format="2">
  <advance width="1000"/>
  <unicode hex="247F"/>
  <outline>
    <contour>
      <point x="51" y="399" type="line" smooth="yes"/>
      <point x="51" y="584"/>
      <point x="140" y="743"/>
      <point x="239" y="831" type="curve"/>
      <point x="214" y="831" type="line"/>
      <point x="121" y="746"/>
      <point x="30" y="585"/>
      <point x="30" y="382" type="curve" smooth="yes"/>
      <point x="30" y="178"/>
      <point x="121" y="18"/>
      <point x="214" y="-67" type="curve"/>
      <point x="239" y="-67" type="line"/>
      <point x="140" y="21"/>
      <point x="51" y="180"/>
      <point x="51" y="365" type="curve" smooth="yes"/>
    </contour>
    <contour>
      <point x="761" y="831" type="line"/>
      <point x="860" y="743"/>
      <point x="949" y="584"/>
      <point x="949" y="399" type="curve" smooth="yes"/>
      <point x="949" y="365" type="line" smooth="yes"/>
      <point x="949" y="180"/>
      <point x="860" y="21"/>
      <point x="761" y="-67" type="curve"/>
      <point x="786" y="-67" type="line"/>
      <point x="878" y="19"/>
      <point x="970" y="177"/>
      <point x="970" y="382" type="curve" smooth="yes"/>
      <point x="970" y="586"/>
      <point x="877" y="745"/>
      <point x="786" y="831" type="curve"/>
    </contour>
    <contour>
      <point x="551" y="196" type="line"/>
      <point x="814" y="196" type="line"/>
      <point x="814" y="213" type="line"/>
      <point x="572" y="213" type="line"/>
      <point x="721" y="361" type="line" smooth="yes"/>
      <point x="760" y="400"/>
      <point x="794" y="444"/>
      <point x="794" y="505" type="curve" smooth="yes"/>
      <point x="794" y="577"/>
      <point x="753" y="622"/>
      <point x="677" y="622" type="curve" smooth="yes"/>
      <point x="606" y="622"/>
      <point x="565" y="584"/>
      <point x="550" y="528" type="curve"/>
      <point x="568" y="523" type="line"/>
      <point x="583" y="572"/>
      <point x="615" y="605"/>
      <point x="676" y="605" type="curve" smooth="yes"/>
      <point x="740" y="605"/>
      <point x="773" y="566"/>
      <point x="773" y="514" type="curve" smooth="yes"/>
      <point x="773" y="496" type="line" smooth="yes"/>
      <point x="773" y="452"/>
      <point x="750" y="414"/>
      <point x="710" y="374" type="curve" smooth="yes"/>
      <point x="551" y="215" type="line"/>
    </contour>
    <contour>
      <point x="186" y="504" type="line"/>
      <point x="198" y="492" type="line"/>
      <point x="324" y="601" type="line"/>
      <point x="326" y="601" type="line"/>
      <point x="326" y="213" type="line"/>
      <point x="196" y="213" type="line"/>
      <point x="196" y="196" type="line"/>
      <point x="469" y="196" type="line"/>
      <point x="469" y="213" type="line"/>
      <point x="346" y="213" type="line"/>
      <point x="346" y="615" type="line"/>
      <point x="313" y="615" type="line"/>
    </contour>
  </outline>
</glyph>
<glyph name="uni2480" format="2">
  <advance width="1000"/>
  <unicode hex="2480"/>
  <outline>
    <contour>
      <point x="51" y="399" type="line" smooth="yes"/>
      <point x="51" y="584"/>
      <point x="140" y="743"/>
      <point x="239" y="831" type="curve"/>
      <point x="214" y="831" type="line"/>
      <point x="121" y="746"/>
      <point x="30" y="585"/>
      <point x="30" y="382" type="curve" smooth="yes"/>
      <point x="30" y="178"/>
      <point x="121" y="18"/>
      <point x="214" y="-67" type="curve"/>
      <point x="239" y="-67" type="line"/>
      <point x="140" y="21"/>
      <point x="51" y="180"/>
      <point x="51" y="365" type="curve" smooth="yes"/>
    </contour>
    <contour>
      <point x="761" y="831" type="line"/>
      <point x="860" y="743"/>
      <point x="949" y="584"/>
      <point x="949" y="399" type="curve" smooth="yes"/>
      <point x="949" y="365" type="line" smooth="yes"/>
      <point x="949" y="180"/>
      <point x="860" y="21"/>
      <point x="761" y="-67" type="curve"/>
      <point x="786" y="-67" type="line"/>
      <point x="878" y="19"/>
      <point x="970" y="177"/>
      <point x="970" y="382" type="curve" smooth="yes"/>
      <point x="970" y="586"/>
      <point x="877" y="745"/>
      <point x="786" y="831" type="curve"/>
    </contour>
    <contour>
      <point x="796" y="309" type="curve" smooth="yes"/>
      <point x="796" y="366"/>
      <point x="764" y="406"/>
      <point x="704" y="415" type="curve"/>
      <point x="704" y="417" type="line"/>
      <point x="753" y="428"/>
      <point x="787" y="457"/>
      <point x="787" y="517" type="curve" smooth="yes"/>
      <point x="787" y="581"/>
      <point x="741" y="622"/>
      <point x="672" y="622" type="curve" smooth="yes"/>
      <point x="612" y="622"/>
      <point x="573" y="595"/>
      <point x="554" y="555" type="curve"/>
      <point x="569" y="546" type="line"/>
      <point x="588" y="582"/>
      <point x="618" y="605"/>
      <point x="671" y="605" type="curve" smooth="yes"/>
      <point x="727" y="605"/>
      <point x="766" y="571"/>
      <point x="766" y="522" type="curve" smooth="yes"/>
      <point x="766" y="508" type="line" smooth="yes"/>
      <point x="766" y="459"/>
      <point x="727" y="424"/>
      <point x="667" y="424" type="curve" smooth="yes"/>
      <point x="612" y="424" type="line"/>
      <point x="612" y="407" type="line"/>
      <point x="668" y="407" type="line" smooth="yes"/>
      <point x="735" y="407"/>
      <point x="775" y="371"/>
      <point x="775" y="315" type="curve" smooth="yes"/>
      <point x="775" y="300" type="line" smooth="yes"/>
      <point x="775" y="244"/>
      <point x="733" y="206"/>
      <point x="669" y="206" type="curve" smooth="yes"/>
      <point x="616" y="206"/>
      <point x="581" y="224"/>
      <point x="554" y="265" type="curve"/>
      <point x="539" y="254" type="line"/>
      <point x="566" y="211"/>
      <point x="610" y="189"/>
      <point x="669" y="189" type="curve" smooth="yes"/>
      <point x="748" y="189"/>
      <point x="796" y="234"/>
    </contour>
    <contour>
      <point x="186" y="504" type="line"/>
      <point x="198" y="492" type="line"/>
      <point x="324" y="601" type="line"/>
      <point x="326" y="601" type="line"/>
      <point x="326" y="213" type="line"/>
      <point x="196" y="213" type="line"/>
      <point x="196" y="196" type="line"/>
      <point x="469" y="196" type="line"/>
      <point x="469" y="213" type="line"/>
      <point x="346" y="213" type="line"/>
      <point x="346" y="615" type="line"/>
      <point x="313" y="615" type="line"/>
    </contour>
  </outline>
</glyph>
<glyph name="uni2482" format="2">
  <advance width="1000"/>
  <unicode hex="2482"/>
  <outline>
    <contour>
      <point x="51" y="399" type="line" smooth="yes"/>
      <point x="51" y="584"/>
      <point x="140" y="743"/>
      <point x="239" y="831" type="curve"/>
      <point x="214" y="831" type="line"/>
      <point x="121" y="746"/>
      <point x="30" y="585"/>
      <point x="30" y="382" type="curve" smooth="yes"/>
      <point x="30" y="178"/>
      <point x="121" y="18"/>
      <point x="214" y="-67" type="curve"/>
      <point x="239" y="-67" type="line"/>
      <point x="140" y="21"/>
      <point x="51" y="180"/>
      <point x="51" y="365" type="curve" smooth="yes"/>
    </contour>
    <contour>
      <point x="761" y="831" type="line"/>
      <point x="860" y="743"/>
      <point x="949" y="584"/>
      <point x="949" y="399" type="curve" smooth="yes"/>
      <point x="949" y="365" type="line" smooth="yes"/>
      <point x="949" y="180"/>
      <point x="860" y="21"/>
      <point x="761" y="-67" type="curve"/>
      <point x="786" y="-67" type="line"/>
      <point x="878" y="19"/>
      <point x="970" y="177"/>
      <point x="970" y="382" type="curve" smooth="yes"/>
      <point x="970" y="586"/>
      <point x="877" y="745"/>
      <point x="786" y="831" type="curve"/>
    </contour>
    <contour>
      <point x="186" y="504" type="line"/>
      <point x="198" y="492" type="line"/>
      <point x="324" y="601" type="line"/>
      <point x="326" y="601" type="line"/>
      <point x="326" y="213" type="line"/>
      <point x="196" y="213" type="line"/>
      <point x="196" y="196" type="line"/>
      <point x="469" y="196" type="line"/>
      <point x="469" y="213" type="line"/>
      <point x="346" y="213" type="line"/>
      <point x="346" y="615" type="line"/>
      <point x="313" y="615" type="line"/>
    </contour>
    <contour>
      <point x="806" y="319" type="curve" smooth="yes"/>
      <point x="806" y="399"/>
      <point x="761" y="446"/>
      <point x="685" y="446" type="curve" smooth="yes"/>
      <point x="641" y="446"/>
      <point x="609" y="434"/>
      <point x="586" y="402" type="curve"/>
      <point x="584" y="402" type="line"/>
      <point x="598" y="597" type="line"/>
      <point x="791" y="597" type="line"/>
      <point x="791" y="615" type="line"/>
      <point x="582" y="615" type="line"/>
      <point x="567" y="390" type="line"/>
      <point x="585" y="388" type="line"/>
      <point x="609" y="415"/>
      <point x="632" y="429"/>
      <point x="683" y="429" type="curve" smooth="yes"/>
      <point x="750" y="429"/>
      <point x="785" y="387"/>
      <point x="785" y="326" type="curve" smooth="yes"/>
      <point x="785" y="311" type="line" smooth="yes"/>
      <point x="785" y="250"/>
      <point x="747" y="206"/>
      <point x="679" y="206" type="curve" smooth="yes"/>
      <point x="627" y="206"/>
      <point x="591" y="222"/>
      <point x="564" y="265" type="curve"/>
      <point x="549" y="254" type="line"/>
      <point x="578" y="209"/>
      <point x="619" y="189"/>
      <point x="679" y="189" type="curve" smooth="yes"/>
      <point x="758" y="189"/>
      <point x="806" y="239"/>
    </contour>
  </outline>
</glyph>
<glyph name="uni2484" format="2">
  <advance width="1000"/>
  <unicode hex="2484"/>
  <outline>
    <contour>
      <point x="239" y="-67" type="line"/>
      <point x="140" y="21"/>
      <point x="51" y="180"/>
      <point x="51" y="365" type="curve" smooth="yes"/>
      <point x="51" y="399" type="line" smooth="yes"/>
      <point x="51" y="584"/>
      <point x="140" y="743"/>
      <point x="239" y="831" type="curve"/>
      <point x="214" y="831" type="line"/>
      <point x="121" y="746"/>
      <point x="30" y="585"/>
      <point x="30" y="382" type="curve" smooth="yes"/>
      <point x="30" y="178"/>
      <point x="121" y="18"/>
      <point x="214" y="-67" type="curve"/>
    </contour>
    <contour>
      <point x="786" y="-67" type="line"/>
      <point x="878" y="19"/>
      <point x="970" y="177"/>
      <point x="970" y="382" type="curve" smooth="yes"/>
      <point x="970" y="586"/>
      <point x="877" y="745"/>
      <point x="786" y="831" type="curve"/>
      <point x="761" y="831" type="line"/>
      <point x="860" y="743"/>
      <point x="949" y="584"/>
      <point x="949" y="399" type="curve" smooth="yes"/>
      <point x="949" y="365" type="line" smooth="yes"/>
      <point x="949" y="180"/>
      <point x="860" y="21"/>
      <point x="761" y="-67" type="curve"/>
    </contour>
    <contour>
      <point x="469" y="213" type="line"/>
      <point x="346" y="213" type="line"/>
      <point x="346" y="615" type="line"/>
      <point x="313" y="615" type="line"/>
      <point x="186" y="504" type="line"/>
      <point x="198" y="492" type="line"/>
      <point x="324" y="601" type="line"/>
      <point x="326" y="601" type="line"/>
      <point x="326" y="213" type="line"/>
      <point x="196" y="213" type="line"/>
      <point x="196" y="196" type="line"/>
      <point x="469" y="196" type="line"/>
    </contour>
    <contour>
      <point x="809" y="597" type="line"/>
      <point x="809" y="615" type="line"/>
      <point x="545" y="615" type="line"/>
      <point x="545" y="500" type="line"/>
      <point x="563" y="500" type="line"/>
      <point x="563" y="598" type="line"/>
      <point x="789" y="598" type="line"/>
      <point x="611" y="196" type="line"/>
      <point x="632" y="196" type="line"/>
    </contour>
  </outline>
</glyph>
<glyph name="uni2486" format="2">
  <advance width="1000"/>
  <unicode hex="2486"/>
  <outline>
    <contour>
      <point x="51" y="399" type="line" smooth="yes"/>
      <point x="51" y="584"/>
      <point x="140" y="743"/>
      <point x="239" y="831" type="curve"/>
      <point x="214" y="831" type="line"/>
      <point x="121" y="746"/>
      <point x="30" y="585"/>
      <point x="30" y="382" type="curve" smooth="yes"/>
      <point x="30" y="178"/>
      <point x="121" y="18"/>
      <point x="214" y="-67" type="curve"/>
      <point x="239" y="-67" type="line"/>
      <point x="140" y="21"/>
      <point x="51" y="180"/>
      <point x="51" y="365" type="curve" smooth="yes"/>
    </contour>
    <contour>
      <point x="761" y="831" type="line"/>
      <point x="860" y="743"/>
      <point x="949" y="584"/>
      <point x="949" y="399" type="curve" smooth="yes"/>
      <point x="949" y="365" type="line" smooth="yes"/>
      <point x="949" y="180"/>
      <point x="860" y="21"/>
      <point x="761" y="-67" type="curve"/>
      <point x="786" y="-67" type="line"/>
      <point x="878" y="19"/>
      <point x="970" y="177"/>
      <point x="970" y="382" type="curve" smooth="yes"/>
      <point x="970" y="586"/>
      <point x="877" y="745"/>
      <point x="786" y="831" type="curve"/>
    </contour>
    <contour>
      <point x="811" y="477" type="curve" smooth="yes"/>
      <point x="811" y="557"/>
      <point x="773" y="622"/>
      <point x="681" y="622" type="curve" smooth="yes"/>
      <point x="601" y="622"/>
      <point x="552" y="570"/>
      <point x="552" y="490" type="curve" smooth="yes"/>
      <point x="552" y="411"/>
      <point x="602" y="363"/>
      <point x="679" y="363" type="curve" smooth="yes"/>
      <point x="726" y="363"/>
      <point x="764" y="383"/>
      <point x="787" y="427" type="curve"/>
      <point x="789" y="426" type="line"/>
      <point x="772" y="329"/>
      <point x="721" y="259"/>
      <point x="621" y="196" type="curve"/>
      <point x="649" y="196" type="line"/>
      <point x="739" y="252"/>
      <point x="811" y="343"/>
    </contour>
    <contour>
      <point x="186" y="504" type="line"/>
      <point x="198" y="492" type="line"/>
      <point x="324" y="601" type="line"/>
      <point x="326" y="601" type="line"/>
      <point x="326" y="213" type="line"/>
      <point x="196" y="213" type="line"/>
      <point x="196" y="196" type="line"/>
      <point x="469" y="196" type="line"/>
      <point x="469" y="213" type="line"/>
      <point x="346" y="213" type="line"/>
      <point x="346" y="615" type="line"/>
      <point x="313" y="615" type="line"/>
    </contour>
    <contour>
      <point x="573" y="501" type="line" smooth="yes"/>
      <point x="573" y="561"/>
      <point x="614" y="605"/>
      <point x="682" y="605" type="curve" smooth="yes"/>
      <point x="750" y="605"/>
      <point x="790" y="560"/>
      <point x="790" y="500" type="curve" smooth="yes"/>
      <point x="790" y="483" type="line" smooth="yes"/>
      <point x="790" y="424"/>
      <point x="751" y="380"/>
      <point x="682" y="380" type="curve" smooth="yes"/>
      <point x="614" y="380"/>
      <point x="573" y="423"/>
      <point x="573" y="483" type="curve" smooth="yes"/>
    </contour>
  </outline>
</glyph>
<glyph name="uni2488" format="2">
  <advance width="1000"/>
  <unicode hex="2488"/>
  <outline>
    <contour>
      <point x="697" y="20" type="line"/>
      <point x="475" y="20" type="line"/>
      <point x="475" y="733" type="line"/>
      <point x="437" y="733" type="line"/>
      <point x="209" y="543" type="line"/>
      <point x="223" y="527" type="line"/>
      <point x="449" y="716" type="line"/>
      <point x="453" y="716" type="line"/>
      <point x="453" y="20" type="line"/>
      <point x="223" y="20" type="line"/>
      <point x="223" y="0" type="line"/>
      <point x="697" y="0" type="line"/>
    </contour>
    <contour>
      <point x="851" y="-13" type="curve" smooth="yes"/>
      <point x="869" y="-13"/>
      <point x="878" y="-4"/>
      <point x="878" y="12" type="curve" smooth="yes"/>
      <point x="878" y="20" type="line" smooth="yes"/>
      <point x="878" y="36"/>
      <point x="869" y="45"/>
      <point x="851" y="45" type="curve" smooth="yes"/>
      <point x="833" y="45"/>
      <point x="824" y="36"/>
      <point x="824" y="20" type="curve" smooth="yes"/>
      <point x="824" y="12" type="line" smooth="yes"/>
      <point x="824" y="-4"/>
      <point x="833" y="-13"/>
    </contour>
  </outline>
</glyph>
<glyph name="uni248A" format="2">
  <advance width="1000"/>
  <unicode hex="248A"/>
  <outline>
    <contour>
      <point x="320" y="374" type="line"/>
      <point x="421" y="374" type="line" smooth="yes"/>
      <point x="540" y="374"/>
      <point x="616" y="308"/>
      <point x="616" y="208" type="curve" smooth="yes"/>
      <point x="616" y="179" type="line" smooth="yes"/>
      <point x="616" y="76"/>
      <point x="536" y="7"/>
      <point x="422" y="7" type="curve" smooth="yes"/>
      <point x="328" y="7"/>
      <point x="263" y="39"/>
      <point x="217" y="110" type="curve"/>
      <point x="199" y="100" type="line"/>
      <point x="247" y="23"/>
      <point x="320" y="-13"/>
      <point x="422" y="-13" type="curve" smooth="yes"/>
      <point x="556" y="-13"/>
      <point x="640" y="67"/>
      <point x="640" y="196" type="curve" smooth="yes"/>
      <point x="640" y="305"/>
      <point x="575" y="371"/>
      <point x="477" y="383" type="curve"/>
      <point x="477" y="386" type="line"/>
      <point x="563" y="403"/>
      <point x="624" y="459"/>
      <point x="624" y="563" type="curve" smooth="yes"/>
      <point x="624" y="674"/>
      <point x="546" y="746"/>
      <point x="426" y="746" type="curve" smooth="yes"/>
      <point x="321" y="746"/>
      <point x="254" y="697"/>
      <point x="225" y="629" type="curve"/>
      <point x="244" y="622" type="line"/>
      <point x="275" y="685"/>
      <point x="329" y="726"/>
      <point x="426" y="726" type="curve" smooth="yes"/>
      <point x="528" y="726"/>
      <point x="600" y="665"/>
      <point x="600" y="573" type="curve" smooth="yes"/>
      <point x="600" y="548" type="line" smooth="yes"/>
      <point x="600" y="458"/>
      <point x="525" y="394"/>
      <point x="419" y="394" type="curve" smooth="yes"/>
      <point x="320" y="394" type="line"/>
    </contour>
    <contour>
      <point x="851" y="-13" type="curve" smooth="yes"/>
      <point x="869" y="-13"/>
      <point x="878" y="-4"/>
      <point x="878" y="12" type="curve" smooth="yes"/>
      <point x="878" y="20" type="line" smooth="yes"/>
      <point x="878" y="36"/>
      <point x="869" y="45"/>
      <point x="851" y="45" type="curve" smooth="yes"/>
      <point x="833" y="45"/>
      <point x="824" y="36"/>
      <point x="824" y="20" type="curve" smooth="yes"/>
      <point x="824" y="12" type="line" smooth="yes"/>
      <point x="824" y="-4"/>
      <point x="833" y="-13"/>
    </contour>
  </outline>
</glyph>
<glyph name="uni248B" format="2">
  <advance width="1000"/>
  <unicode hex="248B"/>
  <outline>
    <contour>
      <point x="579" y="169" type="line"/>
      <point x="703" y="169" type="line"/>
      <point x="703" y="188" type="line"/>
      <point x="579" y="188" type="line"/>
      <point x="579" y="733" type="line"/>
      <point x="553" y="733" type="line"/>
      <point x="174" y="189" type="line"/>
      <point x="174" y="169" type="line"/>
      <point x="559" y="169" type="line"/>
      <point x="559" y="0" type="line"/>
      <point x="579" y="0" type="line"/>
    </contour>
    <contour>
      <point x="559" y="705" type="line"/>
      <point x="559" y="188" type="line"/>
      <point x="196" y="188" type="line"/>
      <point x="557" y="705" type="line"/>
    </contour>
    <contour>
      <point x="851" y="-13" type="curve" smooth="yes"/>
      <point x="869" y="-13"/>
      <point x="878" y="-4"/>
      <point x="878" y="12" type="curve" smooth="yes"/>
      <point x="878" y="20" type="line" smooth="yes"/>
      <point x="878" y="36"/>
      <point x="869" y="45"/>
      <point x="851" y="45" type="curve" smooth="yes"/>
      <point x="833" y="45"/>
      <point x="824" y="36"/>
      <point x="824" y="20" type="curve" smooth="yes"/>
      <point x="824" y="12" type="line" smooth="yes"/>
      <point x="824" y="-4"/>
      <point x="833" y="-13"/>
    </contour>
  </outline>
</glyph>
<glyph name="uni248C" format="2">
  <advance width="1000"/>
  <unicode hex="248C"/>
  <outline>
    <contour>
      <point x="273" y="733" type="line"/>
      <point x="246" y="342" type="line"/>
      <point x="269" y="339" type="line"/>
      <point x="312" y="390"/>
      <point x="355" y="414"/>
      <point x="444" y="414" type="curve" smooth="yes"/>
      <point x="565" y="414"/>
      <point x="631" y="337"/>
      <point x="631" y="227" type="curve" smooth="yes"/>
      <point x="631" y="197" type="line" smooth="yes"/>
      <point x="631" y="86"/>
      <point x="560" y="7"/>
      <point x="437" y="7" type="curve" smooth="yes"/>
      <point x="342" y="7"/>
      <point x="277" y="39"/>
      <point x="232" y="110" type="curve"/>
      <point x="213" y="100" type="line"/>
      <point x="262" y="23"/>
      <point x="335" y="-13"/>
      <point x="437" y="-13" type="curve" smooth="yes"/>
      <point x="570" y="-13"/>
      <point x="655" y="74"/>
      <point x="655" y="213" type="curve" smooth="yes"/>
      <point x="655" y="351"/>
      <point x="578" y="434"/>
      <point x="444" y="434" type="curve" smooth="yes"/>
      <point x="365" y="434"/>
      <point x="311" y="415"/>
      <point x="268" y="360" type="curve"/>
      <point x="266" y="361" type="line"/>
      <point x="291" y="713" type="line"/>
      <point x="630" y="713" type="line"/>
      <point x="630" y="733" type="line"/>
    </contour>
    <contour>
      <point x="851" y="-13" type="curve" smooth="yes"/>
      <point x="869" y="-13"/>
      <point x="878" y="-4"/>
      <point x="878" y="12" type="curve" smooth="yes"/>
      <point x="878" y="20" type="line" smooth="yes"/>
      <point x="878" y="36"/>
      <point x="869" y="45"/>
      <point x="851" y="45" type="curve" smooth="yes"/>
      <point x="833" y="45"/>
      <point x="824" y="36"/>
      <point x="824" y="20" type="curve" smooth="yes"/>
      <point x="824" y="12" type="line" smooth="yes"/>
      <point x="824" y="-4"/>
      <point x="833" y="-13"/>
    </contour>
  </outline>
</glyph>
<glyph name="uni248E" format="2">
  <advance width="1000"/>
  <unicode hex="248E"/>
  <outline>
    <contour>
      <point x="663" y="713" type="line"/>
      <point x="663" y="733" type="line"/>
      <point x="206" y="733" type="line"/>
      <point x="206" y="538" type="line"/>
      <point x="228" y="538" type="line"/>
      <point x="228" y="713" type="line"/>
      <point x="640" y="713" type="line"/>
      <point x="322" y="0" type="line"/>
      <point x="346" y="0" type="line"/>
    </contour>
    <contour>
      <point x="851" y="-13" type="curve" smooth="yes"/>
      <point x="869" y="-13"/>
      <point x="878" y="-4"/>
      <point x="878" y="12" type="curve" smooth="yes"/>
      <point x="878" y="20" type="line" smooth="yes"/>
      <point x="878" y="36"/>
      <point x="869" y="45"/>
      <point x="851" y="45" type="curve" smooth="yes"/>
      <point x="833" y="45"/>
      <point x="824" y="36"/>
      <point x="824" y="20" type="curve" smooth="yes"/>
      <point x="824" y="12" type="line" smooth="yes"/>
      <point x="824" y="-4"/>
      <point x="833" y="-13"/>
    </contour>
  </outline>
</glyph>
<glyph name="uni2493" format="2">
  <advance width="1000"/>
  <unicode hex="2493"/>
  <outline>
    <contour>
      <point x="870" y="0" type="line"/>
      <point x="870" y="21" type="line"/>
      <point x="502" y="21" type="line"/>
      <point x="730" y="290" type="line" smooth="yes"/>
      <point x="798" y="371"/>
      <point x="838" y="438"/>
      <point x="838" y="542" type="curve" smooth="yes"/>
      <point x="838" y="676"/>
      <point x="778" y="746"/>
      <point x="656" y="746" type="curve" smooth="yes"/>
      <point x="540" y="746"/>
      <point x="483" y="680"/>
      <point x="462" y="585" type="curve"/>
      <point x="483" y="581" type="line"/>
      <point x="506" y="670"/>
      <point x="551" y="725"/>
      <point x="655" y="725" type="curve" smooth="yes"/>
      <point x="763" y="725"/>
      <point x="813" y="656"/>
      <point x="813" y="565" type="curve" smooth="yes"/>
      <point x="813" y="521" type="line" smooth="yes"/>
      <point x="813" y="445"/>
      <point x="775" y="376"/>
      <point x="716" y="306" type="curve" smooth="yes"/>
      <point x="476" y="23" type="line"/>
      <point x="476" y="0" type="line"/>
    </contour>
    <contour>
      <point x="440" y="0" type="line"/>
      <point x="440" y="21" type="line"/>
      <point x="287" y="21" type="line"/>
      <point x="287" y="731" type="line"/>
      <point x="248" y="731" type="line"/>
      <point x="55" y="560" type="line"/>
      <point x="68" y="544" type="line"/>
      <point x="261" y="714" type="line"/>
      <point x="264" y="714" type="line"/>
      <point x="264" y="21" type="line"/>
      <point x="68" y="21" type="line"/>
      <point x="68" y="0" type="line"/>
    </contour>
    <contour>
      <point x="937" y="-13" type="curve" smooth="yes"/>
      <point x="955" y="-13"/>
      <point x="964" y="-4"/>
      <point x="964" y="12" type="curve" smooth="yes"/>
      <point x="964" y="20" type="line" smooth="yes"/>
      <point x="964" y="36"/>
      <point x="955" y="45"/>
      <point x="937" y="45" type="curve" smooth="yes"/>
      <point x="919" y="45"/>
      <point x="910" y="36"/>
      <point x="910" y="20" type="curve" smooth="yes"/>
      <point x="910" y="12" type="line" smooth="yes"/>
      <point x="910" y="-4"/>
      <point x="919" y="-13"/>
    </contour>
  </outline>
</glyph>
<glyph name="uni2496" format="2">
  <advance width="1000"/>
  <unicode hex="2496"/>
  <outline>
    <contour>
      <point x="475" y="0" type="line"/>
      <point x="475" y="21" type="line"/>
      <point x="287" y="21" type="line"/>
      <point x="287" y="731" type="line"/>
      <point x="248" y="731" type="line"/>
      <point x="55" y="560" type="line"/>
      <point x="68" y="544" type="line"/>
      <point x="261" y="714" type="line"/>
      <point x="264" y="714" type="line"/>
      <point x="264" y="21" type="line"/>
      <point x="68" y="21" type="line"/>
      <point x="68" y="0" type="line"/>
    </contour>
    <contour>
      <point x="936" y="-13" type="curve" smooth="yes"/>
      <point x="954" y="-13"/>
      <point x="963" y="-4"/>
      <point x="963" y="12" type="curve" smooth="yes"/>
      <point x="963" y="20" type="line" smooth="yes"/>
      <point x="963" y="36"/>
      <point x="954" y="45"/>
      <point x="936" y="45" type="curve" smooth="yes"/>
      <point x="918" y="45"/>
      <point x="909" y="36"/>
      <point x="909" y="20" type="curve" smooth="yes"/>
      <point x="909" y="12" type="line" smooth="yes"/>
      <point x="909" y="-4"/>
      <point x="918" y="-13"/>
    </contour>
    <contour>
      <point x="678" y="-12" type="curve" smooth="yes"/>
      <point x="803" y="-12"/>
      <point x="877" y="68"/>
      <point x="877" y="214" type="curve" smooth="yes"/>
      <point x="877" y="358"/>
      <point x="808" y="430"/>
      <point x="685" y="432" type="curve" smooth="yes"/>
      <point x="613" y="433"/>
      <point x="555" y="411"/>
      <point x="517" y="354" type="curve"/>
      <point x="515" y="355" type="line"/>
      <point x="541" y="712" type="line"/>
      <point x="854" y="712" type="line"/>
      <point x="854" y="731" type="line"/>
      <point x="523" y="731" type="line"/>
      <point x="495" y="339" type="line"/>
      <point x="519" y="336" type="line"/>
      <point x="561" y="390"/>
      <point x="604" y="413"/>
      <point x="685" y="413" type="curve" smooth="yes"/>
      <point x="788" y="413"/>
      <point x="852" y="344"/>
      <point x="852" y="232" type="curve" smooth="yes"/>
      <point x="852" y="193" type="line" smooth="yes"/>
      <point x="852" y="83"/>
      <point x="782" y="7"/>
      <point x="678" y="7" type="curve" smooth="yes"/>
      <point x="590" y="7"/>
      <point x="541" y="38"/>
      <point x="498" y="108" type="curve"/>
      <point x="479" y="97" type="line"/>
      <point x="526" y="19"/>
      <point x="585" y="-12"/>
    </contour>
  </outline>
</glyph>
<glyph name="uni2497" format="2">
  <advance width="1000"/>
  <unicode hex="2497"/>
  <outline>
    <contour>
      <point x="662" y="-12" type="curve" smooth="yes"/>
      <point x="795" y="-12"/>
      <point x="872" y="69"/>
      <point x="872" y="212" type="curve" smooth="yes"/>
      <point x="872" y="356"/>
      <point x="795" y="438"/>
      <point x="662" y="438" type="curve" smooth="yes"/>
      <point x="569" y="438"/>
      <point x="511" y="399"/>
      <point x="482" y="324" type="curve"/>
      <point x="479" y="325" type="line"/>
      <point x="505" y="498"/>
      <point x="590" y="624"/>
      <point x="752" y="731" type="curve"/>
      <point x="720" y="731" type="line"/>
      <point x="539" y="612"/>
      <point x="452" y="448"/>
      <point x="452" y="221" type="curve" smooth="yes"/>
      <point x="452" y="70"/>
      <point x="524" y="-12"/>
    </contour>
    <contour>
      <point x="475" y="0" type="line"/>
      <point x="475" y="21" type="line"/>
      <point x="287" y="21" type="line"/>
      <point x="287" y="731" type="line"/>
      <point x="248" y="731" type="line"/>
      <point x="55" y="560" type="line"/>
      <point x="68" y="544" type="line"/>
      <point x="261" y="714" type="line"/>
      <point x="264" y="714" type="line"/>
      <point x="264" y="21" type="line"/>
      <point x="68" y="21" type="line"/>
      <point x="68" y="0" type="line"/>
    </contour>
    <contour>
      <point x="662" y="7" type="curve" smooth="yes"/>
      <point x="542" y="7"/>
      <point x="476" y="86"/>
      <point x="476" y="193" type="curve" smooth="yes"/>
      <point x="476" y="232" type="line" smooth="yes"/>
      <point x="476" y="338"/>
      <point x="542" y="418"/>
      <point x="662" y="418" type="curve" smooth="yes"/>
      <point x="782" y="418"/>
      <point x="848" y="338"/>
      <point x="848" y="232" type="curve" smooth="yes"/>
      <point x="848" y="193" type="line" smooth="yes"/>
      <point x="848" y="86"/>
      <point x="782" y="7"/>
    </contour>
    <contour>
      <point x="936" y="-13" type="curve" smooth="yes"/>
      <point x="954" y="-13"/>
      <point x="963" y="-4"/>
      <point x="963" y="12" type="curve" smooth="yes"/>
      <point x="963" y="20" type="line" smooth="yes"/>
      <point x="963" y="36"/>
      <point x="954" y="45"/>
      <point x="936" y="45" type="curve" smooth="yes"/>
      <point x="918" y="45"/>
      <point x="909" y="36"/>
      <point x="909" y="20" type="curve" smooth="yes"/>
      <point x="909" y="12" type="line" smooth="yes"/>
      <point x="909" y="-4"/>
      <point x="918" y="-13"/>
    </contour>
  </outline>
</glyph>
<glyph name="uni2499" format="2">
  <advance width="1000"/>
  <unicode hex="2499"/>
  <outline>
    <contour>
      <point x="456" y="0" type="line"/>
      <point x="456" y="21" type="line"/>
      <point x="287" y="21" type="line"/>
      <point x="287" y="731" type="line"/>
      <point x="248" y="731" type="line"/>
      <point x="55" y="560" type="line"/>
      <point x="68" y="544" type="line"/>
      <point x="261" y="714" type="line"/>
      <point x="264" y="714" type="line"/>
      <point x="264" y="21" type="line"/>
      <point x="68" y="21" type="line"/>
      <point x="68" y="0" type="line"/>
    </contour>
    <contour>
      <point x="936" y="-13" type="curve" smooth="yes"/>
      <point x="954" y="-13"/>
      <point x="963" y="-4"/>
      <point x="963" y="12" type="curve" smooth="yes"/>
      <point x="963" y="20" type="line" smooth="yes"/>
      <point x="963" y="36"/>
      <point x="954" y="45"/>
      <point x="936" y="45" type="curve" smooth="yes"/>
      <point x="918" y="45"/>
      <point x="909" y="36"/>
      <point x="909" y="20" type="curve" smooth="yes"/>
      <point x="909" y="12" type="line" smooth="yes"/>
      <point x="909" y="-4"/>
      <point x="918" y="-13"/>
    </contour>
    <contour>
      <point x="668" y="-12" type="curve" smooth="yes"/>
      <point x="813" y="-12"/>
      <point x="894" y="62"/>
      <point x="894" y="189" type="curve" smooth="yes"/>
      <point x="894" y="304"/>
      <point x="824" y="370"/>
      <point x="728" y="382" type="curve"/>
      <point x="728" y="386" type="line"/>
      <point x="809" y="398"/>
      <point x="869" y="458"/>
      <point x="869" y="561" type="curve" smooth="yes"/>
      <point x="869" y="678"/>
      <point x="798" y="743"/>
      <point x="668" y="743" type="curve" smooth="yes"/>
      <point x="538" y="743"/>
      <point x="467" y="678"/>
      <point x="467" y="561" type="curve" smooth="yes"/>
      <point x="467" y="458"/>
      <point x="527" y="398"/>
      <point x="608" y="386" type="curve"/>
      <point x="608" y="382" type="line"/>
      <point x="512" y="370"/>
      <point x="442" y="304"/>
      <point x="442" y="189" type="curve"/>
      <point x="444" y="61"/>
      <point x="524" y="-12"/>
    </contour>
    <contour>
      <point x="668" y="7" type="curve" smooth="yes"/>
      <point x="546" y="7"/>
      <point x="467" y="72"/>
      <point x="467" y="174" type="curve" smooth="yes"/>
      <point x="467" y="209" type="line" smooth="yes"/>
      <point x="467" y="311"/>
      <point x="546" y="375"/>
      <point x="668" y="375" type="curve" smooth="yes"/>
      <point x="790" y="375"/>
      <point x="869" y="311"/>
      <point x="869" y="209" type="curve" smooth="yes"/>
      <point x="869" y="174" type="line" smooth="yes"/>
      <point x="869" y="72"/>
      <point x="790" y="7"/>
    </contour>
    <contour>
      <point x="668" y="394" type="curve" smooth="yes"/>
      <point x="559" y="394"/>
      <point x="491" y="450"/>
      <point x="491" y="542" type="curve" smooth="yes"/>
      <point x="491" y="576" type="line" smooth="yes"/>
      <point x="491" y="668"/>
      <point x="559" y="724"/>
      <point x="668" y="724" type="curve" smooth="yes"/>
      <point x="777" y="724"/>
      <point x="845" y="668"/>
      <point x="845" y="576" type="curve" smooth="yes"/>
      <point x="845" y="542" type="line" smooth="yes"/>
      <point x="845" y="450"/>
      <point x="777" y="394"/>
    </contour>
  </outline>
</glyph>
<glyph name="uni249B" format="2">
  <advance width="1000"/>
  <unicode hex="249B"/>
  <outline>
    <contour>
      <point x="698" y="-12" type="curve" smooth="yes"/>
      <point x="823" y="-12"/>
      <point x="903" y="78"/>
      <point x="903" y="365" type="curve" smooth="yes"/>
      <point x="903" y="654"/>
      <point x="823" y="743"/>
      <point x="698" y="743" type="curve" smooth="yes"/>
      <point x="573" y="743"/>
      <point x="493" y="654"/>
      <point x="493" y="365" type="curve" smooth="yes"/>
      <point x="493" y="78"/>
      <point x="573" y="-12"/>
    </contour>
    <contour>
      <point x="458" y="0" type="line"/>
      <point x="458" y="21" type="line"/>
      <point x="76" y="21" type="line"/>
      <point x="317" y="293" type="line" smooth="yes"/>
      <point x="387" y="372"/>
      <point x="426" y="438"/>
      <point x="426" y="542" type="curve" smooth="yes"/>
      <point x="426" y="676"/>
      <point x="368" y="746"/>
      <point x="246" y="746" type="curve" smooth="yes"/>
      <point x="130" y="746"/>
      <point x="73" y="680"/>
      <point x="52" y="585" type="curve"/>
      <point x="73" y="581" type="line"/>
      <point x="96" y="670"/>
      <point x="141" y="725"/>
      <point x="245" y="725" type="curve" smooth="yes"/>
      <point x="353" y="725"/>
      <point x="401" y="656"/>
      <point x="401" y="565" type="curve" smooth="yes"/>
      <point x="401" y="521" type="line" smooth="yes"/>
      <point x="401" y="445"/>
      <point x="364" y="377"/>
      <point x="303" y="309" type="curve" smooth="yes"/>
      <point x="50" y="23" type="line"/>
      <point x="50" y="0" type="line"/>
    </contour>
    <contour>
      <point x="936" y="-13" type="curve" smooth="yes"/>
      <point x="954" y="-13"/>
      <point x="963" y="-4"/>
      <point x="963" y="12" type="curve" smooth="yes"/>
      <point x="963" y="20" type="line" smooth="yes"/>
      <point x="963" y="36"/>
      <point x="954" y="45"/>
      <point x="936" y="45" type="curve" smooth="yes"/>
      <point x="918" y="45"/>
      <point x="909" y="36"/>
      <point x="909" y="20" type="curve" smooth="yes"/>
      <point x="909" y="12" type="line" smooth="yes"/>
      <point x="909" y="-4"/>
      <point x="918" y="-13"/>
    </contour>
    <contour>
      <point x="698" y="7" type="curve" smooth="yes"/>
      <point x="625" y="7"/>
      <point x="570" y="49"/>
      <point x="540" y="132" type="curve"/>
      <point x="699" y="350" type="line"/>
      <point x="862" y="575" type="line"/>
      <point x="864" y="575" type="line"/>
      <point x="875" y="532"/>
      <point x="880" y="477"/>
      <point x="880" y="412" type="curve" smooth="yes"/>
      <point x="880" y="319" type="line" smooth="yes"/>
      <point x="880" y="111"/>
      <point x="818" y="7"/>
    </contour>
    <contour>
      <point x="532" y="157" type="line"/>
      <point x="521" y="199"/>
      <point x="516" y="257"/>
      <point x="516" y="319" type="curve" smooth="yes"/>
      <point x="516" y="412" type="line" smooth="yes"/>
      <point x="516" y="620"/>
      <point x="578" y="724"/>
      <point x="698" y="724" type="curve" smooth="yes"/>
      <point x="771" y="724"/>
      <point x="826" y="681"/>
      <point x="856" y="600" type="curve"/>
      <point x="700" y="384" type="line"/>
      <point x="534" y="157" type="line"/>
    </contour>
  </outline>
</glyph>
